<?xml version="1.0" encoding="utf-8"?>
<!-- Generator: Adobe Illustrator 24.1.1, SVG Export Plug-In . SVG Version: 6.00 Build 0)  -->
<svg version="1.1" xmlns="http://www.w3.org/2000/svg" xmlns:xlink="http://www.w3.org/1999/xlink" x="0px" y="0px"
	 viewBox="0 0 1050 324" style="enable-background:new 0 0 1050 324;" xml:space="preserve">
<style type="text/css">
	.st0{fill:#FF9D2F;}
	.st1{fill:#FF9D2F;stroke:#FF9D2F;stroke-miterlimit:10;}
	.st2{fill:#FFF64C;}
	.st3{fill:#FFF64C;stroke:#FFF64C;stroke-miterlimit:10;}
	.st4{fill:#FF8935;}
	.st5{fill:#FF8935;stroke:#FF8935;stroke-miterlimit:10;}
	.st6{fill:#FFD428;}
	.st7{fill:none;stroke:#FFD428;stroke-miterlimit:10;}
	.st8{fill:#FF7E33;}
</style>
<g id="Capa_1">
	<g>
		<g id="Capa_2_1_">
			<g id="amarillo">
				<g id="capa4">
					
						<image style="overflow:visible;opacity:0.65;enable-background:new    ;" width="192" height="184" xlink:href="7868C1B6.png"  transform="matrix(1 0 0 1 49 134)">
					</image>
					<path class="st0" d="M75.6,301.4c27.2-13.8,39.4-42.2,28.3-65.4c-9.2-19.1-32.3-35.8-28.6-56c2.5-13.9,18.8-25.2,37-28
						s37.6,1.8,52.4,10.3s25.5,20.5,33.5,33.2c14.9,23.6,21.1,49.6,27.1,75.3l7.2,30.7"/>
					<path class="st0" d="M76.3,302.7c10.8-5.5,20.2-13.8,26.3-24.3c5.6-9.4,7.9-20.4,6.3-31.3c-1.8-11.9-9.2-21.6-16.3-30.8
						c-3.8-4.8-7.4-9.7-10.7-14.9c-2.8-4.7-5.2-9.9-5.6-15.4c-0.8-11.9,8-21,17.8-26.4c12.4-6.8,27.1-8.2,40.9-6
						c14.3,2.2,27.8,8,39.2,17c10.8,8.6,19.4,19.6,26.1,31.6c7.5,13.3,12.6,27.6,16.7,42.2c4.2,15,7.5,30.3,11.1,45.5l2.8,12
						c0.4,1.9,3.3,1.1,2.9-0.8c-3.7-15.8-7.3-31.7-11.3-47.4c-3.8-14.8-8.2-29.5-14.7-43.3c-6.1-12.9-13.9-25.2-24.1-35.3
						c-10.2-10.1-22.7-17.6-36.5-21.8c-13.9-4.2-29.3-5.2-43.4-1c-11.3,3.4-23.4,10.4-28.5,21.6c-2.3,5.1-2.8,10.7-1.7,16.2
						c1.2,5.6,4,10.9,7.2,15.6c6.8,10.4,15.8,19.4,21.3,30.7c4.7,9.9,5.3,21.2,1.7,31.5c-3.7,11.1-11.6,20.7-21.1,27.3
						c-2.6,1.8-5.3,3.4-8.1,4.9C73.2,300.9,74.7,303.5,76.3,302.7L76.3,302.7z"/>
					<rect x="126" y="207" class="st1" width="225.1" height="94.5"/>
				</g>
				<g id="capa3">
					
						<image style="overflow:visible;opacity:0.6;enable-background:new    ;" width="769" height="324" xlink:href="7868C1BA.png"  transform="matrix(1 0 0 1 5 0)">
					</image>
					<path class="st2" d="M13.8,221.1c12.4,17.7,39.3,15.7,59.6,8.3s41.8-18.2,62.4-11.9c26.3,8.1,36.8,39.1,56.4,58.4
						c29,28.6,74.8,29,115.5,27.5l187.9-6.9c6.5-0.2,13.3-0.5,19.3-2.9c15.2-6,22.5-23.4,35.5-33.3c18.9-14.2,45.1-10.3,68.6-11.8
						c49.9-3.3,96.6-36.8,115.6-83c10.2-24.8,12.4-54.3-0.8-77.6c-11.8-20.7-34.6-33.9-58.3-37s-47.8,3.3-68.9,14.5
						c-18.3,9.8-36.6,23.8-57.2,21.5c-27.9-3.1-43.1-33.2-65.2-50.6C456.2,14,417,13.4,380.9,13.8L50.6,17.4
						c-11.6,0.1-24.4,0.7-32.9,8.5C7.1,35.5,7.2,51.8,8.1,66l9.6,159.3"/>
					<path class="st2" d="M12.5,221.9c15.4,21.3,45.9,14.9,66.8,7c15.3-5.8,31.6-13.3,48.4-11.4c13.8,1.5,24.6,10,33.2,20.4
						c8.2,9.8,14.7,20.8,22.7,30.8c8.2,10.4,18.6,18.7,30.6,24.4c24.8,11.8,53.4,12.9,80.4,12.4c35.3-0.7,70.5-2.5,105.7-3.8l54.9-2
						l27.5-1c8.4-0.3,16.9-0.1,25.2-1.5c13.8-2.3,22.3-12.2,30.8-22.4c4.3-5.2,8.8-10.5,14.5-14.4c6.1-4,13-6.7,20.2-7.9
						c14.7-2.8,29.8-1.5,44.7-2.3c13.2-0.8,26.3-3.6,38.7-8.2c24.9-9.4,46.6-25.6,62.7-46.7c17-22.4,27.8-51.3,24.7-79.7
						c-1.4-14.1-7-27.5-16-38.4c-8.8-10.2-20.1-18-32.8-22.7c-29-10.9-61.4-4.8-88.2,9.2c-13.7,7.2-26.6,16.7-41.8,20.6
						c-13.9,3.5-27.1,0-38.4-8.4c-10.4-7.8-18.6-18-27.5-27.4c-9.3-9.8-19.3-18.3-31.6-24c-26.2-12.2-56.3-12.5-84.6-12.2
						c-36.7,0.3-73.5,0.7-110.2,1.2c-73.6,0.8-147.3,1.6-220.9,2.4C39,16,23.8,16.3,14.5,27c-8.4,9.8-8.7,23.8-8.1,35.9
						c1.7,36.3,4.4,72.6,6.6,108.9l3.2,53.6c0.1,1.9,3.1,1.9,3,0l-6.5-107.2c-1.1-17.7-2.2-35.5-3.2-53.2c-0.7-12.8-1.1-28.7,9.3-38
						c11.5-10.4,30.6-8,44.9-8.2l53.6-0.6L224.4,17l107.2-1.2c17.6-0.2,35.1-0.4,52.7-0.6c14.4-0.1,28.9,0,43.2,1.7
						s28.8,5,41.8,11.6c12.1,6.1,21.7,15.2,30.8,25c16.1,17.4,33.6,38.3,59.9,34.8c14.2-1.9,26.8-9.7,39-16.7
						c13.9-8,28.3-14.5,44-17.7c29-5.8,61.1,1,81.4,23.7c21,23.4,20.4,57.6,9.6,85.4c-9.8,25.1-28,46.7-50.4,61.6
						c-11.1,7.4-23.2,13.2-35.9,17.1c-13.2,4-26.6,5.5-40.3,5.7s-28.1-0.3-41.6,3.6c-13,3.8-21.8,12.1-30.2,22.2
						c-4,4.9-8,9.8-12.9,13.8c-6.4,5.2-13.9,7.1-22,7.7c-17.6,1.1-35.3,1.3-53,2l-107,3.9c-30,1.1-60.8,3.8-90.7-0.5
						c-13.3-1.9-26.6-5.4-38.5-11.8s-21.3-15.4-29.3-26.1c-13.8-18.4-26.4-43-51.3-47.4c-29.6-5.3-55.2,17.5-84.2,18.4
						c-12,0.4-24.5-2.8-31.9-12.9C13.9,218.8,11.3,220.3,12.5,221.9L12.5,221.9z"/>
					<rect x="7.7" y="14.8" class="st3" width="106.6" height="201.4"/>
					<rect x="7.7" y="217.6" class="st3" width="41" height="20.2"/>
				</g>
				<g id="capa2">
					
						<image style="overflow:visible;opacity:0.55;enable-background:new    ;" width="573" height="251" xlink:href="7868C1BD.png"  transform="matrix(1 0 0 1 474 66)">
					</image>
					<path class="st4" d="M1041.5,221.2c-8.9,8-7.7,22.1-5,33.7c2.7,11.6,5.9,24.8-0.6,34.8c-7.5,11.6-23.7,12.8-37.5,12.7
						l-315.8-1.6c-36.5-0.2-73.1-0.4-109.3-4.9c-16.5-2-33.3-5.2-47.5-14s-25-24.4-23.9-41c1.1-15.7,13.3-29.5,28.3-34.6
						s31.9-2,45.5,6.1c14.7,8.7,26,22.9,41.7,29.6c19.2,8.3,43.4,3.1,57.5-12.4s17-40,7-58.4c-6.3-11.5-16.7-20.1-24.9-30.2
						s-14.5-23.7-10.4-36.1c4.6-13.8,21-20.9,35.4-19.2s27.1,10.3,38.3,19.6s21.8,19.7,34.8,26.2c31.6,15.9,69.8,5.7,102.6-7.7
						s66.3-30.3,101.5-26.8c50.3,5,87.1,49.9,82.1,100.2c-0.9,9.3-3.3,18.5-7,27.1"/>
					<path class="st4" d="M1040.4,220.1c-7.4,7-8.1,17.6-6.9,27.1c1.5,11.3,6.4,22.7,4.1,34.2c-2.3,11.4-12.3,16.7-22.9,18.4
						c-12,2-24.7,1-36.8,0.9l-171.4-0.9l-86.2-0.4c-28.5-0.1-57,0-85.6-0.8c-14.2-0.4-28.3-1.1-42.4-2.3
						c-13.2-1.1-26.6-2.5-39.6-5.5c-11.9-2.8-23.8-7.3-33.1-15.4c-8.4-7.4-15-17.6-16.1-28.9c-1-10.9,3.6-21.4,11.4-29
						c8.4-8,19.6-12.4,31.1-12.1c12.3,0.1,24.1,4.6,34.1,11.6c9.5,6.7,17.7,15.1,27.5,21.4c17.6,11.6,40.3,11.9,58.2,0.8
						c17.6-11.1,26.1-32.4,22.9-52.7c-1.7-11-7.3-20.3-14.4-28.6c-7.8-9.1-17.1-17.2-22.8-28c-5.4-10.3-7.1-23.2,1.1-32.5
						c6.7-7.6,17.3-11,27.2-10.4c25.1,1.5,42.8,23.8,61.5,37.7c9.4,7.2,20.3,12.1,31.9,14.6c11.5,2.3,23.3,2.1,34.9,0.5
						c25.2-3.6,48.4-14.1,71.7-23.7c23.9-9.9,49.2-19.4,75.5-17.9c22.5,1.5,43.7,11.2,59.5,27.3c25,26.1,32.2,64.6,18.2,98
						c-0.7,1.8,1.8,3.3,2.6,1.5c9.3-22.1,9.9-46.9,1.7-69.5c-7.9-21.1-23.3-38.7-43.2-49.3c-21.3-11.5-45.3-13.5-68.8-8.6
						c-26.2,5.4-50.1,17.8-75,27.4c-23.4,9-49.4,16.3-74.6,11.7c-12.6-2.3-23.9-7.8-34.1-15.5s-19.1-16.7-29.4-24
						c-9.5-6.8-20.6-12.6-32.5-13.3c-9.5-0.6-19.6,2.4-26.8,8.8c-8,7-10.6,17.5-8.3,27.7c2.7,11.7,10.4,21.1,18.4,29.7
						c8.2,8.9,17,17.7,20.8,29.5c3.4,10.7,3.2,22.1-0.5,32.7c-7.5,21.6-30,34.4-52.5,31.8c-24.7-2.9-38.6-26-60-35.9
						c-20.5-9.5-46.3-7.6-61.4,10.6c-6.6,8-10.1,18.2-9,28.5c1.2,10.7,6.9,20.5,14.5,28c18.2,17.9,45.7,20.9,69.8,23.4
						c28.9,2.9,58,3.3,87,3.5c29.4,0.2,58.8,0.3,88.2,0.5l176.8,0.9l44.2,0.2c11.8,0.1,24.1,1,35.8-1.3c9.6-1.9,18.6-6.8,22.3-16.2
						c4.3-11,0.4-23-1.9-34c-2.1-10-3-22.4,5.1-30c1.4-1.3-0.7-3.4-2.1-2.1L1040.4,220.1z"/>
					<rect x="1001.7" y="165.8" class="st5" width="39.9" height="138.2"/>
				</g>
				<g id="capa1">
					
						<image style="overflow:visible;opacity:0.6;enable-background:new    ;" width="417" height="290" xlink:href="7868C1BE.png"  transform="matrix(1 0 0 1 633 5)">
					</image>
					<path class="st6" d="M1040.7,15.8c-11-3.4-23,3-30.1,12.1s-10.5,20.4-14.8,31s-9.9,21.5-19.6,27.7c-10.1,6.2-22.8,6.3-33.1,0.4
						c-16.4-9.8-20.6-31.6-33-46.2c-17.4-20.3-47.2-23-73.8-24.2c-19.8-0.9-40-1.8-59.1,3.2S739.6,36.9,732,55.2
						c-8.6,20.6-2.7,46.3-15.7,64.4c-9.8,13.7-27.7,19-40.2,30.3c-17.9,16.1-22.6,44.8-10.9,65.8s38.8,31.9,61.9,25
						c33.9-10.2,54-52.2,89.3-54.1c18.2-1,35.1,9.5,48.2,22s23.9,27.5,38,39.1c25.3,20.8,60.7,28.7,92.5,20.5
						c13.9-3.5,27.7-10.5,35.6-22.4c8.7-13.1,9.2-29.9,9.3-45.6l1.7-183.9"/>
					<path class="st6" d="M1041.1,14.3c-9.5-2.8-19.3,1-26.6,7.2c-8.2,7-12.6,17.2-16.4,27.1s-7.1,20-13.7,28.4
						s-16.1,13.4-26.8,12.8c-10-0.5-18.3-6-24.3-13.8c-5.6-7.3-9.3-15.9-13.8-23.9s-10-15.2-17.5-20.7s-16.5-9.2-25.6-11.4
						c-9.4-2.2-19.1-3.7-28.7-4.2c-11.2-0.8-22.5-1.4-33.8-1.4c-21.9-0.1-44.6,2.9-62.9,15.8c-7.9,5.4-14.4,12.6-18.8,21.1
						c-4.5,8.9-6,18.8-7,28.6c-1.1,10-1.7,20.3-5.3,29.9S709.3,126,701,131.5c-8.1,5.4-17,9.8-24.5,16.1
						c-6.9,5.9-12.2,13.4-15.4,21.8c-6.5,16.8-4.9,36.9,5.8,51.7c10.5,14.5,28.4,23.3,46.3,23.1c17.6-0.1,32.5-9.8,45.6-20.8
						c12.8-10.8,24.7-23.6,40-30.8c7.9-3.8,16.6-5.3,25.3-4.4c10.7,1.3,20.7,6.4,29.3,12.7c18.4,13.5,30.8,33.5,48.4,47.9
						c16,12.9,35.4,21,55.9,23.3c19.8,2.3,41.8-0.6,59-11.2c8.6-5.1,15.4-12.8,19.4-22c4.2-9.8,5.1-20.7,5.4-31.3
						c0.7-25.4,0.5-50.8,0.7-76.2l0.7-77.7l0.3-37.5c0-0.8-0.7-1.5-1.5-1.5s-1.5,0.7-1.5,1.5l-0.7,76.2l-0.7,76.2
						c-0.1,12.4-0.1,24.8-0.4,37.1c-0.2,10.6-0.9,21.5-4.9,31.4c-7.9,19.6-28.9,28.5-48.5,31.5c-20.4,3-41.2-0.1-59.9-8.8
						c-9.4-4.4-18.1-10.1-25.7-17.1c-8.4-7.6-15.7-16.3-23.3-24.6c-14-15.3-30.8-30.7-52.3-33c-17.1-1.9-32.1,6.5-45,16.9
						c-13.1,10.6-24.7,23.2-39.5,31.6c-15.3,9.3-34.3,10-50.3,2c-16.6-8.1-27.7-23.9-28.7-42.4c-0.5-9,1.2-18,5-26.2
						c3.9-8.4,10-15.6,17.7-20.8c7.9-5.5,16.6-9.8,24.3-15.6c7.5-5.5,13.1-13.3,16.1-22.1c6.3-18.7,2.4-40,12.3-57.6
						c9.8-17.5,29-27.4,48-31.2c11.9-2.4,24.2-2.7,36.3-2.4c10.7,0.3,21.5,0.7,32.2,1.7c18.4,1.7,38.4,5.4,52.5,18.4
						C918.2,49.9,922,69,934.6,82.1c12.7,13.6,34,14.4,47.7,1.7c1-0.9,1.9-1.9,2.8-2.9c6.6-7.6,10.5-17,14-26.3
						c3.8-9.9,7.5-20.6,15-28.4c6.7-6.9,16.6-11.7,26.2-8.9C1042.1,17.8,1042.9,14.9,1041.1,14.3L1041.1,14.3z"/>
					
						<image style="overflow:visible;opacity:0.75;enable-background:new    ;" width="83" height="77" xlink:href="7868C1BC.png"  transform="matrix(1 0 0 1 752 227)">
					</image>
					<ellipse class="st6" cx="801.8" cy="258.5" rx="25.3" ry="22.4"/>
					<ellipse class="st7" cx="801.8" cy="258.5" rx="25.3" ry="22.4"/>
				</g>
				<g id="capa0">
					
						<image style="overflow:visible;opacity:0.59;enable-background:new    ;" width="71" height="99" xlink:href="7868C1BB.png"  transform="matrix(1 0 0 1 0 193)">
					</image>
					<path class="st8" d="M9,235.9l0.2-34.1c0.5,0,1,0,1.5,0.1c21.8,1.1,39,17.3,38,36c-0.9,18.3-18.9,32.7-40.3,32.1L9,235.9z"/>
					
						<image style="overflow:visible;opacity:0.6;enable-background:new    ;" width="66" height="66" xlink:href="7868C1B5.png"  transform="matrix(1 0 0 1 633 22)">
					</image>
					<circle class="st8" cx="658.8" cy="48.3" r="17.5"/>
				</g>
			</g>
		</g>
	</g>
</g>
<g id="Capa0">
</g>
</svg>
