<?xml version="1.0" encoding="utf-8"?>
<!-- Generator: Adobe Illustrator 24.1.1, SVG Export Plug-In . SVG Version: 6.00 Build 0)  -->
<svg version="1.1" id="Capa_1" xmlns="http://www.w3.org/2000/svg" xmlns:xlink="http://www.w3.org/1999/xlink" x="0px" y="0px"
	 viewBox="0 0 1093.5 373" style="enable-background:new 0 0 1093.5 373;" xml:space="preserve">
<style type="text/css">
	.st0{fill:#00B9FA;}
	.st1{fill:#0085FC;}
	.st2{fill:#0085FC;stroke:#0085FC;stroke-miterlimit:10;}
	.st3{fill:#009DFB;}
	.st4{fill:#009DFB;stroke:#009DFB;stroke-miterlimit:10;}
	.st5{fill:#00CCFD;}
	.st6{fill:none;stroke:#00CCFD;stroke-miterlimit:10;}
</style>
<g>
	<g id="Capa_2_1_">
		<g id="azul">
			<g id="Capa4">
				<ellipse class="st0" cx="553.5" cy="233.1" rx="111.5" ry="91.2"/>
				<rect x="396.7" y="225" class="st0" width="156.8" height="98.7"/>
			</g>
			<g id="capa3">
				
					<image style="overflow:visible;opacity:0.59;enable-background:new    ;" width="964" height="325" xlink:href="92B0EF98.png"  transform="matrix(1 0 0 1 11 10.52)">
				</image>
				<path class="st1" d="M705.2,319.2c3.5-41.5-3.7-85.2-28.6-119.3s-69.7-56.5-112.4-48.5c-23.3,4.3-43.8,16.8-64.4,28
					c-67.8,36.8-141.3,62.1-217.4,75c-22,3.7-44.9,6.4-66.4,0.6c-30.1-8.1-52.7-31.2-73.8-53.4L35.8,89.4
					c-7.3-7.7-15.1-16.6-14.5-27c1.1-18.5,25.5-25.3,44.7-27.2c34.9-3.5,75.4-5.1,99,19.8c11.8,12.4,16.8,29.3,24.8,44.2
					c7.9,15,21.5,29.6,39,30.1c17.6,0.5,31.9-13.4,41-27.8s15.6-30.9,28.8-42c19-16,46.7-17,72-17.2l335.5-2
					c64.2-0.4,134.3,1.1,183.7,40.4c34.9,27.8,53.5,70.8,59.3,113.9s0.2,86.7-6.1,129.7l-231.5-15.6"/>
				<path class="st1" d="M706.7,319.2c2.7-32.7-1-66.4-14.9-96.3c-12.9-27.8-34.8-50.8-62.7-63.7c-13.4-6.3-27.8-10-42.6-10.8
					c-16.5-0.8-32.5,2.9-47.7,9.3c-16.1,6.7-31,15.8-46.4,24c-16.3,8.7-33,16.7-50,24c-34.2,14.7-69.6,26.7-105.7,35.8
					c-17.8,4.5-35.7,8.3-53.8,11.4c-19.4,3.3-39.4,5.9-58.9,2.4c-34.1-6.2-59-31.9-81.8-56l-83-87.5l-20.9-22
					c-6-6.3-12.9-13.1-14.8-21.9c-3.6-16,12.5-24.4,25.2-28c14.1-3.9,29.5-4.6,44.1-5c15.2-0.4,30.7,0.4,45.2,5.1
					c15.4,4.9,28.3,15.5,36.1,29.7c7.8,13.8,12.4,29.3,22.1,41.9c8.3,10.7,20.2,19.6,34.3,19.4c14.8-0.2,27.2-10.2,35.8-21.4
					c9.6-12.3,15.1-27.2,24.7-39.6c10.5-13.5,25.4-20.5,41.9-23.5c17.4-3.2,35.2-2.6,52.8-2.7l61.2-0.4l242.8-1.5
					c64.2-0.4,137.4-3.7,192.6,34.9c27.3,19.1,46.1,47.8,56.6,79.1c11.8,35,13,72.4,10.1,108.9c-1.6,19.8-4.3,39.4-7.1,59l1.5-1.1
					l-231.5-15.6c-1.9-0.1-1.9,2.9,0,3L943,325.9c0.7,0,1.3-0.5,1.4-1.1c10.3-70.6,18.4-148.5-23-211.3
					C904,87.1,879,67.8,849.7,56.4c-30.5-11.9-63.7-15.7-96.2-17c-37.3-1.5-74.8-0.4-112.2-0.2L517,40l-124.2,0.8
					c-31,0.2-69.8-3.8-95.3,17.7c-12.2,10.2-18.8,25.1-26.7,38.5c-8.3,14.1-20.9,29.3-38.4,30.7c-17.3,1.4-31-11.9-39.2-25.8
					c-8.4-14-12.8-30.1-22.8-43.2c-18.5-24.1-50.8-27.9-79.1-26.9c-14.2,0.5-29,1.2-42.8,5c-10.5,2.8-22.8,8.1-27.1,19
					c-5.7,14.7,6.7,27.5,16,37.2l43.1,45.4l41.8,44.1c12.7,13.4,25,27,38.4,39.7c11.7,11.1,24.6,21.4,39.3,28.3
					c16,7.5,33.3,9.8,50.8,9c18.6-0.9,37.1-4.5,55.3-8.2s36.3-8.2,54.1-13.3c35.8-10.3,70.7-23.5,104.3-39.3
					c16.9-7.9,33.2-16.8,49.6-25.7c16.4-8.9,33.3-17.4,51.8-20.5c32.2-5.5,65.7,6.6,90.2,27.5c26.1,22.4,40.8,54.8,46.1,88.3
					c2.5,16.8,3,33.8,1.5,50.8C703.6,321.2,706.6,321.1,706.7,319.2L706.7,319.2z"/>
				<rect x="704.2" y="294.9" class="st2" width="238.1" height="29.5"/>
				<rect x="367.1" y="33.2" class="st2" width="690.6" height="87.2"/>
				<rect x="23.7" y="33.2" class="st2" width="97.1" height="43.6"/>
				<rect x="704.2" y="289.8" class="st2" width="352.7" height="34.5"/>
				<path class="st1" d="M312.9,54.4h2.4"/>
				<path class="st1" d="M312.9,55.9h2.4c0.8,0,1.5-0.7,1.5-1.5s-0.7-1.5-1.5-1.5h-2.4c-0.4,0-0.8,0.2-1.1,0.4
					c-0.3,0.3-0.4,0.7-0.4,1.1c0,0.4,0.2,0.8,0.4,1.1C312.1,55.8,312.5,55.9,312.9,55.9z"/>
				<path class="st1" d="M265.1,114.3c16.3-37,50.9-66.6,91.7-78.3c7.1-2,14.5-3.6,21.8-2.5s14.5,5.3,17,11.8
					c4.2,10.6-4.8,21.6-13.7,29.4c-23.9,20.8-51.1,37.5-80.5,49.4c-6.1,2.5-12.5,4.8-19.2,4.8s-13.7-3-16.6-8.6
					c-3.2-6.2,0.1-14.6,6.9-17.4"/>
				<path class="st1" d="M266.4,115.1c8.7-19.4,21.9-36.6,38.5-50c8.4-6.9,17.4-12.8,27.1-17.7c10.2-5.3,21-9.2,32.1-11.6
					c6.1-1.3,12.6-1.7,18.6,0.3c4.8,1.6,9.6,4.8,11.6,9.7c2.2,5.3,0.5,11-2.4,15.7c-3.2,5.2-7.6,9.4-12.2,13.4
					c-18.9,16.2-39.9,29.9-62.4,40.7c-5.7,2.8-11.5,5.3-17.4,7.7s-12.2,4.5-18.6,4.2c-4.9-0.3-10.4-2.2-13.4-6.4
					c-2.6-3.8-2.5-8.9,0.3-12.7c1.3-1.9,3.1-3.3,5.2-4.2c0.7-0.4,0.9-1.3,0.5-2c-0.4-0.7-1.3-0.9-2.1-0.5c-4.7,2.1-8,6.4-8.7,11.5
					c-0.7,5.1,1.6,10.2,5.8,13.1c10.9,8.1,25.1,2.7,36.2-2c24.4-10.3,47.2-23.8,67.9-40.3c5.1-3.9,10-8.1,14.6-12.6
					c4.3-4.4,8.4-9.6,10-15.7c1.5-5.5,0.3-11.3-3.4-15.7c-3.5-4.3-9-6.9-14.4-7.8c-7-1.3-14.1-0.1-20.9,1.7
					c-5.8,1.5-11.5,3.4-17,5.7c-10.7,4.3-20.8,9.8-30.2,16.5c-18.4,13-34,30.2-44.4,50.2c-1.2,2.4-2.4,4.8-3.5,7.3
					C263,115.3,265.6,116.9,266.4,115.1L266.4,115.1z"/>
			</g>
			<g id="capa2">
				
					<image style="overflow:visible;opacity:0.58;enable-background:new    ;" width="496" height="294" xlink:href="92B0EF99.png"  transform="matrix(1 0 0 1 -7.629395e-06 35.52)">
				</image>
				<path class="st3" d="M23.1,63.7c55.3,4,106.3,40.5,124.9,89.3c4,10.5,6.9,21.9,15,30.1c8.9,8.9,22.7,12.2,35.8,12.2
					s25.9-2.7,38.9-4c37.7-3.7,76.7,5.5,107.9,25.6c13.9,9,27.9,20.5,44.8,20.2s31.7-12.6,48.5-11.6c11,0.7,20.9,7.3,27.5,15.6
					s10.6,18.1,14.5,27.7c3.5,8.8,6.9,19,1.7,27c-5.6,8.8-18.4,10.3-29.4,10.3c-66.7,0.1-135.8-18.2-198.7,2.6
					c-21.6,7.1-43.5,19-66,14.7c-21.3-4-37.5-21.9-59-24.6c-15.5-2-30.7,4.1-45.6,8.5s-32.6,6.5-45.1-2.2
					c-14.3-10-15.6-29.2-15.6-45.8c0-17.3,0-34.5-0.1-51.8L22.7,65"/>
				<path class="st3" d="M23.1,65.2c36.9,2.9,71.3,19.4,96.8,46.3c12.3,13,21.8,28.5,27.9,45.4c3.2,9,6.2,18.4,12.6,25.6
					c6.2,7.1,15.1,11.1,24.2,12.9c21.8,4.4,43.9-2.9,65.8-3.4c21.2-0.5,42.2,3,62.1,10.2c9.9,3.6,19.4,8.1,28.4,13.5
					c8.6,5.2,16.6,11.4,25.5,16.2c8.5,4.5,17.9,7.5,27.6,6.4s18.5-5.4,27.6-8.5c9.8-3.3,19.8-4.2,29.4,0.5
					c9.4,4.7,16.1,12.8,20.9,21.9c2.5,4.9,4.8,9.9,6.8,15c1.9,4.8,3.9,9.8,4.7,14.9s0.1,10.5-3.4,14.5c-2.8,3.2-6.8,5.1-10.9,6.2
					c-9.5,2.6-19.9,1.8-29.6,1.5c-11.4-0.4-22.8-1.1-34.2-2c-22.8-1.8-45.5-4.2-68.3-4.9c-22.1-0.7-44.4,0.3-66.1,5.1
					c-10.9,2.4-21.4,6.1-31.8,10.1s-20.8,7.9-31.7,9.5c-10.4,1.6-21.1,0.2-30.8-4c-8.6-3.7-16.5-8.9-24.8-13.2s-17.4-7.8-27-8
					c-11.2-0.4-22.2,3-32.8,6.3c-17.7,5.5-41.8,12.5-56.7-2.9c-6-6.2-8.7-14.9-9.9-23.3c-1.4-9.8-1-19.7-1-29.6
					c-0.1-48.9-0.1-97.7-0.2-146.6V65.1c0-0.8-0.7-1.5-1.5-1.5s-1.5,0.7-1.5,1.5l0.2,150.6l0,37.3c0,9.4-0.1,18.8,1.6,28.1
					c1.5,8.2,4.8,16.4,11,22.3c6.8,6.4,16,9.1,25.2,9.3c22.3,0.4,42.1-12.8,64.3-12.7c20.3,0.2,35.8,14.6,53.8,21.8
					c9.5,3.8,19.9,5,30,3.5c11.1-1.5,21.7-5.5,32.1-9.4c10.7-4,21.4-7.8,32.6-10.3c11.3-2.4,22.7-4,34.2-4.6
					c46.5-2.8,92.7,5.9,139.1,6.7c9.3,0.2,19.3,0.5,28-3c8.4-3.4,13.6-10.6,13.1-19.8c-0.3-5.2-2-10.2-3.8-15s-3.8-9.6-6-14.3
					c-4.4-9.3-10.1-18-18.5-24.1c-7.7-5.8-17.5-8.3-27-7c-9.9,1.4-18.9,6.1-28.5,9c-9.9,3.2-20.7,2.6-30.2-1.7
					c-9.4-4.2-17.6-10.5-26.3-16c-17.9-11.4-37.9-19.4-58.8-23.4c-10.5-2.1-21.1-3.2-31.8-3.3c-11.3-0.1-22.4,1.2-33.5,2.8
					c-20,2.8-46.1,5.4-60.5-12.2c-6.6-8-9-18.4-12.7-27.8c-3.2-8.1-7.2-15.9-11.9-23.2C117.1,98,85,76,49.9,66.7
					c-8.8-2.3-17.7-3.8-26.8-4.5C21.2,62.1,21.2,65.1,23.1,65.2z"/>
				<rect x="22.9" y="248.9" class="st4" width="438.5" height="75.4"/>
				<rect x="442" y="281.3" class="st4" width="43.1" height="43.1"/>
				<path class="st3" d="M485.1,281.9c6.5,9,11,19.3,13.3,30.1c0.7,3.3,1.1,7-0.9,9.8s-7.2,2.7-8-0.5"/>
				<path class="st3" d="M483.8,282.6c5.4,7.5,9.5,15.9,12,24.9c0.6,2.1,1.1,4.3,1.5,6.4c0.5,2,0.3,4.1-0.4,6.1
					c-0.6,1.3-1.8,2.1-3.2,2.2c-1.1,0.2-2.2-0.4-2.6-1.4c-0.2-0.8-1.1-1.2-1.9-1c-0.8,0.2-1.2,1-1,1.8c0.8,3,3.9,4,6.7,3.5
					c3.4-0.7,5.2-3.7,5.6-7c0.5-4-0.9-8.3-2-12.1c-1.2-4.1-2.7-8.1-4.5-12c-2.1-4.5-4.6-8.8-7.5-12.8
					C485.3,279.5,482.7,281,483.8,282.6L483.8,282.6z"/>
				<rect x="466.1" y="289.8" class="st4" width="25.9" height="34.5"/>
			</g>
			<g id="capa1">
				
					<image style="overflow:visible;opacity:0.49;enable-background:new    ;" width="82" height="333" xlink:href="92B0EF9F.png"  transform="matrix(1 0 0 1 990.49 12.01)">
				</image>
				<rect x="1028.3" y="43.8" class="st5" width="29.3" height="280.5"/>
				<rect x="1028.3" y="43.8" class="st6" width="29.3" height="280.5"/>
				
					<image style="overflow:visible;opacity:0.49;enable-background:new    ;" width="838" height="373" xlink:href="92B0EF9A.png"  transform="matrix(1 0 0 1 255.49 -1.99)">
				</image>
				
					<image style="overflow:visible;opacity:0.59;enable-background:new    ;" width="792" height="325" xlink:href="92B0EF9B.png"  transform="matrix(1 0 0 1 290 27.52)">
				</image>
				<path class="st5" d="M1057.7,322.5c-26.8,2.9-53.9,2.4-80.6-1.5c-50.6-7.4-99.3-26.9-150.5-27.8c-36.9-0.7-73.2,8.4-109.9,11.7
					s-76.6,0.2-105.7-21.4c-30.7-22.9-47.7-64.7-85.6-73.3c-30.6-6.9-60.3,11.4-89.1,23.6c-21.4,9-44.8,14.9-68.1,12.8
					s-46.4-13.1-58.9-31.9s-12.1-45.6,3.9-61.9c22.4-22.8,66.9-20.7,82-48.3c7.7-14.1,5-32.4,15.2-45c10-12.4,28.5-14.5,44.9-15.6
					l150-10c21.2-1.4,45.8-1.5,59.2,14.2c8.5,9.9,9.8,23.6,12.4,36.2s8.2,26.4,20.7,31.4c15.3,6.1,32.7-4.5,42.4-17.4
					s15.4-28.5,27.2-39.7c20.7-19.6,53.3-20.1,82.5-19.5l204.2,4.9l3.5,279.2"/>
				<path class="st5" d="M1057.7,321c-33,3.4-66.3,1.8-98.8-4.7c-31.3-6.2-61.8-15.5-93.3-20.8c-15.5-2.7-31.2-4-47-3.9
					c-15.9,0.3-31.8,2.2-47.5,4.4c-30.7,4.4-61.5,10.1-92.6,8c-27.7-1.8-54.7-10-75.4-29.1c-17-15.7-29.6-35.8-47.5-50.7
					c-8.2-6.8-17.5-12.4-28-15.1c-13.6-3.6-27.8-2-41.2,1.9c-14.4,4.2-27.8,10.9-41.4,17c-14.4,6.5-29.1,12.1-44.6,15
					c-28.3,5.3-60.5,1.1-81.9-19.7c-18.5-18.1-23.6-50.1-4.4-69.7c15.4-15.7,39.1-19,58.3-28.1c8.7-4.1,16.9-9.7,22.3-17.8
					c7.1-10.8,7.1-24,10.9-36c4.4-13.6,15.3-20.7,28.9-23.7c14.5-3.2,29.7-3.2,44.5-4.2l102.5-6.8c14.5-1,29.1-2.6,43.7-2.1
					c12.3,0.4,25.9,2.6,35.4,11.3c19.3,17.7,8.6,50.8,30.1,67.3c9.5,7.3,21.8,6.7,32.1,1.6c11.6-5.8,19.3-16,25.9-27
					c7.2-12.1,13.8-24.9,25.7-33.2c10.9-7.7,24.1-11.2,37.2-12.9s26.5-1.5,39.7-1.2l50.7,1.2l102.1,2.5l49.9,1.2l-1.5-1.5l2.8,218
					l0.8,61.2c0,1.9,3,1.9,3,0l-2.8-218l-0.8-61.2c0-0.8-0.7-1.5-1.5-1.5c-69-1.7-138-3.6-207-5c-24.9-0.5-53.4-0.3-74.5,14.8
					c-22.6,16.3-26.7,50.1-53.8,61.1c-13.4,5.4-26.8,0.6-33.8-11.9c-6.6-11.7-6.9-25.4-10.6-38c-3.5-11.8-10.5-21.4-21.9-26.5
					c-11.2-5-23.9-5.7-35.9-5.4c-16,0.4-32.1,2-48.1,3l-52,3.5l-51.2,3.4c-13.2,0.9-27,1.1-39.5,5.8c-11.2,3.9-19.7,13.1-22.9,24.6
					c-3.7,12.6-3.7,26.5-12.3,37.1c-6.9,8.4-17,13.3-27,17.3c-10.1,4-20.5,7.2-30.4,11.6s-19.1,10.3-25.3,19.3
					c-6.7,9.6-9.3,21.8-8.2,33.3c2.6,25.9,23.1,44.5,46.7,52.6c28.6,9.9,60,4.2,87.5-6.8c27.6-11.1,56.5-30.5,87.7-25.6
					c24.6,3.9,41.4,22.9,56.7,40.9c7.7,9.1,15.4,18.3,24.3,26.3c9.3,8.4,20.1,15.1,31.8,19.6c59.2,23.3,122.3-1.4,182.7-3
					c32.9-0.9,65,6.4,96.7,14.2c31.5,7.7,63,15.1,95.5,16.6c16.3,0.7,32.7,0.3,49-1.5C1059.6,323.8,1059.6,320.8,1057.7,321
					L1057.7,321z"/>
				
					<image style="overflow:visible;opacity:0.49;enable-background:new    ;" width="94" height="94" xlink:href="92B0EF96.png"  transform="matrix(1 0 0 1 104.49 2.01)">
				</image>
				<circle class="st5" cx="162.6" cy="55" r="20.6"/>
				<circle class="st6" cx="162.6" cy="55" r="20.6"/>
				
					<image style="overflow:visible;opacity:0.49;enable-background:new    ;" width="99" height="98" xlink:href="92B0EF97.png"  transform="matrix(1 0 0 1 353.49 237.01)">
				</image>
				<circle class="st5" cx="414.2" cy="291.8" r="22.8"/>
				<circle class="st6" cx="414.2" cy="291.8" r="22.8"/>
				
					<image style="overflow:visible;opacity:0.49;enable-background:new    ;" width="86" height="86" xlink:href="92B0EFA8.png"  transform="matrix(1 0 0 1 666.49 12.01)">
				</image>
				<circle class="st5" cx="720.7" cy="60.3" r="16.5"/>
				<circle class="st6" cx="720.7" cy="60.3" r="16.5"/>
				
					<image style="overflow:visible;opacity:0.49;enable-background:new    ;" width="133" height="94" xlink:href="92B0EFAB.png"  transform="matrix(1 0 0 1 480.49 250.01)">
				</image>
				<path class="st5" d="M558.3,322.2l-40.4,0.6c0-0.2,0-0.4,0-0.6c0-22.3,18.1-40.4,40.4-40.4s40.4,18.1,40.4,40.4H558.3z"/>
				<path class="st6" d="M558.3,322.2l-40.4,0.6c0-0.2,0-0.4,0-0.6c0-22.3,18.1-40.4,40.4-40.4s40.4,18.1,40.4,40.4H558.3z"/>
			</g>
		</g>
	</g>
</g>
</svg>
