<svg xmlns="http://www.w3.org/2000/svg" xmlns:xlink="http://www.w3.org/1999/xlink" viewBox="0 0 949 605.64"><defs><style>.cls-1,.cls-6,.cls-8{fill:none;}.cls-2{fill:#a8accd;}.cls-3{fill:#bbbbef;}.cls-4{clip-path:url(#clip-path);}.cls-5{fill:#fff;}.cls-6,.cls-8{stroke:#000;stroke-miterlimit:10;}.cls-6{stroke-width:0.94px;}.cls-7{fill:#4e4b4e;}.cls-8{stroke-width:0.31px;}.cls-9{fill:#f96;}.cls-10{fill:#36323a;}.cls-11{fill:#fabe78;}.cls-12{fill:#fab371;}.cls-13{fill:#1a1a1a;}.cls-14{fill:#ff8666;}.cls-15{fill:#faac71;}</style><clipPath id="clip-path"><rect class="cls-1" x="560" y="141" width="389.27" height="331.82"/></clipPath></defs><g id="Capa_2" data-name="Capa 2"><g id="quien_soy2" data-name="quien soy2"><path class="cls-2" d="M6,143.21c28.15,29.26,70.94,32.34,107.55,20.89s69.21-35.17,103.05-54.89,71.26-36,108.9-30.57c72.1,10.34,121.84,95.08,193.16,111,46,10.23,93.36-10.41,132.58-39.88S724.15,82,762.47,51,846.27-4.17,892.92.6c18.78,1.92,39.18,10.45,47.26,30.05,4.18,10.13,4.43,21.74,4.6,33l3.73,243.23c.57,37.07,1,75-9.13,110.14-9.74,33.72-28.79,63-50.85,87.88C840.94,558.47,777.83,593.5,711.74,603S577,596.35,519.43,557.83c-45.38-30.36-83.95-74.05-132.13-98-64.79-32.23-143.74-23.44-202,22.49-24.45,19.29-45.4,44.56-71.76,60.16S52,561.54,30.27,538.29C9.75,516.3,8.82,479.9,9.34,447.64Q11.77,295,14.21,142.29"/><path class="cls-3" d="M0,178.12c28.33,24.55,71.41,27.13,108.26,17.53S177.93,166.15,212,149.6,283.73,119.43,321.62,124c72.57,8.67,122.64,79.76,194.44,93.07,46.29,8.59,94-8.73,133.45-33.45s73.39-56.8,112-82.8S845.83,54.5,892.8,58.51c18.9,1.61,39.43,8.76,47.57,25.2,4.21,8.49,4.46,18.23,4.63,27.64l3.75,204c.57,31.08,1,62.87-9.19,92.38-9.8,28.28-29,52.86-51.18,73.71-47.9,45-111.44,74.36-178,82.31s-135.64-5.57-193.59-37.88c-45.68-25.46-84.5-62.11-133-82.21-65.23-27-144.69-19.66-203.31,18.87-24.6,16.17-45.7,37.37-72.23,50.46s-62,16-83.86-3.5c-20.65-18.44-21.59-49-21.07-76q2.44-128.05,4.9-256.12"/><g id="flat-ricar"><g class="cls-4"><g class="cls-4"><path class="cls-5" d="M880.19,326.76c0,79.32-60.34,143.61-134.78,143.61S610.63,406.08,610.63,326.76,671,183.15,745.41,183.15s134.78,64.3,134.78,143.61"/><ellipse class="cls-6" cx="745.41" cy="326.76" rx="134.78" ry="143.61"/><path class="cls-7" d="M750.43,427.86h-6.49c-13,0-23.45-11.19-23.45-25V388.57c0-13.8,10.5-25,23.45-25h6.49c13,0,23.44,11.18,23.44,25v14.31c0,13.79-10.49,25-23.44,25"/><path class="cls-8" d="M750.43,427.86h-6.49c-13,0-23.45-11.19-23.45-25V388.57c0-13.8,10.5-25,23.45-25h6.49c13,0,23.44,11.18,23.44,25v14.31C773.87,416.67,763.38,427.86,750.43,427.86Z"/><path class="cls-9" d="M749.8,423.81h-5.23c-13.3,0-24.08-11.49-24.08-25.66V378.57c0-14.16,10.78-25.65,24.08-25.65h5.23c13.29,0,24.07,11.49,24.07,25.65v19.58c0,14.17-10.78,25.66-24.07,25.66"/><path class="cls-9" d="M802.84,309.72H688.49a3.78,3.78,0,0,1-3.65-3.89v-7.35a3.78,3.78,0,0,1,3.65-3.89H802.84a3.79,3.79,0,0,1,3.65,3.89v7.35a3.79,3.79,0,0,1-3.65,3.89"/><path class="cls-10" d="M777.85,332.4H713c-12.6,0-22.81-10.88-22.81-24.3v-67c0-13.42,10.21-24.3,22.81-24.3h64.88c12.6,0,22.81,10.88,22.81,24.3v67c0,13.42-10.21,24.3-22.81,24.3"/><path class="cls-11" d="M774.55,367.77H715.76c-12.74,0-23.06-11-23.06-24.57V251.12c0-13.57,10.32-24.57,23.06-24.57h58.79c12.74,0,23.07,11,23.07,24.57V343.2c0,13.57-10.33,24.57-23.07,24.57"/><path class="cls-12" d="M745.41,337.24h52.46c0,27.19-23.68,49.57-52.46,49.57S693,364.43,693,337.24Z"/><path class="cls-11" d="M745.16,329.7h52.46c0,25.48-23.68,46.44-52.46,46.44s-52.46-21-52.46-46.44Z"/><path class="cls-5" d="M745.66,342.26h28.51c0,11.7-12.87,21.33-28.51,21.33s-28.51-9.63-28.51-21.33Z"/><path class="cls-13" d="M723.93,287.68a3.65,3.65,0,1,1-3.64-3.89,3.77,3.77,0,0,1,3.64,3.89"/><path class="cls-13" d="M777.82,287.68a3.65,3.65,0,1,1-3.65-3.89,3.77,3.77,0,0,1,3.65,3.89"/><path class="cls-14" d="M760.25,312a6.68,6.68,0,1,1-6.68-6.8,6.74,6.74,0,0,1,6.68,6.8"/><path class="cls-14" d="M747,312a6.68,6.68,0,1,1-6.68-6.8A6.74,6.74,0,0,1,747,312"/><path class="cls-9" d="M753.57,305.15c0,7.51-3,13.6-6.59,13.6s-6.59-6.09-6.59-13.6,3-13.59,6.59-13.59,6.59,6.08,6.59,13.59"/><path class="cls-9" d="M751.49,317.34a4.31,4.31,0,1,1-4.31-4.59,4.46,4.46,0,0,1,4.31,4.59"/><path class="cls-15" d="M785.68,282.28h-23a3.9,3.9,0,0,1,0-7.78h23a3.9,3.9,0,0,1,0,7.78"/><path class="cls-13" d="M785.17,278.39h-23a3.89,3.89,0,0,1,0-7.77h23a3.89,3.89,0,0,1,0,7.77"/><path class="cls-15" d="M728.15,282.28h-23a3.9,3.9,0,0,1,0-7.78h23a3.9,3.9,0,0,1,0,7.78"/><path class="cls-13" d="M728.15,278.39h-23a3.89,3.89,0,0,1,0-7.77h23a3.89,3.89,0,0,1,0,7.77"/></g></g></g></g></g></svg>