<?xml version="1.0" encoding="utf-8"?>
<!-- Generator: Adobe Illustrator 24.1.1, SVG Export Plug-In . SVG Version: 6.00 Build 0)  -->
<svg version="1.1" id="Capa_1" xmlns="http://www.w3.org/2000/svg" xmlns:xlink="http://www.w3.org/1999/xlink" x="0px" y="0px"
	 viewBox="0 0 946.7 200.5" style="enable-background:new 0 0 946.7 200.5;" xml:space="preserve">
<style type="text/css">
	.st0{opacity:0.54;}
	.st1{fill:url(#SVGID_1_);}
	.st2{fill:url(#SVGID_2_);}
</style>
<g id="Capa_2_1_">
	<g id="contacto">
		<g class="st0">
			
				<linearGradient id="SVGID_1_" gradientUnits="userSpaceOnUse" x1="880.3867" y1="233.1609" x2="115.7039" y2="233.1609" gradientTransform="matrix(1 0 0 -1 0 335.5089)">
				<stop  offset="0.13" style="stop-color:#9FE6E4"/>
				<stop  offset="0.21" style="stop-color:#8AE6E4"/>
				<stop  offset="0.33" style="stop-color:#73E6E4"/>
				<stop  offset="0.4" style="stop-color:#6AE6E4"/>
				<stop  offset="0.48" style="stop-color:#65DFE6"/>
				<stop  offset="0.6" style="stop-color:#57CBEB"/>
				<stop  offset="0.73" style="stop-color:#41ABF4"/>
				<stop  offset="0.74" style="stop-color:#3FA9F5"/>
			</linearGradient>
			<path class="st1" d="M1.9,83.6c-6.3-19.7-12-41.6,6.8-58.5c17.8-16,52.9-23,86.1-24.6c44.1-2.2,88.3,3,127.9,14.8
				c55.5,16.8,103.5,47.3,166.3,47c52.3-0.3,97.7-22.7,150-24.4c52.6-1.8,99.8,17.6,137.9,38.3s73.9,44.4,122.9,55.4
				c22.4,5,46.5,7.1,69.7,10.9c23.2,3.8,46.4,9.6,61.6,20.3c15.1,10.7,19.6,27.2,5.1,38.1c-102.2,4.5-204.8,4-307.2,3.4l-185.6-1
				l-203.1-1l-200-1c-13-0.1-27.5-0.5-36.7-5.7c-10.3-5.8-10-15.2-9-23.5L6.2,76.9"/>
		</g>
		
			<linearGradient id="SVGID_2_" gradientUnits="userSpaceOnUse" x1="888.1548" y1="212.3362" x2="123.4721" y2="212.3362" gradientTransform="matrix(1 0 0 -1 0 335.5089)">
			<stop  offset="0.13" style="stop-color:#9FE6E4"/>
			<stop  offset="0.21" style="stop-color:#8AE6E4"/>
			<stop  offset="0.33" style="stop-color:#73E6E4"/>
			<stop  offset="0.4" style="stop-color:#6AE6E4"/>
			<stop  offset="0.48" style="stop-color:#65DFE6"/>
			<stop  offset="0.6" style="stop-color:#57CBEB"/>
			<stop  offset="0.73" style="stop-color:#41ABF4"/>
			<stop  offset="0.74" style="stop-color:#3FA9F5"/>
		</linearGradient>
		<path class="st2" d="M9.6,106.3c-6.3-17.8-12-37.4,6.8-52.7c17.8-14.5,52.9-20.7,86.1-22.2c43.9-2,88.9,2.7,127.9,13.3
			c55.5,15.2,103.5,42.7,166.3,42.3c52.3-0.3,97.7-20.4,150-22c52.6-1.6,99.8,15.8,137.9,34.5s73.9,40,122.9,49.9
			c22.4,4.5,46.5,6.4,69.7,9.8c23.2,3.4,46.5,8.7,61.6,18.3c15.1,9.6,19.6,24.5,5.1,34.3c-102.2,4-204.8,3.6-307.2,3.1L451,214.2
			l-203.1-0.9l-200-0.9c-13-0.1-27.5-0.4-36.7-5.1c-10.3-5.2-10-13.7-9-21.1c4-28.6,7.9-57.3,11.8-85.9"/>
	</g>
</g>
</svg>
