<svg xmlns="http://www.w3.org/2000/svg" viewBox="0 0 966.66 963.98"><defs><style>.cls-1,.cls-2{fill:#fff;}.cls-1{stroke:#000;stroke-miterlimit:10;stroke-width:3px;}</style></defs><g id="Capa_2" data-name="Capa 2"><g id="completo"><g id="Capa_4" data-name="Capa 4"><path d="M558.17,952.65c-1.51-31.2-3.25-62.41-4.49-93.62-1.16-29.18-.46-58.34,10.37-85.86,9.85-25,25.62-47.19,37.54-71.2a412.79,412.79,0,0,0,27.83-73.38c14.43-52.2,19.69-107.05,16.49-161.08-3.5-59.29-19.9-116-34.91-173.19-8-30.34-16.32-60.61-23.75-91.08-7.2-29.53-13-59.7-12.35-90.23a208.18,208.18,0,0,1,1.8-23c.77-5.72-8.24-5.66-9,0-8.16,61,12.33,121.89,27.63,180.1,8,30.48,16.22,60.92,24,91.47,7.18,28.33,13.16,56.88,16.05,86A494.26,494.26,0,0,1,624.89,610a415.87,415.87,0,0,1-25.09,74.74c-10.92,24.25-25.73,46.33-37.42,70.16-6,12.21-11,24.94-13.89,38.25-3.16,14.43-4.19,29.27-4.26,44-.15,30.53,2.31,61.16,3.79,91.64l1.15,23.81c.28,5.76,9.29,5.8,9,0Z"/><path d="M549.17,920.26c-11.76-52.43-11.09-109,8.14-159.67,10-26.36,26-49.85,38-75.29A406.93,406.93,0,0,0,621,613.57c13.3-51.54,17.63-105.46,14.1-158.52a534.21,534.21,0,0,0-11.4-79.6c-6.43-29.14-14.92-57.77-22.4-86.65a769.34,769.34,0,0,1-24.82-177.3q-.22-11.31-.13-22.63c0-5.79-9-5.8-9,0a766.92,766.92,0,0,0,19.34,178.25c13,56.49,31.91,111.35,37.84,169.32,5.45,53.19,3,107.45-8.61,159.7a409.32,409.32,0,0,1-23.64,74.09c-11.06,25.54-26.42,48.85-37.91,74.15-22.39,49.3-26.28,105.38-17.75,158.39,1.07,6.67,2.37,13.29,3.85,19.88,1.26,5.65,9.94,3.26,8.67-2.39Z"/><path d="M530.79,944.53l1.7-91.76.85-45.45c.26-14.2,1-28.54-.13-42.71a89.59,89.59,0,0,0-11.62-38.34c-6.55-11.31-13.74-22.08-19.41-33.9a257.49,257.49,0,0,1-22.88-78.32c-7.67-59.52,4.3-119.43,14.73-177.86,10.08-56.47,21.18-113.19,43.11-166.45,10.46-25.4,22.14-50.45,26.63-77.77A192.69,192.69,0,0,0,560,111.6a173.27,173.27,0,0,0-6.16-18.7c-2.09-5.33-10.8-3-8.68,2.39a180.9,180.9,0,0,1,11.67,79.11c-2,28.18-12,54.14-22.93,79.92a594.48,594.48,0,0,0-27.37,78.79c-7.38,27.74-13,55.9-18.2,84.12-10.65,58-23.29,117.39-19.89,176.67a278.46,278.46,0,0,0,16.39,80.41A248.29,248.29,0,0,0,501,709.66c6.46,11.58,15.05,22.32,19.31,35,4.45,13.26,4.58,27.48,4.39,41.33-.19,15-.54,29.93-.82,44.9l-1.69,90.91-.42,22.73c-.11,5.79,8.89,5.79,9,0Z"/><path d="M577,687.5c15.62-27.86,24.23-59,29.5-90.38,5.55-33,7.67-66.4,9.58-99.74,1.07-18.68,2.15-37.4,1.24-56.1s-4.15-37.31-7.6-55.75q-10.45-55.84-21-111.67c-1.58-8.38-2.69-17.12-5.89-25.08-2.78-6.93-7.68-14.05-15.44-15.84s-14.21,3.11-17.38,10c-3.57,7.74-5,16.52-7,24.75L515.84,378.22c-9.05,36.84-18.29,73.64-27.13,110.54-8.57,35.78-15.71,72.8-9.93,109.61,2.74,17.44,8.39,34.26,15.2,50.5,6.33,15.07,13.54,30.32,24.88,42.34,10.43,11,26,19.14,41.45,15.19,13.76-3.51,23.07-16.47,26.17-29.79a43.38,43.38,0,0,0-.2-21.12c-1.5-5.58-10.18-3.21-8.68,2.4a36,36,0,0,1-9.55,34.18c-9.9,9.52-24.19,7-34.67-.11-12.26-8.33-20-22.38-26.24-35.45A245.15,245.15,0,0,1,490.27,610c-8.35-34.22-3.94-69.26,3.52-103.2,3.85-17.49,8.31-34.85,12.58-52.25l13.09-53.29,26-105.83,6.44-26.19c1.07-4.38,2.13-8.76,3.22-13.14a44.38,44.38,0,0,1,3.25-9.82c1.06-2,2.7-4.38,5-4.69s4.73,1.18,6.42,2.82c5.15,5,6.65,13.08,8,19.82,7.1,35.47,13.37,71.13,20,106.68,3.26,17.4,6.87,34.79,9,52.38,2.11,17.87,2.13,35.83,1.35,53.78-1.41,32.67-3.31,65.5-7.42,98-3.81,30.11-9.92,60.54-21.92,88.56A205.91,205.91,0,0,1,569.18,683c-2.83,5.06,4.94,9.6,7.77,4.54Z"/><path d="M555.79,662.93c20.94-14.51,29-41.5,32.75-65.44,4.34-27.9,4.58-56.27,4.48-84.44q-.16-43-.49-86c-.08-14.09,0-28.2-.35-42.29-.31-13.3-.66-27.07-3.66-40.09-2.43-10.59-8.25-22.88-20.26-24.7-12.78-1.93-22.93,7.38-28.69,17.84-6,10.87-8.82,23.32-10.53,35.5-1.79,12.79-2.39,25.68-3.29,38.55-.87,12.45-2,24.82-5.31,36.91-3.36,12.44-9.3,23.89-14,35.84-9.71,24.85-9.35,52.07-9.52,78.36-.15,24.32.71,49.78,9.53,72.75,4.27,11.1,10.24,22.22,19.93,29.5,8.4,6.31,19.81,7.52,28.57,1.15a26.24,26.24,0,0,0,9.44-13,4.5,4.5,0,1,0-8.68-2.39,16.28,16.28,0,0,1-7.27,8.93c-.43.24-.87.45-1.31.67-.79.4-.26.12-.08.05l-.78.28a17.92,17.92,0,0,1-3.21.79c.86-.13-.36,0-.63,0-.48,0-1,0-1.43,0-.21,0-1.8-.16-.83,0-.54-.08-1.08-.19-1.6-.32s-1.18-.33-1.75-.53l-.67-.25c-.73-.28.48.23-.24-.1a27.14,27.14,0,0,1-3.37-1.89,29.17,29.17,0,0,1-5.25-4.57,55.92,55.92,0,0,1-8.89-13.32c-10.13-20.17-12-43.83-12.43-66.25-.2-12.19.05-24.41.42-36.6.39-12.66,1.2-25.4,4.39-37.71,3.13-12.05,8.78-23.17,13.41-34.67a140.5,140.5,0,0,0,8.88-35.72c3-23.73,1.77-48.09,8-71.28a73.11,73.11,0,0,1,5.93-15.63c2.35-4.37,5.27-8.62,9.26-11.31a16,16,0,0,1,6.74-2.77c-.56.1.85-.07,1-.08.58,0,1.15,0,1.73,0,.85,0,.52,0,.27,0,.32,0,.66.12,1,.19a14.33,14.33,0,0,1,1.91.55,13.35,13.35,0,0,1,4.9,3.73c.15.17.29.35.44.53-.39-.48.08.12.13.18.31.45.62.9.91,1.37a32.49,32.49,0,0,1,1.81,3.4,46.68,46.68,0,0,1,2.29,6.89c.66,2.58,1.16,5.21,1.56,7.85.36,2.4.7,5.65,1,8.49.3,3.31.53,6.62.71,9.94.74,13.56.68,27.15.76,40.72l.47,82.45c.16,27.12.56,54.32-1.84,81.36C581,589,579.27,601.68,575.94,614c-3,11.15-7.42,22.08-14.54,31.31a50,50,0,0,1-10.15,9.85,4.62,4.62,0,0,0-1.62,6.16c1.16,2,4.15,3,6.16,1.61Z"/><path d="M536.6,635.13c8.52-.06,16.12-4.91,21.53-11.23,6.23-7.29,10-16.17,12.43-25.4,2.52-9.75,3.54-19.87,4.35-29.89.87-10.71,1.46-21.44,1.84-32.18.76-21.43.65-42.87.06-64.3s-1.67-43.07-2.84-64.58c-.29-5.27-.55-10.54-.87-15.8-.29-4.7-.76-9.56-3-13.81s-6.58-7.24-11.43-6.86c-5.1.4-9.24,3.46-11.94,7.7-5.53,8.7-4.81,19.77-5,29.62,0,2.57-.18,5.12-.46,7.67,0,.18-.11.89,0,0l-.09.59c-.07.52-.16,1-.25,1.57-.19,1.09-.42,2.18-.67,3.27a72.92,72.92,0,0,1-3.85,11.68c.37-.89-.21.45-.3.67l-.63,1.4c-.43.92-.87,1.84-1.32,2.75-.9,1.83-1.85,3.64-2.82,5.43-2,3.66-4.06,7.26-6.12,10.88-4.24,7.47-8.3,15.07-11.18,23.19-3.35,9.44-4.58,19.47-5.13,29.42-.58,10.57-.61,21.18-.84,31.75l-.69,32.3c-.23,10.75-.53,21.51,1.18,32.17,1.45,9.06,4.7,18.22,10.82,25.21,5.53,6.33,14.37,10,22.65,7.19a20.32,20.32,0,0,0,10.3-8,4.52,4.52,0,0,0-1.61-6.16,4.62,4.62,0,0,0-6.16,1.62c-.14.2-.28.41-.43.61.1-.14.56-.66,0,0-.28.31-.56.62-.85.91s-.59.56-.9.83c-.6.54,0,0,.11-.06l-.7.48c-.32.21-.66.41-1,.6s-1.4.87-.41.24a7.9,7.9,0,0,1-2.49.75,2.66,2.66,0,0,1-.63.12s.93-.07.39-.06c-.37,0-.75.07-1.13.08s-.86,0-1.29,0l-.65-.05c-.85,0,.59.18.06,0-.77-.26-1.61-.34-2.39-.6-.17-.06-1.28-.51-.71-.25s0,0-.08-.05c-.3-.15-.6-.29-.9-.46a22.66,22.66,0,0,1-2-1.31c.86.6-.31-.27-.48-.42-.37-.32-.72-.65-1.07-1a26,26,0,0,1-1.86-2.06c-.09-.1-.57-.73-.23-.28s-.07-.1-.11-.15c-.33-.48-.66-1-1-1.43A43.54,43.54,0,0,1,521,614c-.07-.14-.35-.79,0,0l-.24-.57c-.17-.45-.35-.9-.51-1.35-.39-1-.74-2.1-1.06-3.17a63.54,63.54,0,0,1-1.58-6.68c-.1-.55-.19-1.11-.28-1.66,0-.18-.23-1.62-.14-1-.17-1.28-.31-2.56-.42-3.85-.43-5-.49-10.07-.44-15.11.11-10.28.41-20.55.63-30.82s.44-20.61.67-30.91c.11-4.94.24-9.87.59-14.79q.24-3.56.66-7.09l.12-.94c-.09.68,0-.11,0-.2l.24-1.63q.3-1.86.66-3.69a78.21,78.21,0,0,1,3.66-12.65c.17-.42.33-.85.5-1.27.08-.18.68-1.62.3-.72.41-.95.82-1.9,1.26-2.84.81-1.76,1.67-3.49,2.56-5.21C531.79,460.76,536,454,539.72,447s7.22-14.61,9.14-22.5a69,69,0,0,0,1.85-13.57c.21-5.1,0-10.22.37-15.32,0-.57.1-1.14.16-1.71,0-.22.06-.43.08-.65.08-.73-.12.65,0-.08.21-1.13.38-2.25.65-3.36a28.09,28.09,0,0,1,.88-3,5.71,5.71,0,0,1,.21-.58c0-.12.36-.91.15-.41s.13-.27.18-.38c.14-.3.29-.6.45-.89s.45-.8.69-1.18.83-1.16.3-.51a14.67,14.67,0,0,1,1-1.1l.54-.49c.37-.33.25-.15-.07,0,.4-.24.78-.51,1.19-.73.2-.11.41-.2.62-.3-.08,0-.74.2-.29.14s.76-.22,1.12-.31c.92-.24-.24,0-.23,0s.68,0,.8,0,.89,0,.2,0,0,0,.19.06l.46.12c.89.22-.17-.09-.17-.09.25,0,1.38,1,.5.2.36.32.69.65,1,1-.12-.12-.51-.76-.07-.08l.39.6c.21.37.38.75.58,1.13s-.07-.17-.09-.23c.08.24.18.47.26.71.18.55.34,1.11.48,1.67.23,1,.41,1.95.55,2.94-.12-.86,0,.35.05.63.06.61.11,1.22.16,1.83.17,2.34.27,4.68.4,7,1.14,20.59,2.24,41.19,3,61.81s1.1,41.05.75,61.57q-.25,15.38-1.09,30.73c-.55,10-1.18,20-2.44,29.88l-.09.69c-.1.77.09-.59,0,.18-.08.53-.15,1.07-.23,1.6-.18,1.21-.38,2.43-.59,3.64-.41,2.32-.88,4.63-1.43,6.92s-1.17,4.51-1.89,6.71q-.51,1.59-1.11,3.15c-.18.48-.37,1-.56,1.44,0,.11-.33.8-.06.15-.13.33-.28.65-.42,1a50.73,50.73,0,0,1-2.92,5.56c-.48.79-1,1.57-1.51,2.34-.3.43-.61.85-.92,1.28,0,.05-.42.57-.12.16s-.3.38-.37.46a37.47,37.47,0,0,1-4,4.24c-.32.29-.64.57-1,.84s-.38.3-.56.46c.71-.58.21-.17,0-.06-.77.54-1.54,1.08-2.35,1.55s-1.52.8-2.29,1.18c-.46.22.27-.12.29-.13-.21.08-.41.17-.62.24-.42.16-.85.3-1.27.42a21.94,21.94,0,0,1-2.27.52c-.86.16.15,0,.22,0a3.11,3.11,0,0,1-.66.06c-.45,0-.89,0-1.33,0a4.5,4.5,0,0,0,0,9Z"/><path d="M548.45,601.74c8.21-8.82,12.69-20.54,14.95-32.22,2.63-13.61,2.39-27.47,1.36-41.23-1-13.93-2.83-27.82-2.93-41.8,0-3.35,0-6.69.24-10,.09-1.62.22-3.23.38-4.85.07-.76.16-1.53.25-2.29,0,0,.19-1.53.07-.63.06-.46.13-.91.2-1.37a86.62,86.62,0,0,1,2-9.83c.87-3.23,2-6.39,2.66-9.67,1.32-6.47,1-14.36-4.49-18.95a8.86,8.86,0,0,0-10.31-1.19c-2.64,1.51-4.73,4.23-6.63,6.54-7.8,9.45-13.45,20.34-17.67,31.8-9.35,25.4-11.09,53-10.59,79.84.13,7.12.43,14.23.8,21.34.32,6.26.74,12.66,2.42,18.73,1.59,5.8,4.41,11.4,9.5,14.85a15,15,0,0,0,15.29,1.1,13.41,13.41,0,0,0,5.42-5.74,4.58,4.58,0,0,0-1.61-6.16c-2-1.08-5-.62-6.16,1.62-.25.49-.53.94-.82,1.41-.54.87.67-.64-.06,0-.14.13-.27.28-.41.42-.73.7-.17-.06,0,0,0,0-.49.34-.46.32-.24.15-.49.27-.73.4-.72.42.94-.26.07,0a5.58,5.58,0,0,0-1.31.34c.38-.29.95-.07.38,0l-.82,0a5.24,5.24,0,0,1-.56,0c-.87,0-.28-.3.08,0-.24-.23-1.19-.26-1.53-.37l-.69-.23c-.82-.29.27.09.26.11a6.94,6.94,0,0,1-1.32-.71c-.27-.16-.52-.34-.77-.51-.71-.47.13.13.17.14-.39-.08-1.1-1-1.38-1.29a6.09,6.09,0,0,0-.53-.61c-.47-.42.59.88,0,0-.34-.52-.68-1-1-1.56s-.61-1.12-.89-1.7c-.11-.23-.21-.47-.32-.7.42.91-.14-.36-.21-.55a43.52,43.52,0,0,1-2.06-8c-.07-.42-.12-.83-.19-1.24,0-.16-.11-.88,0,0-.09-.69-.17-1.39-.24-2.09-.16-1.54-.28-3.08-.38-4.63-.42-6.43-.67-12.89-.86-19.34a332.58,332.58,0,0,1,.89-39.68,177,177,0,0,1,2.52-18.41A159.23,159.23,0,0,1,534.7,476q1.29-4.25,2.85-8.4c.49-1.31,1-2.6,1.53-3.89,0-.13.33-.79,0-.07.16-.38.32-.76.49-1.14.3-.69.61-1.38.92-2.07a101.35,101.35,0,0,1,8-14.4c.73-1.08,1.48-2.14,2.26-3.19l.58-.78c-.5.68-.09.13,0,0,.48-.6,1-1.2,1.46-1.79q1.21-1.47,2.52-2.88c.45-.48.9-1,1.39-1.43a7.82,7.82,0,0,1,.6-.55c-.39.3-.37.31,0,0s.45-.24-.1,0c.27,0,.88-.06-.32,0,1-.05-1-.36-.06,0,.64.22-.19-.21-.25-.16s.56.35.66.38c.46.15-.64-.7,0,0,.18.21.39.42.59.62.46.46-.53-.88,0,.08.19.32.39.63.56,1,.08.14.53,1.27.18.32.09.24.18.49.26.73a14.11,14.11,0,0,1,.46,1.92c-.16-1,0,0,0,.21s0,.77,0,1.15,0,.76,0,1.14c0,.17-.16,1.66,0,.84a58.67,58.67,0,0,1-2.23,8.84,90,90,0,0,0-2.26,9.3,122.46,122.46,0,0,0-2,19.58c-.32,13.07,1.08,26.08,2.23,39.08s2.14,26.43.71,39.59c-.08.69-.17,1.39-.25,2.08s.16-1.07,0,.27l-.12.83c-.23,1.52-.5,3-.8,4.54a84.3,84.3,0,0,1-2.12,8.42c-.37,1.22-.78,2.44-1.22,3.65-.23.62-.47,1.25-.72,1.87-.12.31-.25.61-.38.92.39-.91-.13.29-.17.38a53.22,53.22,0,0,1-3.83,7.14c-.34.53-.69,1-1,1.57l-.44.61c-.09.12-.84,1.11-.19.28-.76,1-1.56,1.9-2.4,2.8a4.5,4.5,0,0,0,6.37,6.36Z"/><path d="M545.53,580.07c6.09-16.11,7.91-33.54,8.62-50.63.76-18.23.61-36.52.79-54.76,0-3.92.19-8-1.37-11.67-1.86-4.42-6.82-6.88-11.24-4.34-3.58,2.06-5.52,6.43-6.67,10.21-1.25,4.1-2.26,8.29-3.1,12.5-3.52,17.7-4.06,35.82-4.5,53.82l-.69,28.17c-.1,4.23-.45,8.83,1,12.87s5.12,8,9.9,7.53a8.06,8.06,0,0,0,6.19-3.87,4.53,4.53,0,0,0-1.62-6.16,4.6,4.6,0,0,0-6.15,1.61c-.39.61.29-.31.58-.47-.31.18-.29,0,.05,0,.94,0-.67-.21.35-.07s-.82.06.09,0-.06.06,0,0l-.28-.09.52.21a1.85,1.85,0,0,1-.4-.23c-.34-.31.22.24.27.25-.17,0-.93-1-.54-.5s-.21-.43-.3-.57c-.26-.41,0,.06,0,.16-.1-.25-.19-.51-.27-.76s-.22-.79-.31-1.19-.09-.55-.15-.82c0,.08.06.69,0,.15-.08-.93-.14-1.85-.16-2.78,0-2,.05-4,.1-6l.63-26c.21-8.28.41-16.56.9-24.82q.36-6.12,1-12.2c.1-.94.2-1.87.31-2.8.06-.54.13-1.08.2-1.62,0-.24.05-.47.08-.7,0-.08.12-.94.07-.56s.05-.32.05-.33l.09-.69.21-1.38c.16-1.07.33-2.15.51-3.21.66-3.95,1.47-7.88,2.46-11.75.48-1.92,1-3.82,1.59-5.71q.16-.53.36-1.05c.07-.18.14-.35.2-.53,0,.06-.31.66-.08.2a20.72,20.72,0,0,1,1.24-2.27l.3-.44c0,.06-.53.54-.18.25.11-.1.64-.83.78-.79,0,0-.69.57-.32.28,0,0,.35-.17.36-.21s-.89.36-.45.23-1,.09-.43.07-.56-.07-.54-.07-.85-.4-.41-.18c.86.44-.43-.48.06.07-.45-.51-.37-.45-.05,0,.07.1.38.52,0,0s0,0,.06.2a17.91,17.91,0,0,1,.49,2.17c-.13-.81,0-.19,0,.24s.06.84.07,1.26c.06,1.94,0,3.89,0,5.83-.17,16.83-.1,33.68-.68,50.5-.27,7.92-.78,15.83-1.78,23.7,0,0-.1.76,0,.3s0,.28,0,.3c-.06.44-.12.89-.19,1.34-.15,1-.32,2.07-.49,3.11-.32,1.91-.68,3.82-1.08,5.71q-1.18,5.64-2.9,11.14c-.58,1.81-1.2,3.61-1.88,5.39-.83,2.21.93,5,3.15,5.54a4.62,4.62,0,0,0,5.53-3.14Z"/><path d="M4.5,9A4.55,4.55,0,0,0,9,4.5,4.57,4.57,0,0,0,4.5,0,4.55,4.55,0,0,0,0,4.5,4.58,4.58,0,0,0,4.5,9Z"/><path d="M511.32,956.28c7.53-28.51,4.58-58.19.06-86.93-4.76-30.25-9.85-60.45-14.7-90.69-2.45-15.24-5-30.47-7.7-45.66-2.67-14.8-5.06-29.89-9.05-44.41-3.64-13.27-9.05-26.11-10.83-39.85-2-15.35-2.7-30.94-3.2-46.4-1.93-59.7,1.84-119.42,13.22-178.1A709.92,709.92,0,0,1,501,339.42c8.92-27.33,20.53-53.65,29.66-80.9,9.05-27,15.28-55.35,13.59-84-1.56-26.22-8.88-52.53-22.58-75a137.6,137.6,0,0,0-10.44-14.73c-3.64-4.51-10,1.9-6.36,6.37,16.16,20,25.49,45.21,29.11,70.53,4,28.36-.4,56.79-8.65,84-8.18,27-19.74,52.78-29,79.39a698.22,698.22,0,0,0-23,82.65,783.4,783.4,0,0,0-16.87,174.38c.19,15.21.63,30.42,1.7,45.59,1,14.29,2.37,28.33,6.52,42.1,4,13.37,8,26.41,10.77,40.13,3,14.8,5.65,29.66,8.18,44.54,5.11,30.17,9.59,60.45,14.61,90.63,4.8,28.84,10.69,58,8.15,87.43a125,125,0,0,1-3.75,21.38c-1.48,5.61,7.2,8,8.68,2.4Z"/><path d="M473.07,957.65C488.61,937.31,493,910,492.27,885c-.83-29.87-9.71-58.68-18.41-87-17.7-57.66-29-116.68-32.77-176.93a758.46,758.46,0,0,1,10.05-180c10.79-60.46,32.63-118.23,43.53-178.63,9.38-52,10.47-110.32-14.13-158.53a132.94,132.94,0,0,0-9.31-15.51c-3.29-4.72-11.09-.23-7.77,4.54,29.82,42.86,32.19,100.82,25.15,150.88C480.12,304.1,458,361.4,445.85,420.94A763.63,763.63,0,0,0,431,598.07a750,750,0,0,0,25.91,174.2c7.89,28.78,18.45,56.93,23.6,86.41,4.53,25.88,4.75,54.72-6.15,79.16a76,76,0,0,1-9.08,15.27c-3.51,4.6,4.3,9.09,7.78,4.54Z"/><path d="M447.74,960.8c30.91-49.09,24.67-112.74,13.71-166.82-6.33-31.24-14.29-62.11-19.69-93.55a850.61,850.61,0,0,1-10.71-93.63,867.68,867.68,0,0,1,9.25-188.86c10-61.93,30.71-122.45,33.29-185.45,1.06-26-1.64-52.33-9.32-77.2C457.6,133.69,447,112,429.79,96.83A82.12,82.12,0,0,0,417,87.52c-5-3-9.53,4.82-4.54,7.77,19,11.2,31.36,30.77,39.14,50.92,9,23.19,13,48.24,13.2,73,.58,61.88-20,121.53-30.76,181.87A878,878,0,0,0,429,676.3c4.3,30.89,10.77,61.28,17.65,91.68,12.47,55.16,25.14,117,2.23,171.36A117.43,117.43,0,0,1,440,956.26c-3.09,4.91,4.69,9.43,7.77,4.54Z"/><path d="M420.51,961.14A310.24,310.24,0,0,0,441,905.47a360.56,360.56,0,0,0,10.34-60.07,374.89,374.89,0,0,0,.41-60.87,368,368,0,0,0-9.47-60.31,319.21,319.21,0,0,0-19.39-56.13c-1-2.14-2-4.27-3-6.38s-4.18-2.77-6.16-1.62a4.6,4.6,0,0,0-1.61,6.16q3.14,6.46,5.95,13.08c.2.48,0,.08,0,0,.12.29.24.57.35.85l.71,1.7c.46,1.13.92,2.27,1.37,3.41q1.32,3.33,2.55,6.69,5,13.69,8.8,27.81c2.56,9.53,4.69,19.18,6.42,28.89q1.29,7.29,2.29,14.63c.11.79-.07-.56,0,.23.05.32.09.63.13,1l.21,1.66c.16,1.27.31,2.54.46,3.81.29,2.55.55,5.09.79,7.64a376.32,376.32,0,0,1,.77,60.15q-.51,7.42-1.3,14.84-.4,3.69-.88,7.38l-.12.95c0,.09-.14,1.07-.08.59l-.05.35c0,.32-.08.63-.13.95-.18,1.26-.36,2.53-.55,3.79q-2.22,14.7-5.67,29.17Q430.69,910,426,924q-2.29,6.81-4.92,13.52-1.35,3.43-2.77,6.83c.26-.62-.29.67-.36.83-.24.57-.48,1.13-.73,1.69-.49,1.12-1,2.24-1.49,3.35-1,2.16-2,4.29-3,6.42a4.63,4.63,0,0,0,1.62,6.16c2,1.15,5.09.58,6.15-1.62Z"/><path d="M420.17,873.58,427,798.44c1.07-11.77,2.27-23.54,3.1-35.34a192.59,192.59,0,0,0,.1-31.68c-1.1-11.61-3.76-23.2-9.74-33.34a4.5,4.5,0,0,0-7.77,4.55,62.38,62.38,0,0,1,3.29,6.47c-.35-.8-.07-.17,0,0l.36.9c.21.54.41,1.08.61,1.63.42,1.15.8,2.33,1.15,3.51.7,2.33,1.28,4.69,1.76,7.08.24,1.18.45,2.36.64,3.55.11.67.21,1.33.3,2,0-.18-.11-.88,0,0,.06.4.11.81.15,1.21a175.41,175.41,0,0,1,.36,31.17c-.72,11.46-1.91,22.88-2.94,34.31l-3.37,37.32-3.77,41.8c-.22,2.35,2.22,4.6,4.5,4.5a4.62,4.62,0,0,0,4.5-4.5Z"/><path d="M414,158.87a79.06,79.06,0,0,1,6.52,11.6c.2.46.4.92.61,1.38.48,1.11-.22-.56,0,.13.09.24.19.47.29.7.42,1,.81,2.1,1.19,3.16q1.1,3.09,2,6.26a104,104,0,0,1,2.62,13c-.14-1,0,.35.08.7.06.5.12,1,.17,1.52.12,1.15.23,2.3.32,3.45q.29,3.48.37,7a198.78,198.78,0,0,1-1.32,27.59c-.26,2.34-.54,4.69-.85,7-.12.89,0,.19,0,0,0,.27-.08.53-.11.8-.09.6-.17,1.21-.26,1.81-.17,1.21-.35,2.41-.53,3.61-.7,4.61-1.47,9.21-2.27,13.8-1.78,10.22-3.73,20.4-5.39,30.64-.37,2.32.6,5,3.14,5.54,2.17.49,5.14-.66,5.54-3.14,3.06-18.91,7-37.66,9.34-56.69,2.25-18.59,3-37.75-1.43-56.09a85.71,85.71,0,0,0-12.27-28.3c-1.32-1.94-4-3-6.16-1.61-1.93,1.24-3,4.07-1.61,6.15Z"/><path d="M605.45,93.42C605.05,151.4,613,209,623.18,266c10.1,56.65,22.35,112.93,30.27,170,7.83,56.38,11.6,113.88,5,170.58a447.4,447.4,0,0,1-18.27,83.1c-8.45,26.75-18.61,52.91-27.9,79.36-18.06,51.39-32.93,106.33-26.5,161.28q1.14,9.85,3.17,19.58c1.19,5.66,9.87,3.27,8.68-2.39-11.37-54.26,1.15-110.21,18.42-161.8,17.79-53.16,40.14-104.75,48.87-160.5s6.81-112.68.19-168.61c-6.7-56.68-18.31-112.56-28.79-168.61C625.63,230.76,616.19,173.18,614.65,115q-.28-10.77-.2-21.55c0-5.79-9-5.8-9,0Z"/><path d="M629.14,951.85C639,896.26,648.76,840.64,657,784.78c8.22-56.08,14.88-112.42,18.29-169a1229.67,1229.67,0,0,0-1-169.42c-4.37-56.19-12.12-112-17.53-168.13-5.39-55.81-8.47-112.13-3.2-168.07q1-10.36,2.34-20.69c.75-5.73-8.26-5.67-9,0-7.27,55.42-5.77,111.47-1.11,167,4.69,55.87,12.43,111.42,17.57,167.23A1240.71,1240.71,0,0,1,667.45,593c-2.51,56.38-8.43,112.57-16.19,168.45s-17.34,111.66-27.14,167.3q-1.83,10.35-3.65,20.68c-1,5.67,7.67,8.1,8.67,2.39Z"/><path d="M798.69,954l12.4-72.95,12.41-73q6.16-36.29,12.34-72.58c4.1-24.1,8.21-48.21,12.59-72.26,1.88-10.32,3.32-20.91,6.55-30.92a39.89,39.89,0,0,1,5-10.82c.23-.35.48-.69.73-1s0,0-.08.09c.17-.21.34-.42.52-.62.6-.7,1.27-1.31,1.93-2s-.42.22.27-.23c.36-.23.71-.48,1.08-.69s.65-.34,1-.5-.19.08-.24.1c.29-.1.57-.2.86-.28s.71-.17,1.07-.26-.23,0-.29,0l.76-.06c.38,0,.76,0,1.14,0,.09,0,.72.06.14,0s.36.08.49.11c.36.08.7.21,1.06.3.72.18-.51-.31.45.18.33.17.66.35,1,.54l.48.3c.09.06.93.67.48.32s.47.41.6.53q.52.48,1,1c.29.3.57.61.85.92s1,1.28.64.78a39.36,39.36,0,0,1,3.16,5.1,67.28,67.28,0,0,1,4.82,12c1.65,5.22,3,10.56,4.41,15.85l19.32,71.31c6.17,22.77,12.31,45.69,14.82,69.2,2.54,23.78,1.84,47.81-.63,71.57-2.45,23.6-6.67,47-11.24,70.25q-1.69,8.63-3.43,17.23a4.61,4.61,0,0,0,3.14,5.53c2.22.61,5-.75,5.53-3.14,4.82-23.94,9.57-47.91,12.85-72.12,3.31-24.44,5.23-49.12,4-73.78s-6.15-48.49-12.36-72.21c-6.32-24.17-13-48.24-19.55-72.36l-4.93-18.17c-1.36-5-2.64-10-4.37-14.94-2.94-8.31-6.94-17.57-14.58-22.6-7.31-4.81-16.54-2.6-22.06,3.8-5.92,6.88-8.75,16.11-10.72,24.81-2.63,11.61-4.46,23.45-6.55,35.17Q834.19,692,831,710.38q-6.35,37-12.6,74.07l-12.69,74.64L793.11,933.4,790,951.64c-.41,2.39.63,4.85,3.14,5.53,2.16.6,5.13-.73,5.54-3.14Z"/><path d="M945,787.09c-3.8-21.76-11-42.91-16.59-64.25-5.66-21.49-11.13-42.94-14.84-64.86-.44-2.58-.85-5.17-1.25-7.75-.33-2.17-1.24-4-1.71-6.05-1.26-5.56-1.65-11.48-2.44-17.12q-2.44-17.31-4.72-34.64Q899,558.24,895.13,524q-7.64-67.8-12.72-135.87c-3.49-46.46-4.62-93.12-4.76-139.71-.07-23.58.15-47.16.52-70.74.37-23.28.33-46.5.3-69.78,0-5.78.06-11.57.24-17.35s-8.82-5.79-9,0c-.73,23.25.19,46.53-.24,69.79-.45,23.81-.77,47.62-.82,71.44-.12,46.81.62,93.73,3.6,140.46,2.92,45.6,7.28,91.17,12.2,136.6q3.7,34.14,8,68.21,2.18,17.06,4.49,34.1c1.6,11.74,2.63,23.82,5,35.44.33,1.66,1.13,3.11,1.51,4.73.63,2.75.87,5.65,1.33,8.44q1.36,8.09,3,16.13c2.2,10.9,4.66,21.72,7.51,32.47,2.92,11,5.78,22,8.77,33,2.91,10.73,6.22,21.35,8.88,32.14,1.3,5.29,2.46,10.6,3.39,16,1,5.69,9.67,3.28,8.68-2.4Z"/><path d="M935,949.7a142.77,142.77,0,0,0,9.82-22.63,4.53,4.53,0,0,0-3.14-5.53,4.6,4.6,0,0,0-5.54,3.14q-1,2.88-2,5.71c-.34.87-.68,1.74-1,2.61-.15.37-.3.74-.46,1.11.39-.92-.26.61-.33.77q-2.28,5.25-5,10.28A4.5,4.5,0,0,0,935,949.7Z"/><path d="M844.66,90.6a1285.91,1285.91,0,0,0-5.9,175.52c2,58.29,8.47,116.12,17.92,173.65,4.71,28.63,9.38,57.47,9.07,86.57-.31,28.59-7.23,55.32-17.21,81.94-9.7,25.87-19.64,51.55-27.83,78s-15.25,53.35-21.12,80.46A1000.22,1000.22,0,0,0,778,934.43q-.47,10.61-.7,21.23c-.14,5.79,8.86,5.79,9,0a991.36,991.36,0,0,1,18.39-169.2A956.06,956.06,0,0,1,851,626.82c10-25.74,19.54-51.46,22.51-79.09,3.06-28.55,0-57.3-4.23-85.56-4.33-29.09-9.55-58-13.08-87.22q-5.25-43.35-7.51-87a1280.69,1280.69,0,0,1,2.91-175.64q.93-10.87,2-21.73c.59-5.75-8.41-5.71-9,0Z"/><path d="M946.72,693.17c-4.75-39.88-11.73-79.53-19.24-119-7.32-38.51-14.74-77-21.73-115.57-1.79-9.87-3.59-19.75-5.28-29.64a262.75,262.75,0,0,1-2.91-29.51c-1.16-20.18-3-40.31-4.21-60.48s-1.94-40.12-2.56-60.19c-.33-10.44-.33-20.88-.11-31.32.21-10.21.31-20.54,1.19-30.72a44.54,44.54,0,0,1,1-4.82,76.16,76.16,0,0,0,.72-7.71q.65-7.15,1.46-14.3,1.7-14.75,4.23-29.38a514.93,514.93,0,0,1,12.94-56.09q2-7,4.26-13.85c1.79-5.52-6.9-7.89-8.67-2.39A529.13,529.13,0,0,0,884.8,202.51c-.21,2.29-.28,4.62-.59,6.89-.27,2-1.05,3.83-1.26,5.84-.5,5.09-.53,10.27-.74,15.37-.42,10.24-.68,20.48-.68,30.72,0,20.43.86,40.93,1.89,61.33,1,20.11,2.52,40.18,4.05,60.26.77,10.11,1.16,20.26,2.07,30.37s2.56,19.91,4.32,29.82c6.88,38.71,14.24,77.33,21.61,115.95,7.53,39.5,14.88,79.06,20.32,118.92q1,7.59,1.93,15.19c.29,2.44,1.87,4.48,4.5,4.5,2.21,0,4.79-2.08,4.5-4.5Z"/><path d="M945.4,415.52c-4.73-20.15-6.4-40.74-7.9-61.33-1.55-21.39-1.73-42.85-2.75-64.27-1-20.93-4-41.72-4.79-62.67-.38-10.77-.69-21.48-.3-32.27s1.25-21.47,2.43-32.15c2.33-21.11,6-42.05,10-62.9q.73-3.87,1.48-7.74a4.63,4.63,0,0,0-3.14-5.54c-2.2-.6-5.07.75-5.54,3.15-4.12,21.29-8,42.63-10.72,64.15s-4.28,43.28-3.55,65q.52,15.87,1.91,31.7c.93,10.53,2,21,2.79,31.59,1.54,21.49,1.44,43.08,2.72,64.6,1.26,21.27,2.88,42.69,7.07,63.61.5,2.5,1,5,1.63,7.48a4.5,4.5,0,0,0,8.68-2.4Z"/><path d="M943.27,543.88c6.9-29.38,5.48-59.84.91-89.45-4.65-30.17-12.91-59.59-19.34-89.39s-10.5-59.92-8.15-90.3c1.19-15.34,4.14-30.48,5.51-45.8a145.81,145.81,0,0,0-2.77-44.34c-3.06-14.06-8.23-27.76-9.36-42.19a70.63,70.63,0,0,1,8.24-39.53,55.48,55.48,0,0,1,5.25-7.95c1.52-1.9,1.85-4.52,0-6.37-1.57-1.57-4.84-1.9-6.36,0-8.91,11.1-14,24.5-15.78,38.58-1.85,14.87,1.38,29.5,5.25,43.79,3.77,13.93,7.09,27.83,7.25,42.34.18,15.48-2.53,30.87-4.55,46.17a255.18,255.18,0,0,0-2,46.23,348.13,348.13,0,0,0,5.64,46c5.59,30.16,14.12,59.69,19.87,89.82,5.57,29.2,8.83,59.71,3.92,89.25q-.9,5.43-2.17,10.79c-1.32,5.63,7.35,8,8.68,2.39Z"/><path d="M804,89.78c-12.41,54.05-4.12,110.7.64,165.19,5,57.13,10.39,114.24,14.92,171.4,4.48,56.54,5.68,112.79-.84,169.22-6.44,55.83-18.39,110.83-30,165.76L753.05,930.41l-4.41,20.93c-1.19,5.65,7.48,8.06,8.68,2.39L793,784.66c11.59-55,23.91-109.91,31.7-165.58a790.09,790.09,0,0,0,7.54-82.56c1-28.55,0-57.12-1.9-85.6-3.74-57.23-9.56-114.35-14.56-171.47-2.47-28.17-5.15-56.33-7.25-84.53-2-27.48-3.17-55.32.48-82.73.89-6.73,2.14-13.4,3.66-20,1.29-5.64-7.39-8-8.68-2.39Z"/><path d="M682.85,953.6c-11.42-22.71-12.24-49.51-9.15-74.3,3.51-28.09,13-55,20.58-82.18,15.41-55.37,18.28-112.76,17.41-170-.9-59-3.84-117.93-6-176.86-2.17-60.26-4.32-120.53-4.54-180.84-.2-52.9,1-107.7,19.05-158q3.22-9,7.24-17.66c2.42-5.22-5.33-9.8-7.77-4.54-22.57,48.7-26.73,103.51-27.43,156.48-.8,60.15,1.47,120.37,3.59,180.47s4.77,120.27,6.39,180.43c1.56,58.1,1.08,117.13-12.89,173.89-12.83,52.08-37,106.22-21.08,160.53a102.34,102.34,0,0,0,6.8,17.13c2.6,5.18,10.36.63,7.77-4.54Z"/><path d="M706.81,950.86c8.27-55.4,17.34-110.76,24.19-166.36a981.86,981.86,0,0,0,6.38-168c-1.35-27.88-3.49-55.71-4.83-83.59s-2.06-56-2.16-84q-.27-83.54,6.87-166.88,7.13-83,21.72-165.2,1.82-10.12,3.73-20.23c1.07-5.66-7.6-8.09-8.68-2.39q-15.42,81.35-23.56,163.87-8.21,83.1-9,166.71c-.54,55.92,2.19,111.6,5.57,167.39,3.4,56.19,3.45,112.2-2.31,168.24S709.54,872,701.24,927.64l-3.11,20.83c-.84,5.67,7.83,8.11,8.68,2.39Z"/><path d="M734.92,958.87a1141.7,1141.7,0,0,1,29.17-175c7-28.25,15.59-56,24.08-83.83,8.56-28,15.7-56.38,17.42-85.76,1.77-30.11-.52-60.39-1.9-90.48l-4.25-92.35c-1.37-29.76-2.15-59.63-4.8-89.32-2.54-28.43-8-55.7-17.51-82.62-4.65-13.11-9.51-26.52-10.42-40.51s2.68-27.18,7.36-40.15c8.34-23.09,19.18-47,13.39-72.16a45,45,0,0,0-6.59-15.25c-3.25-4.76-11-.26-7.78,4.54,14,20.53,4.6,48-3.37,69-4.87,12.81-9.81,25.65-11.53,39.33s.5,27,4.36,40c3.91,13.14,9.22,25.82,13,39a283.53,283.53,0,0,1,8.32,41.93c3.66,28.91,4.39,58.14,5.73,87.22l4.25,92.35c1.38,30,3.53,60.15,3.36,90.22-.16,29.54-4.84,58-12.88,86.33-7.9,27.9-17.17,55.37-24.6,83.41A1147.52,1147.52,0,0,0,728,937.35q-1.14,10.75-2.08,21.52c-.51,5.77,8.5,5.74,9,0Z"/><path d="M763.68,90.12A1454.69,1454.69,0,0,0,747.34,259.5,1529,1529,0,0,0,751,431c4.29,57.34,9.57,114.53,7.83,172.09-1.72,56.83-8.67,113.37-18.41,169.35-9.63,55.37-21.92,110.24-34.55,165l-4.68,20.22c-1.3,5.63,7.37,8,8.68,2.39,12.67-54.7,25.28-109.43,35.53-164.64s18.16-111,21.33-167.16c3.25-57.39-.22-114.39-4.74-171.61-4.55-57.48-7.53-114.9-6.34-172.57a1435.07,1435.07,0,0,1,13.63-170.76q1.47-10.42,3.1-20.82c.88-5.67-7.79-8.11-8.68-2.39Z"/><path d="M880.64,952.43a442.84,442.84,0,0,0,11.79-90.77,448.34,448.34,0,0,0-6.87-91.14c-1.16-6.46-2.1-13.21-4.51-19.35-2.29-5.82-6.28-12.08-13.3-12.13-6.33,0-10.33,5.42-12.49,10.72-2.36,5.81-2.75,12.21-2.19,18.4,1.32,14.77,6.78,28.64,9.42,43.16.16.88.31,1.77.45,2.66.07.44.13.89.19,1.34-.12-.93.07.55.07.59q.33,2.77.46,5.56a87.43,87.43,0,0,1-.26,11.67c-.07.77-.15,1.54-.23,2.31,0,.46-.11.92-.16,1.39a3.4,3.4,0,0,1-.09.64c-.29,2-.62,4-1,6-.72,3.66-1.6,7.29-2.59,10.88-4.11,14.84-10,29.16-15.4,43.55l-17,45.3-4.21,11.2c-.83,2.21.92,5,3.14,5.54a4.63,4.63,0,0,0,5.54-3.15L848,912.42c5.4-14.38,11.09-28.69,16.06-43.23,4.84-14.14,8.66-28.92,8.65-44,0-14.62-4.6-28.36-8-42.4-.85-3.48-1.6-7-2.15-10.52-.07-.44-.14-.88-.2-1.33.13.93-.06-.53-.07-.58-.09-.74-.17-1.49-.23-2.23-.16-1.8-.28-3.62-.26-5.42a20.28,20.28,0,0,1,.26-3.82c-.24,1.18,0,0,0-.2s.12-.69.19-1c.14-.68.29-1.36.47-2s.37-1.32.59-2c.11-.32.22-.63.34-.94s.16-1.11,0-.13c.12-1,1.25-2.36,1.8-3.17s-.69.73,0,0c.19-.19.36-.4.55-.59s.51-.37.58-.53c-.26.56-.75.49-.2.17l.53-.33c.89-.54-.19.13-.19,0a3.75,3.75,0,0,1,.69-.21c1.12-.36-.71,0,0,0a3.25,3.25,0,0,0,.76,0c-.63.18-.89-.19-.39,0a3.78,3.78,0,0,0,.79.22c-.25.14-.93-.47-.08,0,.25.13.47.28.71.43.81.51-.7-.71,0,0,.33.34,1.09.84,1.22,1.3l-.33-.42c.13.17.25.35.36.52s.36.55.52.82c.35.58.66,1.18,1,1.79.15.32.3.64.44,1-.41-.93-.08-.16,0,.08.29.73.55,1.48.79,2.23a85.42,85.42,0,0,1,2.19,9.2q2.13,10.73,3.71,21.54c.14.92.27,1.84.4,2.77.06.46.13.92.19,1.39.21,1.51-.11-.87.09.65.24,1.85.47,3.71.69,5.56q.68,5.58,1.19,11.16,2,22,1.9,44a443.06,443.06,0,0,1-2.47,44.46c-.39,3.72-.84,7.43-1.32,11.14-.2,1.52.12-.86-.09.66l-.12.92-.39,2.77q-.41,2.78-.84,5.53-1.74,11-4.05,21.92Q873.19,944.88,872,950a4.5,4.5,0,1,0,8.68,2.39Z"/><path d="M902.8,954.67l8.86-65.55c3-21.85,6.46-43.73,7.44-65.78a248.89,248.89,0,0,0-5.58-62.71c-4.22-19.82-10.42-39.15-17.36-58.16-3.45-9.42-7.08-18.78-10.75-28.12a130,130,0,0,0-5.51-13c-2-3.73-4.57-7.54-8.28-9.72a11.75,11.75,0,0,0-12.17.06c-3.58,2.25-6,6-7.62,9.78a85.87,85.87,0,0,0-4.28,13.6q-1.83,7.41-3.24,14.93c-3.91,20.69-5.77,41.71-7.33,62.69s-2.88,41.87-5.49,62.7a608.52,608.52,0,0,1-11,61.24,588.77,588.77,0,0,1-17,59.28q-2.41,7-5,14c-.83,2.21.92,5,3.14,5.53a4.6,4.6,0,0,0,5.53-3.14,581.63,581.63,0,0,0,18.18-57.48c5.12-19.67,9.25-39.61,12.38-59.69,3.2-20.48,5.23-41.07,6.76-61.73s2.76-41,5.41-61.45c1.23-9.51,3-19.69,5.13-29.32,1-4.58,2.09-9.21,3.55-13.68.3-.92.64-1.83,1-2.74,0,0,.28-.69.11-.29s.17-.38.21-.47c.21-.46.43-.92.66-1.37a23.59,23.59,0,0,1,1.36-2.33c.15-.23.88-1.15.34-.52.29-.34.57-.67.88-1s1-.87.31-.36a9.9,9.9,0,0,1,.87-.56c.2-.12.4-.21.6-.32-.1.06-.72.18-.29.15a2.13,2.13,0,0,0,.49-.15c.75-.28-.5-.07,0,0a9,9,0,0,0,1,0c.49,0-.28,0-.35-.05a3.55,3.55,0,0,0,.66.17c.76.16-.48-.34.19.07.41.25.81.49,1.21.75-.65-.43,0,0,.23.24s.65.64,1,1c.13.15.77.91.56.64s.2.29.27.39l.48.7a41.44,41.44,0,0,1,2.91,5.31c.22.49.44,1,.65,1.46s0,.06,0,0l.25.63c.45,1.09.87,2.18,1.31,3.28l2.76,7q2.67,6.81,5.27,13.65c7,18.46,13.54,37.16,18.42,56.31,5,19.44,8.09,38.73,8.41,58.76.34,21.13-2.56,42.23-5.38,63l-8.7,64.38-2.11,15.65c-.32,2.32.55,4.94,3.14,5.53,2.11.48,5.2-.64,5.54-3.14Z"/><path d="M841.43,957.74l14.27-34c2.21-5.25,4.47-10.47,6.31-15.87,1.75-5.16,3.3-10.39,5-15.56.84-2.47,1.71-4.94,2.69-7.36.13-.32.25-.64.39-1-.07.17-.33.75,0,0,.21-.48.41-1,.65-1.43a8.94,8.94,0,0,1,.44-.8c.14-.21.63-.86,0-.12a15.59,15.59,0,0,1,1.21-1.23c-.63.62-.37.24-.12.11a4.8,4.8,0,0,0,.7-.39c.47-.37-.76.34-.22.12.86-.36,0,.27-.18,0,0,0,.61-.09.58,0s-1-.2-.34,0c1,.24-.65-.37-.1,0,.38.23-.75-.58.05,0,.19.15.61.33.14.09l-.17-.22a5.39,5.39,0,0,1,.33.5l.29.55c.42.77-.06-.19-.08-.2.23.15.4,1.34.46,1.6s.09.45.13.68c.22,1.14-.06-1,0,.21.38,5.25-.4,10.57-1,15.77-.66,5.91-1.34,10.73-2.37,16.85a327.5,327.5,0,0,1-8.83,38.37,4.5,4.5,0,1,0,8.67,2.39A325.5,325.5,0,0,0,879,920.29q1.66-9.57,2.79-19.22.57-4.77,1-9.56a48,48,0,0,0,.26-7.58c-.42-5.7-3-12.54-9.78-12.73a10.72,10.72,0,0,0-7.63,3.3c-2.23,2.19-3.32,5.06-4.47,7.89-4.3,10.59-6.87,21.79-11.31,32.33l-17.07,40.63c-.91,2.17,1,5,3.14,5.53,2.64.6,4.56-.81,5.54-3.14Z"/><path d="M865.84,921.84c-.21-1.43.07.89-.07-.56,0-.3-.07-.59-.09-.89-.06-.74,0-1.47,0-2.21,0-.19.16-.84,0-.09.08-.34.19-.68.26-1,.15-.72-.48.85.06,0-.65,1.08-.11-.12.12-.08l-.43.33c.35-.19.34-.2,0,0l-.28.12c.49-.12.35-.1-.4,0a2.49,2.49,0,0,1-2.16-1.25c-.38-.47,0,.24.09.42-.28-.66,0-.55,0-.14,0,.76,0,1.49-.07,2.25-.63,6.27-1.56,12.52-2.35,18.77-.2,1.61-.41,3.21-.6,4.82,0,.14-.12.88,0,.11,0,.36-.11.72-.16,1.08-.13.78-.27,1.57-.46,2.34s-.38,1.36-.6,2c-.05.17-.37.74,0,.07-.15.3-.29.6-.46.88s-.65.87-.07.19c-.16.19-.35.36-.5.55l-.27.25c.46-.32.48-.34.07-.06-.89.25.85-.1-.13.1-.27.06-.82.12.26,0-1,.12.72.13.1,0s.93.51.11,0c.79.5.41.27.19.09-.71-.58.29.71-.11-.17a5.28,5.28,0,0,0-.33-.62c.42.69.11.33,0,.06-.12-.43-.25-.85-.35-1.28s-.07-1.09,0-.14c0-.25,0-.51-.05-.76,0-.46,0-.91,0-1.37,0-.12.07-.89,0-.15a24.3,24.3,0,0,1,1.05-4.38c2.13-7,4.47-13.86,6.71-20.78a4.53,4.53,0,0,0-3.14-5.54,4.6,4.6,0,0,0-5.53,3.14l-3.77,11.64c-1.21,3.74-2.61,7.49-3.56,11.31-1,4.19-1.15,8.49.69,12.46s5.85,6.42,10.1,5.19c8.55-2.47,8.86-13.4,9.75-20.55l1.53-12.19c.46-3.72,1.53-7.85.66-11.58a6.89,6.89,0,0,0-11.84-3.6c-3.79,3.57-3.21,9-2.54,13.65.34,2.34,3.43,3.83,5.54,3.15,2.56-.83,3.5-3,3.14-5.54Z"/><path d="M417.29,961.69c25.44-52-7.9-107.14-13.8-159.29-6.37-56.42,15.89-110.85,18.89-166.73,1.53-28.54-4-56-9.82-83.83-5.64-27-11-55.24-4.57-82.63,3.16-13.38,8.8-26,13.76-38.74a157.15,157.15,0,0,0,10.3-40.33c3.19-29.62-1.15-59.92-3.6-89.46Q420.74,207.77,413,114.85l-1.93-23.33c-.48-5.73-9.48-5.78-9,0l15.36,185c2.49,30,6.24,60.15,6.6,90.24.17,14.32-.83,28.68-4.59,42.55-3.59,13.26-9.37,25.76-14.18,38.58A137.14,137.14,0,0,0,396.33,487c-.9,13.72.45,27.46,2.58,41,4.39,27.86,12.67,55.14,14.43,83.39,3.5,56.3-18.78,110.11-19.92,166.11-.57,28.44,6.57,55.17,14.05,82.35,7,25.56,13.42,52.83,8,79.36a74.4,74.4,0,0,1-6,17.91c-2.53,5.19,5.22,9.75,7.77,4.55Z"/><path d="M951.54,958c-6.57-56.68-4-114.25-3.61-171.18q.59-86.55,1.15-173.09c.39-57.83.25-115.7,2.28-173.51,1-28.64,2.61-57.27,5.23-85.82,2.57-28.09,6.31-56.08,8.5-84.21,4.25-54.75.1-109.77-15.19-162.65q-2.76-9.55-6-19c-1.86-5.45-10.55-3.11-8.68,2.4,17.62,51.6,24.68,106.22,22,160.64-1.36,28.16-4.89,56.16-7.84,84.19-3,28.43-5,56.94-6.31,85.49-2.58,57.45-2.52,115-2.91,172.49l-1.14,173.18c-.22,32.1-.53,64.21-.62,96.31-.08,31.62.45,63.28,4.09,94.72.66,5.68,9.67,5.75,9,0Z"/></g><g id="IMG"><g id="pìncel"><rect class="cls-1" x="720.37" y="453.14" width="230.55" height="68.22" transform="translate(-41.65 79.73) rotate(-5.33)"/><rect class="cls-1" x="723.16" y="362.41" width="209.4" height="87.96" transform="translate(-34.17 78.66) rotate(-5.33)"/><rect class="cls-2" x="739.38" y="521.1" width="203.65" height="54.79" transform="translate(-47.32 80.52) rotate(-5.33)"/><rect class="cls-1" x="821.21" y="612.14" width="65.18" height="135.77" transform="translate(-59.48 82.26) rotate(-5.33)"/><path class="cls-2" d="M745.94,578.53A488.63,488.63,0,0,1,924.83,552.1c5.1.2,10.9.85,13.9,5,2.65,3.66,2,8.92-.37,12.77s-6.13,6.6-9.79,9.25c-27.09,19.6-56.37,40-89.79,41.09-23,.76-45.14-7.8-66.54-16.22-5.74-2.26-11.57-4.58-16.43-8.38s-8.69-9.39-8.92-15.56"/><path class="cls-2" d="M746.34,580A486.64,486.64,0,0,1,919.16,553.4c3.21.09,6.47.09,9.66.49,2.59.33,5.4,1,7.44,2.72,4.94,4.21,2.27,11.42-1.46,15.41a51,51,0,0,1-7.5,6.16c-2.73,2-5.46,3.94-8.21,5.88-5.41,3.84-10.88,7.6-16.48,11.17-11.16,7.12-22.88,13.57-35.41,17.93a94.8,94.8,0,0,1-39.54,5.21c-14.28-1.27-28.1-5.66-41.47-10.63-6.75-2.5-13.58-5-20.14-7.93-5.79-2.61-11.49-6-14.94-11.54a17.2,17.2,0,0,1-2.72-8.24c-.09-1.92-3.09-1.93-3,0,.32,6.4,3.91,12.11,8.76,16.13,5.42,4.51,12.07,7,18.56,9.59,13.9,5.47,27.95,10.91,42.66,13.83a98,98,0,0,0,42.57-.56c13.19-3.2,25.64-9,37.33-15.8,12.06-7,23.46-15.11,34.73-23.31,5.08-3.69,10.53-8,11.69-14.61a12,12,0,0,0-1.45-8.67,12.41,12.41,0,0,0-6.76-4.81,33.75,33.75,0,0,0-8.89-1.23c-3.85-.16-7.71-.26-11.57-.32-7.55-.12-15.12-.06-22.67.18q-22.67.7-45.2,3.52A490.72,490.72,0,0,0,756.3,573.5q-5.4,1.74-10.76,3.59c-1.82.62-1,3.52.8,2.89Z"/><path class="cls-2" d="M827,745.83a63.8,63.8,0,0,0,33.58-2.16c5.64-1.95,11.08-4.72,17-5.43s12.72,1.26,15.49,6.53c2,3.82,1.46,8.6-.54,12.42s-5.26,6.82-8.69,9.43c-6.78,5.17-14.59,9.23-23,10.54s-17.5-.35-24.25-5.57-10.71-14.22-8.9-22.55"/><path class="cls-2" d="M826.55,747.27a65.69,65.69,0,0,0,35.65-2.61c5.3-1.94,10.65-4.64,16.36-5,4.32-.29,9.17.81,12.08,4.23,3.51,4.14,2.25,10.19-.52,14.34-3,4.52-7.81,7.92-12.36,10.75-9.34,5.8-20.66,9-31.5,5.86a24.75,24.75,0,0,1-13.81-9.78,20.85,20.85,0,0,1-3.39-15.61c.39-1.89-2.5-2.69-2.89-.8-2.28,11,4.19,22.13,14,27C851,781,863.5,779.54,874,774.45a57.44,57.44,0,0,0,15-10.29c4.1-4,7.33-9.45,6.71-15.39-.56-5.37-4.2-9.29-9.18-11.07-5.34-1.92-11.06-1-16.31.75-3.41,1.14-6.69,2.6-10.08,3.77a62.83,62.83,0,0,1-10.71,2.67,62.07,62.07,0,0,1-22.08-.51c-1.89-.38-2.69,2.51-.8,2.89Z"/></g><path d="M730.07,541.06l3.73-.38,3.47,34.1a35.43,35.43,0,0,0,24.89,30.35l52.28,16L821.56,746a39.86,39.86,0,1,0,79.58-4.84c-.06-1.07-.17-2.15-.32-3.22L882.66,614.24l48-26.24a35.43,35.43,0,0,0,18.27-34.74l-3.47-34.11,3.73-.38a6.36,6.36,0,0,0,5.69-7l-7-69.06a6.37,6.37,0,0,0-7-5.7l-3.73.38-8.8-86.54a6.38,6.38,0,0,0-7-5.7l-199,20.24a6.36,6.36,0,0,0-5.69,7l8.8,86.53-3.73.38a6.36,6.36,0,0,0-5.69,7l7,69.08A6.38,6.38,0,0,0,730.07,541.06ZM935.8,450.35l5.73,56.39-206.41,21-5.74-56.39Zm-53,310.13a27.13,27.13,0,0,1-48.5-15.15l-1.78-31.25,51.18-5.21,4.54,31a27,27,0,0,1-5.44,20.64Zm53.45-205.93a22.71,22.71,0,0,1-11.71,22.27l-51.86,28.37a6.34,6.34,0,0,0-3.24,6.51l12.4,84.55-50,5.09L826.89,616a6.36,6.36,0,0,0-4.49-5.73L765.89,593a22.69,22.69,0,0,1-15.95-19.46l-3.47-34.1,186.29-18.95ZM916.29,358.49l3.43,33.76-33.12,3.37a4.51,4.51,0,0,1-4.93-4,17.27,17.27,0,0,0-18.89-15.42l-2.47.25a17.26,17.26,0,0,0-15.39,18.91l2.8,27.55a4.52,4.52,0,0,1-4,4.94l-.93.09a4.5,4.5,0,0,1-4.93-4l-.61-5.92a17.26,17.26,0,0,0-18.88-15.42l-23.45,2.38a4.5,4.5,0,0,1-4.92-4,17.27,17.27,0,0,0-18.89-15.42l-39.86,4.05L730,377.43ZM732.52,402.23,757,399.75l4.36,42.85A6.37,6.37,0,1,0,774,441.31l-4.36-42.86,2.75-.28a4.52,4.52,0,0,1,4.93,4,17.23,17.23,0,0,0,18.5,15.42L798,438.48a6.37,6.37,0,1,0,12.67-1.28l-2.12-20.83,11.16-1.14a4.52,4.52,0,0,1,4.93,4l.6,5.91a17.26,17.26,0,0,0,18.87,15.43l.91-.09a17.28,17.28,0,0,0,15.4-18.91l-2.8-27.55a4.5,4.5,0,0,1,4-4.93l2.47-.25a4.52,4.52,0,0,1,4.94,4,17.26,17.26,0,0,0,12.08,14.75l2.29,22.57A6.37,6.37,0,1,0,896,428.92h0l-2.16-21.22L921,404.94l3.43,33.74L738.16,457.63Z"/><path d="M780.22,582.34,792,585.07a6.37,6.37,0,0,0,2.87-12.42l-11.78-2.74c-.08,0-6.82-1.73-7.44-6.36-.36-2.66-.61-4.75-.78-6.38a6.38,6.38,0,0,0-7-5.67h0a6.37,6.37,0,0,0-5.65,7h0c.17,1.72.45,3.93.82,6.73,1.45,10.76,11.54,15.81,17.22,17.09Z"/></g></g></g></svg>