<?xml version="1.0" encoding="utf-8"?>
<!-- Generator: Adobe Illustrator 24.1.1, SVG Export Plug-In . SVG Version: 6.00 Build 0)  -->
<svg version="1.1" id="Capa_1" xmlns="http://www.w3.org/2000/svg" xmlns:xlink="http://www.w3.org/1999/xlink" x="0px" y="0px"
	 viewBox="0 0 896.7 900" style="enable-background:new 0 0 896.7 900;" xml:space="preserve">
<style type="text/css">
	.st0{clip-path:url(#SVGID_2_);}
	.st1{clip-path:url(#SVGID_4_);fill:#FFFFFF;}
	.st2{clip-path:url(#SVGID_4_);fill:none;stroke:#000000;stroke-width:3;stroke-miterlimit:10;}
	.st3{clip-path:url(#SVGID_4_);fill:#4E4B4E;}
	.st4{clip-path:url(#SVGID_4_);fill:none;stroke:#000000;stroke-miterlimit:10;}
	.st5{clip-path:url(#SVGID_4_);fill:#FF9966;}
	.st6{clip-path:url(#SVGID_4_);fill:#36323A;}
	.st7{clip-path:url(#SVGID_4_);fill:#FABE78;}
	.st8{clip-path:url(#SVGID_4_);fill:#FAB371;}
	.st9{clip-path:url(#SVGID_4_);fill:#1A1A1A;}
	.st10{clip-path:url(#SVGID_4_);fill:#FF8666;}
	.st11{clip-path:url(#SVGID_4_);fill:#FAAC71;}
</style>
<g>
	<g>
		<defs>
			<rect id="SVGID_1_" x="-161.3" y="-124" width="1280" height="1024"/>
		</defs>
		<clipPath id="SVGID_2_">
			<use xlink:href="#SVGID_1_"  style="overflow:visible;"/>
		</clipPath>
		<g class="st0">
			<defs>
				<rect id="SVGID_3_" x="-161.3" y="-124" width="1280" height="1024"/>
			</defs>
			<clipPath id="SVGID_4_">
				<use xlink:href="#SVGID_3_"  style="overflow:visible;"/>
			</clipPath>
			<path class="st1" d="M891.5,449.3c0,244.8-198.4,443.2-443.2,443.2S5.1,694,5.1,449.3S203.6,6.1,448.3,6.1
				S891.5,204.5,891.5,449.3"/>
			
				<ellipse transform="matrix(0.7071 -0.7071 0.7071 0.7071 -186.3683 448.6077)" class="st2" cx="448.3" cy="449.3" rx="443.2" ry="443.2"/>
			<path class="st3" d="M464.8,761.3h-21.4c-42.6,0-77.1-34.5-77.1-77.1V640c0-42.6,34.5-77.1,77.1-77.1h21.4
				c42.6,0,77.1,34.5,77.1,77.1v44.2C541.9,726.7,507.4,761.3,464.8,761.3"/>
			<path class="st4" d="M464.8,761.3h-21.4c-42.6,0-77.1-34.5-77.1-77.1V640c0-42.6,34.5-77.1,77.1-77.1h21.4
				c42.6,0,77.1,34.5,77.1,77.1v44.2C541.9,726.7,507.4,761.3,464.8,761.3z"/>
			<path class="st5" d="M462.8,748.8h-17.2c-43.7,0-79.2-35.4-79.2-79.2v-60.4c0-43.7,35.4-79.2,79.2-79.2h17.2
				c43.7,0,79.2,35.4,79.2,79.2v60.4C541.9,713.3,506.5,748.8,462.8,748.8"/>
			<path class="st5" d="M637.2,396.7h-376c-6.6,0-12-5.4-12-12V362c0-6.6,5.4-12,12-12h376c6.6,0,12,5.4,12,12v22.7
				C649.2,391.3,643.8,396.7,637.2,396.7"/>
			<path class="st6" d="M555,466.7H341.7c-41.4,0-75-33.6-75-75V185c0-41.4,33.6-75,75-75H555c41.4,0,75,33.6,75,75v206.7
				C630,433.1,596.4,466.7,555,466.7"/>
			<path class="st7" d="M544.2,575.8H350.8c-41.9,0-75.8-34-75.8-75.8V215.8c0-41.9,34-75.8,75.8-75.8h193.3
				c41.9,0,75.8,34,75.8,75.8V500C620,541.9,586,575.8,544.2,575.8"/>
			<path class="st8" d="M448.3,481.6h172.5c0,83.9-77.9,153-172.5,153c-94.6,0-172.5-69.1-172.5-153H448.3z"/>
			<path class="st7" d="M447.5,458.3H620c0,78.6-77.9,143.3-172.5,143.3C352.9,601.7,275,537,275,458.3H447.5z"/>
			<path class="st1" d="M449.2,497.1h93.8c0,36.1-42.3,65.8-93.8,65.8c-51.4,0-93.8-29.7-93.8-65.8H449.2z"/>
			<path class="st9" d="M377.7,328.6c0,6.6-5.4,12-12,12c-6.6,0-12-5.4-12-12c0-6.6,5.4-12,12-12C372.3,316.7,377.7,322,377.7,328.6
				"/>
			<path class="st9" d="M554.9,328.6c0,6.6-5.4,12-12,12c-6.6,0-12-5.4-12-12c0-6.6,5.4-12,12-12C549.5,316.7,554.9,322,554.9,328.6
				"/>
			<path class="st10" d="M497.1,403.6c0,11.6-9.8,21-22,21c-12.1,0-22-9.4-22-21c0-11.6,9.8-21,22-21
				C487.3,382.6,497.1,392,497.1,403.6"/>
			<path class="st10" d="M453.5,403.6c0,11.6-9.8,21-22,21c-12.1,0-22-9.4-22-21c0-11.6,9.8-21,22-21
				C443.7,382.6,453.5,392,453.5,403.6"/>
			<path class="st5" d="M475.2,382.6c0,23.2-9.7,42-21.7,42c-12,0-21.7-18.8-21.7-42c0-23.2,9.7-42,21.7-42
				C465.5,340.6,475.2,359.4,475.2,382.6"/>
			<path class="st5" d="M468.3,420.2c0,7.8-6.3,14.2-14.2,14.2c-7.8,0-14.2-6.3-14.2-14.2c0-7.8,6.3-14.2,14.2-14.2
				C462,406,468.3,412.4,468.3,420.2"/>
			<path class="st11" d="M580.7,312h-75.7c-6.6,0-12-5.4-12-12c0-6.6,5.4-12,12-12h75.7c6.6,0,12,5.4,12,12
				C592.7,306.6,587.4,312,580.7,312"/>
			<path class="st9" d="M579.1,300h-75.7c-6.6,0-12-5.4-12-12c0-6.6,5.4-12,12-12h75.7c6.6,0,12,5.4,12,12
				C591.1,294.6,585.7,300,579.1,300"/>
			<path class="st11" d="M391.6,312h-75.7c-6.6,0-12-5.4-12-12c0-6.6,5.4-12,12-12h75.7c6.6,0,12,5.4,12,12
				C403.6,306.6,398.2,312,391.6,312"/>
			<path class="st9" d="M391.6,300h-75.7c-6.6,0-12-5.4-12-12c0-6.6,5.4-12,12-12h75.7c6.6,0,12,5.4,12,12
				C403.6,294.6,398.2,300,391.6,300"/>
		</g>
	</g>
</g>
</svg>
