<svg xmlns="http://www.w3.org/2000/svg" viewBox="0 0 949 605.64"><defs><style>.cls-1{fill:#a8accd;}.cls-2{fill:#bbbbef;}</style></defs><g id="Capa_2" data-name="Capa 2"><g id="quien_soy2" data-name="quien soy2"><path class="cls-1" d="M6,143.21c28.15,29.26,70.94,32.34,107.55,20.89s69.21-35.17,103.05-54.89,71.26-36,108.9-30.57c72.1,10.34,121.84,95.08,193.16,111,46,10.23,93.36-10.41,132.58-39.88S724.15,82,762.47,51,846.27-4.17,892.92.6c18.78,1.92,39.18,10.45,47.26,30.05,4.18,10.13,4.43,21.74,4.6,33l3.73,243.23c.57,37.07,1,75-9.13,110.14-9.74,33.72-28.79,63-50.85,87.88C840.94,558.47,777.83,593.5,711.74,603S577,596.35,519.43,557.83c-45.38-30.36-83.95-74.05-132.13-98-64.79-32.23-143.74-23.44-202,22.49-24.45,19.29-45.4,44.56-71.76,60.16S52,561.54,30.27,538.29C9.75,516.3,8.82,479.9,9.34,447.64Q11.77,295,14.21,142.29"/><path class="cls-2" d="M0,178.12c28.33,24.55,71.41,27.13,108.26,17.53S177.93,166.15,212,149.6,283.73,119.43,321.62,124c72.57,8.67,122.64,79.76,194.44,93.07,46.29,8.59,94-8.73,133.45-33.45s73.39-56.8,112-82.8S845.83,54.5,892.8,58.51c18.9,1.61,39.43,8.76,47.57,25.2,4.21,8.49,4.46,18.23,4.63,27.64l3.75,204c.57,31.08,1,62.87-9.19,92.38-9.8,28.28-29,52.86-51.18,73.71-47.9,45-111.44,74.36-178,82.31s-135.64-5.57-193.59-37.88c-45.68-25.46-84.5-62.11-133-82.21-65.23-27-144.69-19.66-203.31,18.87-24.6,16.17-45.7,37.37-72.23,50.46s-62,16-83.86-3.5c-20.65-18.44-21.59-49-21.07-76q2.44-128.05,4.9-256.12"/></g></g></svg>