<?xml version="1.0" encoding="utf-8"?>
<!-- Generator: Adobe Illustrator 24.1.1, SVG Export Plug-In . SVG Version: 6.00 Build 0)  -->
<svg version="1.1" id="Capa_1" xmlns="http://www.w3.org/2000/svg" xmlns:xlink="http://www.w3.org/1999/xlink" x="0px" y="0px"
	 viewBox="0 0 1280 403.9" style="enable-background:new 0 0 1280 403.9;" xml:space="preserve">
<style type="text/css">
	.st0{fill:#A8ACCD;}
	.st1{fill:#BBBBEF;}
</style>
<g>
	<g id="Capa_2_2_">
		<g id="quien_soy2_1_">
			<path class="st0" d="M2.3,94.9c0.1,1.7-0.2,3.5-0.7,5.2c0.3,0.1,0.5,0.2,0.8,0.3c0.1-1.8,0.1-3.7,0.2-5.5L2.3,94.9z"/>
			<path class="st0" d="M1279.9,153.5c0-0.5,0.1-0.9,0.3-1.4c0-0.1-0.1-0.2-0.1-0.2c-3.1-11.6-1.9-23.7-1.1-35.5
				c0.5-6.7,0.7-13.5,1.1-20.2c-1.7-11.3-2.5-22.7-2.2-34.1c0.1-2.7,0.3-5.4,0.7-8.1c-0.3-2.6-0.5-5.2-0.6-7.8
				c-0.4-8.7,0.2-17.4,1.5-26c-11.2-12.9-39.2-18.6-65-19.9c-64.3-3.2-127,12.9-179.9,33.6c-52.8,20.7-99.3,46.2-153.4,65.9
				c-54.1,19.7-119.4,33.4-182.8,26.6c-98.3-10.6-166.9-67.1-266.4-74c-51.9-3.6-103.5,7.2-150.2,20.4
				c-46.7,13.2-91.6,29-142.1,36.6c-45.9,6.9-98.8,5.9-137.2-9C2,112.7,1.6,125,1.2,137.3c0.6,4.1,0.9,8.2,1.1,12.1
				c0.9,15.9-0.3,31.8-1.9,47.7c-0.3,2.7-0.6,5.5-0.9,8.2c1.2,23,3.9,46,2.2,69.1c-0.1,1.7-1.2,2.8-2.6,3.4c0.5,2.9,0.4,5.9,0.1,9
				c0.5,2.4,0.8,4.8-0.2,7.3c0.2,7,0.2,13.9-0.4,20.8c0.9,5.2,2.1,11,0.7,16.2c3.7,10.7,11.1,20.5,25.4,27.9
				c30,15.5,78.5,13.2,114.8,2.8c36.4-10.4,65.2-27.3,99-40.1c80.3-30.6,189.2-36.5,278.6-15c66.4,16,119.6,45.1,182.2,65.4
				c79.4,25.7,174.1,36.5,265.2,30.1c91.1-6.3,178.2-29.7,243.8-65.4c30.4-16.6,56.7-36.1,70.1-58.6c0.3-0.4,0.5-0.9,0.8-1.3
				c-0.1-3.3-0.2-6.6-0.2-10c0-4.2,0-8.3,0.5-12.4c-0.1-4.2,0.2-8.5,0.5-12.9c0.4-5.3,0.3-10.7,0.8-16.1c-0.9-7.4-0.5-15-1-22.3
				C1278.8,186.6,1279.8,170.1,1279.9,153.5z"/>
			<path class="st1" d="M1279.9,153.5c0-0.5,0.1-0.9,0.3-1.4c0-0.1-0.1-0.2-0.1-0.2c-3.1-11.6-1.9-23.7-1.1-35.5
				c0.5-6.7,0.7-13.5,1.1-20.2c-1.7-11.3-2.5-22.7-2.2-34.1c0.1-2.5,0.3-5,0.6-7.5c-12-10.1-39.2-14.5-64.2-15.6
				c-64.8-2.7-127.8,10.9-181,28.2c-53.2,17.3-100,38.7-154.4,55.2s-120.2,28-184,22.3c-99-8.9-168.1-56.3-268.1-62.1
				c-52.3-3-104.2,6-151.2,17.1c-47,11-92.2,24.3-143.1,30.7c-43.8,5.5-94,5-132-5.7c0,0.4,0,0.7-0.1,1.1c-0.1,1.4-0.2,2.8-0.4,4.1
				c1.6,6.5,2.1,13.3,2.5,19.5c0.9,15.9-0.3,31.8-1.9,47.7c-0.3,2.7-0.6,5.5-0.9,8.2c1.2,23,3.9,46,2.2,69c-0.1,1.7-1.2,2.8-2.6,3.4
				c0.5,2.9,0.4,5.9,0.1,9c0.5,2.4,0.8,4.8-0.2,7.3c0.2,7,0.2,13.9-0.4,20.7c0.8,4.5,1.8,9.6,1.1,14.3c4.1,4,9.6,7.6,16.8,10.8
				c30.1,13,79.1,11.1,115.6,2.3c36.6-8.7,65.7-22.9,99.6-33.7c80.8-25.7,190.4-30.6,280.4-12.6c66.9,13.4,120.4,37.8,183.4,54.8
				c79.9,21.5,175.2,30.6,267,25.3s179.4-24.9,245.5-54.9c30.6-13.9,57.1-30.3,70.6-49.2c0.1-0.2,0.2-0.3,0.4-0.5
				c0-1.5-0.1-3-0.1-4.6c0-4.2,0-8.3,0.5-12.4c-0.1-4.2,0.2-8.5,0.5-12.9c0.4-5.3,0.3-10.7,0.8-16.1c-0.9-7.4-0.5-15-1-22.3
				C1278.8,186.6,1279.8,170.1,1279.9,153.5z"/>
		</g>
	</g>
</g>
</svg>
