<svg xmlns="http://www.w3.org/2000/svg" xmlns:xlink="http://www.w3.org/1999/xlink" viewBox="0 0 939 337.35"><defs><style>.cls-1{opacity:0.54;}.cls-2{fill:url(#Degradado_sin_nombre_31);}</style><linearGradient id="Degradado_sin_nombre_31" x1="875.24" y1="168.68" x2="120.22" y2="168.68" gradientUnits="userSpaceOnUse"><stop offset="0.13" stop-color="#9fe6e4"/><stop offset="0.21" stop-color="#8ae6e4"/><stop offset="0.33" stop-color="#73e6e4"/><stop offset="0.4" stop-color="#6ae6e4"/><stop offset="0.48" stop-color="#65dfe6"/><stop offset="0.6" stop-color="#57cbeb"/><stop offset="0.73" stop-color="#41abf4"/><stop offset="0.74" stop-color="#3fa9f5"/></linearGradient></defs><g id="Capa_2" data-name="Capa 2"><g id="contacto"><g class="cls-1"><path class="cls-2" d="M7.83,137.82C1.6,105.35-4,69.34,14.53,41.42,32.07,15,66.79,3.53,99.55.8A238.5,238.5,0,0,1,225.82,25.24c54.77,27.7,102.19,78,164.22,77.45,51.64-.49,96.51-37.37,148.07-40.25,51.89-2.89,98.53,29,136.12,63.11s73,73.25,121.39,91.36c22.15,8.29,45.94,11.69,68.83,17.89s45.85,15.89,60.78,33.51,19.38,44.81,5,62.83c-100.87,7.39-202.18,6.52-303.35,5.65L443.61,335.2l-200.53-1.73L45.6,331.76c-12.86-.11-27.13-.75-36.27-9.36C-.85,312.8-.53,297.34.47,283.75L12.11,126.66"/></g></g></g></svg>