<?xml version="1.0" encoding="utf-8"?>
<!-- Generator: Adobe Illustrator 24.1.1, SVG Export Plug-In . SVG Version: 6.00 Build 0)  -->
<svg version="1.1" id="Capa_1" xmlns="http://www.w3.org/2000/svg" xmlns:xlink="http://www.w3.org/1999/xlink" x="0px" y="0px"
	 viewBox="0 0 1280 230" style="enable-background:new 0 0 1280 230;" xml:space="preserve">
<style type="text/css">
	.st0{fill:#FFFFFF;}
	.st1{fill:url(#SVGID_1_);}
	.st2{fill:#00FFFF;}
	.st3{fill:#65C8D0;}
</style>
<g>
	<g id="Capa_2_2_">
		<g id="azul_1_">
			<rect x="225" y="0.1" class="st0" width="1055" height="227.7"/>
			
				<linearGradient id="SVGID_1_" gradientUnits="userSpaceOnUse" x1="804.6609" y1="2139.5" x2="1402.47" y2="2139.5" gradientTransform="matrix(-1 0 0 -1 1402.47 2254)">
				<stop  offset="0" style="stop-color:#00FFFF"/>
				<stop  offset="0.16" style="stop-color:#00C3E3"/>
				<stop  offset="0.31" style="stop-color:#0097CE"/>
				<stop  offset="0.42" style="stop-color:#007BC1"/>
				<stop  offset="0.48" style="stop-color:#0071BC"/>
				<stop  offset="0.58" style="stop-color:#0061C5"/>
				<stop  offset="0.78" style="stop-color:#0037DE"/>
				<stop  offset="1" style="stop-color:#0000FF"/>
			</linearGradient>
			<path class="st1" d="M0,0.8v229.9h235v-1.5h16.6l47.4,1.6c0-0.5,0-1.2,0-1.2s-0.5-4.8-1.1-7.1c11.4,10.4,32.1,11.9,46.2,3.5
				c0.4-0.2,0.8-0.5,1.2-0.7c9.4,11.5,29.6,15.1,45.2,8.2c3.5-1.5,6.5-3.5,9-5.7h13.6l32.8,1.7c0.1-0.6,0.1-1.2,0.1-1.9
				c0-1.1-0.2-2.2-0.5-3.3c18.5,5.7,39.7-0.8,47.4-14.4c0.8-1.4,1.4-2.8,1.8-4.2c3.4,1.5,7.1,2.5,11.1,2.7
				c-9.4,3.5-15.3,10.6-15.3,18.5h28l27.8,2.6c0.2-0.9,0.2-1.8,0.2-2.7c0-1.6-0.3-3.2-0.8-4.8c10.6,6.5,26.4,5.4,35.2-2.4
				c8.8-7.8,7.4-19.4-3.2-25.9c-10.6-6.5-26.4-5.4-35.2,2.4c-3.7,3.3-5.8,7.5-5.8,11.8c0,1.2,0.2,2.4,0.5,3.6
				c-4.6-3.1-10.4-4.9-16.6-5.3c12.5-5,17.2-16.5,10.4-25.8s-22.4-12.7-35-7.7c-4.6,1.8-8.4,4.7-10.7,8.1c-14-10.5-37-10.7-51.2-0.3
				c-1.5,1.1-2.8,2.2-4,3.4c-2.7-7.7-12-13.2-22.8-13.5c-0.5-2.1-1.5-4.1-2.9-6c3.8-2.4,6.4-5.7,7.3-9.3c6.9,14,27.8,21.2,46.8,16.2
				c19-5.1,28.8-20.5,21.9-34.5s-27.8-21.2-46.8-16.2c-13.9,3.7-23.4,13.2-24.1,24.1c-5.2-7.4-17.2-10.6-27.6-7.5
				c-0.3-4.8-1.7-9.6-4.1-14.1c22.8,9.4,51.6,3.4,64.3-13.4c0.5-0.6,1-1.3,1.4-2c7.2,10,22.4,15.5,37.5,13.4
				c-0.2,0.8-0.3,1.7-0.3,2.5c0,7.7,8.4,14,18.8,14c10.4,0,18.9-6.2,19-13.9c0-6.5-6-12.2-14.6-13.6c1.3-1.5,2.4-3,3.3-4.6
				c6.2,3.5,13.8,5.4,21.6,5.4c11.9-0.1,22.9-4.4,29.7-11.6c5.2,7.6,17.7,10.6,28,6.8s14.4-13,9.2-20.6c-5.2-7.6-17.7-10.6-28-6.8
				c-0.6,0.2-1.1,0.4-1.6,0.7c-1.3-14.9-16.6-26.8-35.6-27.5c10.6-6.3,17.3-15.4,17.3-25.4C547.7,7.5,523.8-8,494.3-8
				C465.8-8,442.4,6.5,441,24.8c-2.5-1.2-5.2-2.2-8-2.8c4.2-6,7-19.4,7-19.4v-1l-70.9,0.7h-70.3c0,0,31.7,47.2,70.3,47.2
				c7.3,0,14.6-0.8,21.6-2.3c0.5,3.9,2.4,7.7,5.4,11c-26,1.9-45,18.9-42.4,38.1c0.3,2.3,0.9,4.6,1.9,6.8c-3.1-1.5-6.4-2.8-9.8-3.9
				c13.3-23.6-1.9-50.6-33.9-60.4c-7.2-2.2-14.9-3.4-22.8-3.5c5.8-15.4-6.4-31.4-27.3-35.7c-9-1.9-18.7-1.3-27.2,1.2H0z M480.6,70.2
				c2.1-3.2,2.4-6.9,0.6-10.2c4.3,0.7,8.7,1,13.1,1c2.6,0,5.2-0.1,7.7-0.4c-4.5,3.6-7.8,8-9.4,12.8C489,71.9,484.9,70.7,480.6,70.2z
				 M433.3,67.6c11-2.7,19.3-9.4,21.7-17.7c1.4,1,3,2,4.5,2.8c-8.9,2.3-13.6,9.6-10.4,16.1c1.1,2.2,3,4.2,5.4,5.6
				c-3.6,1.8-6.7,4.2-9.1,6.8C442.9,76.1,438.7,71.4,433.3,67.6z M405.2,206.4c0.4,0,0.7,0,1.1,0c6.3,0,12.3-1.8,16.9-5
				c0.3,2.7,1.1,5.4,2.5,8c-4.1-1-8.4-1.5-12.7-1.5c-2.4,0-4.8,0.2-7.2,0.5C405.6,207.7,405.5,207.1,405.2,206.4z M276,199.8
				c8.1-6.6,13.1-14.9,14.1-23.8c20.1,9.6,46.2,9.4,65.9-0.7c0.6,5.5,4.4,10.5,10.4,13.7c-5.7,0.9-11,2.8-15.3,5.7
				c-9.4-11.4-29.5-15.1-45-8.2c-11.1,4.9-17.2,14.2-15.6,23.6C286.7,206,281.8,202.5,276,199.8L276,199.8z M242,130.9
				c2.1-4.6,3.1-9.5,3-14.3c0,0,0,0,0,0c5.6,3.8,12.1,6.7,19.3,8.6c-1.8,3.8-2.8,7.8-3,11.8C255.4,134.1,248.8,132.1,242,130.9
				L242,130.9z M235,53.7c0.7,0.3,1.5,0.5,2.3,0.7c-0.8,0.8-1.5,1.6-2.3,2.4V53.7z"/>
			<ellipse class="st2" cx="614.6" cy="35.6" rx="26.7" ry="19.7"/>
			<ellipse class="st2" cx="694.3" cy="91.5" rx="13.8" ry="10.2"/>
			<ellipse class="st3" cx="698.4" cy="42.7" rx="9.6" ry="7.1"/>
			<ellipse class="st2" cx="766.2" cy="11.2" rx="6.5" ry="4.8"/>
			<ellipse class="st2" cx="660.8" cy="18.8" rx="10.4" ry="7.6"/>
			<ellipse class="st2" cx="781.9" cy="162.8" rx="9.2" ry="6.8"/>
			<ellipse class="st2" cx="616" cy="149.3" rx="18.2" ry="13.4"/>
			<ellipse class="st2" cx="558.4" cy="159.8" rx="29.5" ry="21.7"/>
			<ellipse class="st2" cx="616" cy="192.7" rx="12.7" ry="9.4"/>
			<ellipse class="st2" cx="647.5" cy="219.9" rx="13.3" ry="9.8"/>
			<ellipse class="st2" cx="734.2" cy="214.7" rx="7.1" ry="5.2"/>
			<ellipse class="st2" cx="634.3" cy="128.7" rx="17.9" ry="13.2"/>
			<ellipse class="st2" cx="590.1" cy="121.1" rx="7.7" ry="5.6"/>
			<ellipse class="st2" cx="538.2" cy="122.3" rx="9.3" ry="6.9"/>
			<ellipse class="st2" cx="509.3" cy="152.5" rx="19.6" ry="14.5"/>
			<ellipse class="st2" cx="614.6" cy="95.6" rx="9.3" ry="6.8"/>
			<ellipse class="st2" cx="628.8" cy="72" rx="12.5" ry="9.2"/>
			<ellipse class="st2" cx="581.2" cy="47.8" rx="16.5" ry="12.2"/>
			<ellipse class="st2" cx="574.3" cy="11.3" rx="15.9" ry="11.7"/>
		</g>
	</g>
</g>
</svg>
