<?xml version="1.0" encoding="utf-8"?>
<!-- Generator: Adobe Illustrator 24.1.1, SVG Export Plug-In . SVG Version: 6.00 Build 0)  -->
<svg version="1.1" id="Capa_1" xmlns="http://www.w3.org/2000/svg" xmlns:xlink="http://www.w3.org/1999/xlink" x="0px" y="0px"
	 viewBox="0 0 1280 230" style="enable-background:new 0 0 1280 230;" xml:space="preserve">
<style type="text/css">
	.st0{fill:#FFFFFF;}
	.st1{fill:url(#SVGID_1_);}
	.st2{fill:#93278F;}
</style>
<g>
	<g id="Capa_2_2_">
		<g id="violeta_1_">
			<rect y="1.1" class="st0" width="1055" height="228.9"/>
			
				<linearGradient id="SVGID_1_" gradientUnits="userSpaceOnUse" x1="438.2621" y1="154" x2="1036" y2="154" gradientTransform="matrix(1 0 0 -1 244 269)">
				<stop  offset="0" style="stop-color:#93278F"/>
				<stop  offset="6.000000e-02" style="stop-color:#8C288F"/>
				<stop  offset="0.33" style="stop-color:#702C91"/>
				<stop  offset="0.48" style="stop-color:#662D91"/>
				<stop  offset="0.62" style="stop-color:#562887"/>
				<stop  offset="0.9" style="stop-color:#2C1A6E"/>
				<stop  offset="1" style="stop-color:#1B1464"/>
			</linearGradient>
			<path class="st1" d="M1045.4,1.9c-19.7-6.4-43-0.1-52.2,14.5c-4,6.3-4.8,13.4-2.2,20.1c-34.6,0.6-62.1,21.8-61.3,47.5
				c0.2,5.8,1.8,11.5,4.8,16.8c-3.4,1.1-6.7,2.4-9.8,3.9c7.7-18.5-6.4-38.1-31.4-43.8c-3-0.7-6.1-1.1-9.2-1.4c3-3.3,4.8-7.1,5.4-11
				c7,1.5,14.3,2.3,21.6,2.3c38.5,0,70.3-21.3,70.3-47.4h-70.3H841v0.3c0,0,1.8,13.4,6,19.5c-2.8,0.7-5.5,1.6-8,2.8
				c-1.4-18.4-24.8-33-53.3-33c-29.5,0-53.4,15.6-53.4,34.7c0,10.1,6.6,19.2,17.3,25.6C730.6,54,715.3,66,714,80.9
				c-9.8-4.5-22.6-2.2-28.7,5c-6.1,7.2-3,16.7,6.7,21.2c9.8,4.5,22.6,2.2,28.7-5c0.3-0.4,0.6-0.8,0.9-1.2
				c6.8,7.2,17.8,11.6,29.7,11.6c7.8,0,15.4-1.9,21.6-5.4c0.9,1.6,2,3.2,3.3,4.6c-10.2,1.7-16.5,9.3-14.1,16.8
				c2.4,7.5,12.5,12.2,22.7,10.5c8.6-1.5,14.6-7.1,14.6-13.6c0-0.9-0.1-1.7-0.3-2.6c15.1,2.1,30.3-3.4,37.5-13.5
				c11.2,17.5,39.4,24.9,63,16.6c0.9-0.3,1.8-0.7,2.7-1c-2.4,4.5-3.8,9.3-4.1,14.2c-10.4-3.2-22.4,0.1-27.6,7.5
				c-0.9-14.9-18-26.5-38.2-25.8c-20.2,0.7-35.7,13.3-34.8,28.3c0.9,14.9,18,26.5,38.2,25.8c14.8-0.5,27.6-7.5,32.7-17.8
				c0.9,3.7,3.5,7,7.3,9.4c-1.4,1.9-2.4,3.9-2.9,6c-10.8,0.3-20.1,5.8-22.8,13.6c-11.7-12-34.4-14.7-50.6-6
				c-1.6,0.9-3.2,1.9-4.6,2.9c-6.5-9.4-22-13.2-34.7-8.4c-12.7,4.8-17.8,16.3-11.3,25.7c2.4,3.5,6.1,6.3,10.8,8.2
				c-6.2,0.4-12.1,2.2-16.7,5.3c2.7-10-6-19.8-19.6-21.8c-13.5-2-26.7,4.5-29.4,14.5c-2.7,10,6,19.8,19.6,21.8
				c7.4,1.1,15.1-0.3,20.9-3.9c-0.8,2.5-1,5-0.5,7.6l27.8-2.6h28c0-7.9-6-15.1-15.4-18.6c3.9-0.3,7.7-1.2,11.1-2.8
				c4.6,14.4,24.1,23.4,43.6,20c1.9-0.3,3.8-0.8,5.7-1.4c-0.3,1.1-0.5,2.2-0.5,3.3c0,0.6,0,1.2,0.1,1.9L867,230h13.6
				c0,0,31.8,12.4,46.2,4.2c3.2-1.8,5.9-4.1,8-6.7c13.5,8.9,34.3,8.1,46.3-1.9c0.3-0.3,0.7-0.6,1-0.9c-0.7,2.4-1,4.8-1.1,7.2v1.5
				l47.7-1.9h16.3v1.5h235V1.9H1045.4z M787.4,74.9c-1.7-4.8-4.9-9.2-9.4-12.9c2.6,0.2,5.2,0.4,7.7,0.4c4.4,0,8.8-0.4,13.1-1
				c-1.8,3.3-1.5,7,0.6,10.2C795.1,72.2,791.1,73.3,787.4,74.9z M834.7,82.8c-2.4-2.7-5.5-5-9.1-6.9c7.4-4.4,8.6-12.4,2.7-17.9
				c-2-1.8-4.6-3.2-7.7-4c1.6-0.9,3.1-1.8,4.5-2.9c2.4,8.4,10.7,15.2,21.7,17.8C841.3,72.8,837.2,77.5,834.7,82.8z M874.2,210.5
				c-2.4-0.3-4.8-0.5-7.2-0.5c-4.3,0-8.6,0.5-12.7,1.5c1.4-2.6,2.2-5.3,2.5-8c4.5,3.2,10.6,5,16.9,5c0.4,0,0.8,0,1.1,0
				C874.6,209.1,874.4,209.8,874.2,210.5z M989.2,212.3c2.2-13.3-10.6-25.4-28.6-27.1c-12.8-1.1-25.3,3.4-32,11.5
				c-4.3-2.9-9.6-4.9-15.3-5.7c6-3.3,9.8-8.3,10.4-13.8c19.7,10.1,45.8,10.4,65.9,0.7c1,8.9,6,17.3,14.1,23.9
				C998,204.6,993,208.1,989.2,212.3L989.2,212.3z M1017,139.8c-0.2-4.5-1.3-8.9-3.3-13.1c7.9-2.1,15.2-5.3,21.3-9.6c0,0,0,0,0,0
				c-0.1,5.4,1,10.8,3.3,16C1030.7,134.4,1023.5,136.7,1017,139.8L1017,139.8z M1045,58.3c-0.7-0.8-1.5-1.6-2.3-2.5
				c0.8-0.2,1.5-0.5,2.3-0.7V58.3z"/>
			<g id="capa0_1_">
				<ellipse class="st2" cx="705.8" cy="12.4" rx="15.9" ry="11.7"/>
				<ellipse class="st2" cx="698.8" cy="49.1" rx="16.6" ry="12.3"/>
				<ellipse class="st2" cx="651.2" cy="73.5" rx="12.5" ry="9.2"/>
				<ellipse class="st2" cx="665.5" cy="97.1" rx="9.3" ry="6.9"/>
				<ellipse class="st2" cx="770.7" cy="154.3" rx="19.6" ry="14.5"/>
				<ellipse class="st2" cx="741.8" cy="124" rx="9.3" ry="6.9"/>
				<ellipse class="st2" cx="689.9" cy="122.8" rx="7.7" ry="5.7"/>
				<ellipse class="st2" cx="645.8" cy="130.4" rx="17.9" ry="13.3"/>
				<ellipse class="st2" cx="545.8" cy="216.9" rx="7.1" ry="5.2"/>
				<ellipse class="st2" cx="632.5" cy="222.1" rx="13.3" ry="9.8"/>
				<ellipse class="st2" cx="664" cy="194.8" rx="12.7" ry="9.4"/>
				<ellipse class="st2" cx="721.6" cy="161.6" rx="29.5" ry="21.8"/>
				<ellipse class="st2" cx="664" cy="151.2" rx="18.2" ry="13.5"/>
				<ellipse class="st2" cx="498.2" cy="164.7" rx="9.2" ry="6.8"/>
				<ellipse class="st2" cx="619.2" cy="20" rx="10.4" ry="7.7"/>
				<ellipse class="st2" cx="513.8" cy="12.3" rx="6.5" ry="4.8"/>
				<ellipse class="st2" cx="581.6" cy="44" rx="9.6" ry="7.1"/>
				<ellipse class="st2" cx="585.8" cy="93" rx="13.8" ry="10.2"/>
				<ellipse class="st2" cx="665.5" cy="36.9" rx="26.7" ry="19.8"/>
			</g>
		</g>
	</g>
</g>
</svg>
