<?xml version="1.0" encoding="utf-8"?>
<!-- Generator: Adobe Illustrator 24.1.1, SVG Export Plug-In . SVG Version: 6.00 Build 0)  -->
<svg version="1.1" xmlns="http://www.w3.org/2000/svg" xmlns:xlink="http://www.w3.org/1999/xlink" x="0px" y="0px"
	 viewBox="0 0 1280 1024" style="enable-background:new 0 0 1280 1024;" xml:space="preserve">
<style type="text/css">
	.st0{display:none;fill:none;stroke:#000000;stroke-miterlimit:10;}
	.st1{fill:#FF9D2F;}
	.st2{fill:#FF9D2F;stroke:#FF9D2F;stroke-miterlimit:10;}
	.st3{fill:#FFF64C;}
	.st4{fill:#FFF64C;stroke:#FFF64C;stroke-miterlimit:10;}
	.st5{fill:#FF8935;}
	.st6{fill:#FF8935;stroke:#FF8935;stroke-miterlimit:10;}
	.st7{fill:#FFD428;}
	.st8{fill:none;stroke:#FFD428;stroke-miterlimit:10;}
	.st9{fill:#FF7E33;}
	.st10{fill:#00B9FA;}
	.st11{fill:#0085FC;}
	.st12{fill:#0085FC;stroke:#0085FC;stroke-miterlimit:10;}
	.st13{fill:#009DFB;}
	.st14{fill:#009DFB;stroke:#009DFB;stroke-miterlimit:10;}
	.st15{fill:#00CCFD;}
	.st16{fill:none;stroke:#00CCFD;stroke-miterlimit:10;}
	.st17{display:none;}
	.st18{display:inline;fill:#FF8935;stroke:#FF8935;stroke-miterlimit:10;}
</style>
<g id="Capa_1">
</g>
<g id="amarillo">
	<rect x="129.7" y="52.3" class="st0" width="1025" height="285"/>
	<g id="capa4">
		<g>
			
				<image style="overflow:visible;opacity:0.65;" width="192" height="184" xlink:href="90A8744B.png"  transform="matrix(1 0 0 1 164 170)">
			</image>
			<g>
				<path class="st1" d="M190.6,337.4c27.2-13.8,39.4-42.2,28.3-65.4c-9.1-19.1-32.3-35.8-28.6-56c2.5-13.9,18.8-25.2,37-28
					c18.2-2.8,37.6,1.8,52.4,10.3c14.8,8.5,25.5,20.5,33.5,33.2c14.9,23.6,21.1,49.6,27.1,75.3c2.4,10.2,4.8,20.5,7.2,30.7"/>
				<g>
					<path class="st1" d="M191.3,338.7c10.8-5.5,20.2-13.8,26.3-24.3c5.5-9.4,8-20.5,6.3-31.3c-1.8-11.9-9.2-21.5-16.3-30.8
						c-3.7-4.8-7.5-9.7-10.6-14.9c-2.8-4.7-5.2-9.9-5.5-15.5c-0.8-11.9,8-21,17.8-26.4c12.4-6.8,27.1-8.2,40.9-6
						c14.3,2.2,27.9,8.1,39.2,17c10.8,8.6,19.4,19.6,26.1,31.6c7.5,13.3,12.6,27.6,16.7,42.2c4.2,15,7.5,30.3,11.1,45.5
						c0.9,4,1.9,8,2.8,12c0.4,1.9,3.3,1.1,2.9-0.8c-3.7-15.8-7.3-31.7-11.3-47.4c-3.7-14.8-8.2-29.5-14.7-43.3
						c-6.1-12.9-13.9-25.2-24.1-35.3c-10.2-10.1-22.7-17.7-36.5-21.8c-13.9-4.2-29.3-5.2-43.4-1c-11.3,3.4-23.4,10.4-28.5,21.6
						c-2.3,5.1-2.8,10.7-1.6,16.2c1.2,5.6,4,10.8,7.1,15.6c6.8,10.4,15.8,19.4,21.3,30.7c4.8,9.8,5.1,21.2,1.7,31.5
						c-3.7,11.1-11.6,20.7-21.2,27.3c-2.6,1.8-5.3,3.4-8.1,4.9C188.1,336.9,189.6,339.5,191.3,338.7L191.3,338.7z"/>
				</g>
			</g>
		</g>
		<rect x="241" y="243" class="st2" width="225.1" height="94.5"/>
	</g>
	<g id="capa3">
		<g>
			
				<image style="overflow:visible;opacity:0.6;" width="769" height="324" xlink:href="90A87449.png"  transform="matrix(1 0 0 1 120 36)">
			</image>
			<g>
				<path class="st3" d="M128.8,257.1c12.4,17.7,39.3,15.7,59.6,8.3c20.3-7.3,41.8-18.2,62.4-11.9c26.3,8.1,36.8,39.1,56.4,58.4
					c29,28.6,74.8,29,115.5,27.5c62.6-2.3,125.3-4.6,187.9-6.9c6.6-0.2,13.3-0.5,19.3-2.9c15.2-6,22.5-23.4,35.5-33.3
					c18.9-14.2,45.1-10.2,68.6-11.8c49.9-3.3,96.6-36.8,115.6-83c10.2-24.8,12.4-54.3-0.8-77.6c-11.8-20.7-34.6-33.9-58.3-37
					s-47.9,3.3-68.9,14.5c-18.3,9.8-36.6,23.7-57.2,21.4c-27.9-3.1-43.1-33.2-65.2-50.6C571.2,50,532,49.4,495.9,49.8
					c-110.1,1.2-220.2,2.4-330.2,3.6c-11.6,0.1-24.4,0.7-32.9,8.5c-10.6,9.6-10.5,25.9-9.6,40.2c3.2,53.1,6.4,106.2,9.7,159.3"/>
				<g>
					<path class="st3" d="M127.5,257.9c15.4,21.3,45.9,14.9,66.8,7c15.3-5.8,31.6-13.3,48.4-11.4c13.8,1.5,24.6,10,33.2,20.4
						c8.2,9.8,14.7,20.8,22.7,30.7c8.3,10.4,18.5,18.7,30.6,24.4c24.8,11.8,53.4,12.9,80.4,12.4c35.3-0.7,70.5-2.5,105.7-3.8
						c18.3-0.7,36.6-1.3,54.9-2c9.2-0.3,18.3-0.7,27.5-1c8.4-0.3,16.9-0.1,25.2-1.4c13.8-2.3,22.3-12.2,30.8-22.4
						c4.3-5.2,8.8-10.5,14.5-14.4c6.1-4.1,13-6.5,20.2-7.9c14.7-2.8,29.8-1.5,44.7-2.3c13.2-0.8,26.3-3.6,38.7-8.2
						c24.7-9.3,46.7-25.6,62.7-46.7c17-22.4,27.8-51.3,24.7-79.7c-1.6-14.1-6.8-27.5-16-38.4c-8.7-10.3-20.3-17.9-32.8-22.7
						c-28.9-10.9-61.4-4.8-88.2,9.2c-13.7,7.2-26.6,16.7-41.8,20.6c-13.9,3.5-27.1,0-38.4-8.4c-10.4-7.8-18.6-18-27.5-27.4
						c-9.2-9.8-19.3-18.3-31.6-24c-26.3-12.2-56.3-12.5-84.7-12.2c-36.7,0.3-73.5,0.8-110.2,1.2c-73.6,0.8-147.3,1.6-220.9,2.4
						C154,52,138.8,52.3,129.5,63c-8.4,9.7-8.7,23.7-8.1,35.9c1.7,36.3,4.4,72.6,6.6,108.9c1.1,17.9,2.2,35.7,3.2,53.6
						c0.1,1.9,3.1,1.9,3,0c-2.2-35.7-4.3-71.5-6.5-107.2c-1.1-17.7-2.2-35.5-3.2-53.2c-0.7-12.8-1.1-28.7,9.3-38.1
						c11.5-10.4,30.6-8,44.9-8.2c17.9-0.2,35.7-0.4,53.6-0.6c35.7-0.4,71.5-0.8,107.2-1.2s71.5-0.8,107.2-1.2
						c17.6-0.2,35.1-0.4,52.7-0.6c14.4-0.1,28.9,0,43.2,1.7c14.4,1.7,28.8,5,41.8,11.6c12.1,6.1,21.7,15.2,30.8,25
						c16.1,17.4,33.6,38.2,60,34.8c14.2-1.9,26.8-9.7,39-16.7c13.9-8,28.3-14.6,44.1-17.7c29-5.8,61.1,1,81.4,23.7
						c20.9,23.4,20.4,57.6,9.6,85.4c-9.8,25.1-28,46.7-50.4,61.7c-11.1,7.4-23.2,13.2-35.9,17.1c-13.2,4-26.6,5.5-40.3,5.7
						c-13.9,0.2-28.1-0.3-41.6,3.6c-13,3.8-21.8,12.1-30.2,22.2c-4,4.8-8,9.8-12.9,13.8c-6.4,5.2-13.9,7.1-22,7.7
						c-17.6,1.1-35.3,1.3-53,2c-35.7,1.3-71.3,2.6-107,3.9c-30,1.1-60.8,3.8-90.7-0.5c-13.3-1.9-26.6-5.4-38.5-11.8
						c-11.9-6.3-21.3-15.4-29.3-26.1c-13.8-18.4-26.4-43-51.3-47.4c-29.6-5.3-55.2,17.5-84.2,18.4c-12,0.4-24.5-2.8-31.9-12.9
						C129,254.8,126.4,256.3,127.5,257.9L127.5,257.9z"/>
				</g>
			</g>
		</g>
		<rect x="122.7" y="50.9" class="st4" width="106.6" height="201.4"/>
		<rect x="122.7" y="253.6" class="st4" width="41" height="20.2"/>
	</g>
	<g id="capa2">
		<g>
			
				<image style="overflow:visible;opacity:0.55;" width="573" height="251" xlink:href="90A8744F.png"  transform="matrix(1 0 0 1 589 102)">
			</image>
			<g>
				<path class="st5" d="M1156.5,257.2c-8.9,8-7.7,22.1-5,33.7c2.7,11.6,5.9,24.8-0.6,34.8c-7.5,11.6-23.7,12.8-37.5,12.7
					c-105.3-0.5-210.5-1.1-315.8-1.6c-36.5-0.2-73.1-0.4-109.3-4.9c-16.5-2.1-33.3-5.2-47.4-14c-14.1-8.8-25-24.4-23.9-41
					c1.1-15.7,13.3-29.5,28.3-34.6c15-5,31.9-2,45.5,6.1c14.7,8.7,26,22.9,41.7,29.6c19.2,8.3,43.4,3.1,57.5-12.4s17.1-40,7-58.4
					c-6.3-11.5-16.7-20.1-24.9-30.2c-8.2-10.2-14.6-23.7-10.5-36.1c4.6-13.8,21-20.9,35.4-19.2s27.1,10.3,38.3,19.6
					c11.2,9.3,21.8,19.7,34.8,26.2c31.6,15.9,69.8,5.7,102.6-7.7c32.8-13.4,66.3-30.3,101.6-26.8c28.5,2.8,55.3,19.9,69.9,44.6
					c14.6,24.7,16.6,56.4,5.3,82.7"/>
				<g>
					<path class="st5" d="M1155.4,256.1c-7.4,7-8.1,17.5-6.9,27.1c1.5,11.3,6.5,22.7,4.1,34.2c-2.3,11.4-12.3,16.7-22.9,18.4
						c-12,2-24.7,1-36.8,0.9c-57.1-0.3-114.2-0.6-171.4-0.9c-28.7-0.1-57.5-0.3-86.2-0.4c-28.5-0.1-57.1,0-85.6-0.8
						c-14.2-0.4-28.3-1.1-42.4-2.3c-13.2-1.1-26.6-2.5-39.6-5.5c-11.9-2.8-23.8-7.3-33.1-15.4c-8.4-7.4-15-17.6-16.1-28.9
						c-1-10.9,3.6-21.4,11.4-29c8.3-8.1,19.5-12.2,31.1-12.1c12.3,0.1,24.1,4.6,34.1,11.6c9.5,6.7,17.7,15.1,27.5,21.4
						c17.6,11.4,40.3,12.1,58.2,0.8c17.6-11.1,26.1-32.4,22.9-52.6c-1.7-11-7.3-20.3-14.4-28.6c-7.8-9.1-17.1-17.2-22.8-28
						c-5.4-10.3-7.1-23.2,1.1-32.5c6.7-7.6,17.3-11,27.2-10.4c25.1,1.5,42.7,23.8,61.6,37.7c9.6,7.1,20.2,12.3,31.9,14.6
						c11.5,2.3,23.3,2.1,34.9,0.5c25.2-3.6,48.4-14.1,71.7-23.7c23.9-9.9,49.2-19.4,75.5-17.9c22.4,1.3,43.8,11.4,59.5,27.3
						c16.5,16.9,25.4,39.9,25.3,63.5c-0.1,11.9-2.4,23.7-7.1,34.6c-0.7,1.8,1.8,3.3,2.6,1.5c9.3-21.9,9.9-47.1,1.7-69.5
						c-7.8-21.1-23.4-38.6-43.2-49.3c-21.3-11.5-45.3-13.5-68.8-8.6c-26.2,5.4-50.1,17.8-75,27.4c-23.4,9-49.4,16.2-74.6,11.7
						c-12.6-2.3-23.9-7.8-34.1-15.5c-10.1-7.6-19.1-16.6-29.4-24c-9.6-6.8-20.6-12.6-32.6-13.3c-9.5-0.6-19.6,2.4-26.8,8.8
						c-8,7-10.6,17.5-8.3,27.7c2.7,11.7,10.4,21.1,18.4,29.7c8.2,8.9,17,17.7,20.9,29.5c3.4,10.6,3.2,22.2-0.5,32.7
						c-7.5,21.6-30,34.4-52.5,31.8c-24.7-2.9-38.6-26-60-35.9c-20.5-9.5-46.3-7.6-61.4,10.6c-6.6,8-10.2,18.2-9,28.5
						c1.2,10.7,6.9,20.5,14.5,28c18.2,17.9,45.7,20.9,69.8,23.4c28.9,2.9,58,3.3,87,3.5c29.4,0.2,58.8,0.3,88.2,0.4
						c58.9,0.3,117.8,0.6,176.8,0.9c14.7,0.1,29.5,0.1,44.2,0.2c11.8,0.1,24.1,1,35.8-1.3c9.6-1.8,18.6-6.7,22.3-16.2
						c4.3-11,0.4-23.1-1.9-34c-2.1-10-3-22.4,5.1-30C1159,256.9,1156.8,254.8,1155.4,256.1L1155.4,256.1z"/>
				</g>
			</g>
		</g>
		<rect x="1116.7" y="201.8" class="st6" width="39.9" height="138.2"/>
	</g>
	<g id="capa1">
		<g>
			
				<image style="overflow:visible;opacity:0.6;" width="417" height="290" xlink:href="90A87448.png"  transform="matrix(1 0 0 1 748 41)">
			</image>
			<g>
				<path class="st7" d="M1155.7,51.8c-11-3.4-23,3-30.1,12.1c-7.1,9.1-10.5,20.3-14.8,31s-9.9,21.6-19.6,27.7
					c-9.8,6.2-23.1,6.3-33.1,0.4c-16.4-9.8-20.6-31.6-33-46.2c-17.4-20.2-47.2-23-73.9-24.2c-19.8-0.9-39.9-1.8-59.1,3.2
					c-19.1,5.1-37.5,17.1-45.1,35.4c-8.6,20.6-2.7,46.3-15.7,64.4c-9.8,13.7-27.7,19-40.2,30.3c-17.9,16-22.6,44.8-10.9,65.8
					s38.9,31.9,61.9,25c33.9-10.2,54-52.2,89.3-54.1c18.2-1,35.1,9.5,48.2,22c13.1,12.6,23.9,27.5,38,39.1
					c25.3,20.8,60.7,28.7,92.5,20.6c13.9-3.6,27.7-10.5,35.6-22.4c8.7-13.1,9.2-29.9,9.3-45.6c0.6-61.3,1.1-122.6,1.7-183.9"/>
				<g>
					<path class="st7" d="M1156.1,50.3c-9.5-2.8-19.3,1-26.6,7.2c-8.2,7-12.6,17.2-16.4,27.1c-3.8,9.8-7.2,20-13.7,28.3
						c-6.6,8.4-16.1,13.4-26.8,12.8c-10-0.5-18.3-6-24.3-13.8c-5.6-7.3-9.3-15.9-13.8-23.9c-4.5-8-10-15.2-17.5-20.7
						c-7.6-5.6-16.5-9.1-25.6-11.4c-9.4-2.4-19.1-3.5-28.7-4.2c-11.2-0.8-22.5-1.3-33.8-1.4c-21.9-0.1-44.6,2.9-62.9,15.8
						c-7.8,5.5-14.5,12.5-18.8,21.1c-4.5,8.9-6,18.8-7,28.6c-1.1,10-1.7,20.4-5.3,29.9c-3.6,9.5-10.6,16.3-18.9,21.9
						c-8.1,5.4-17,9.8-24.5,16.1c-6.9,5.8-12.1,13.4-15.4,21.8c-6.5,16.8-4.9,36.9,5.8,51.7c10.5,14.5,28.4,23.3,46.3,23.1
						c17.6-0.1,32.5-9.8,45.6-20.8c12.8-10.8,24.7-23.6,40-30.8c7.9-3.7,16.6-5.4,25.3-4.4c10.7,1.3,20.7,6.4,29.3,12.7
						c18.4,13.5,30.8,33.5,48.4,47.9c15.9,13,35.5,20.9,55.9,23.3c19.8,2.3,41.8-0.6,59-11.2c8.6-5.3,15.5-12.7,19.4-22
						c4.2-9.8,5.1-20.7,5.4-31.3c0.7-25.4,0.5-50.8,0.7-76.2c0.2-25.9,0.5-51.8,0.7-77.7c0.1-12.5,0.2-25,0.3-37.5c0-1.9-3-1.9-3,0
						c-0.2,25.4-0.5,50.8-0.7,76.2c-0.2,25.4-0.5,50.8-0.7,76.2c-0.1,12.4-0.1,24.8-0.4,37.2c-0.2,10.6-0.9,21.5-4.9,31.4
						c-7.9,19.6-28.9,28.5-48.5,31.5c-20.2,3.1-41.4-0.1-59.9-8.7c-9.4-4.4-18-10.1-25.7-17.1c-8.4-7.6-15.7-16.3-23.3-24.6
						c-14-15.3-30.8-30.7-52.3-33c-17.1-1.9-32.1,6.5-44.9,16.9c-13.1,10.5-24.7,23.2-39.5,31.6c-7.4,4.2-15.5,7.1-24.1,7.5
						c-9,0.4-18.1-1.5-26.1-5.4c-16.6-8-27.7-23.9-28.7-42.4c-0.5-8.9,1.2-18.1,5-26.2c4-8.5,10.1-15.4,17.7-20.8
						c7.9-5.5,16.6-9.8,24.3-15.6c7.6-5.8,13.1-13.1,16.1-22.1c6.3-18.7,2.4-40,12.3-57.6c9.7-17.5,29-27.4,48-31.2
						c11.9-2.4,24.2-2.7,36.3-2.4c10.7,0.3,21.5,0.7,32.2,1.7c18.4,1.7,38.4,5.4,52.5,18.4c13.5,12.4,17.3,31.5,29.8,44.6
						c6.6,6.9,15.5,10.9,25.1,10.8c9.9-0.1,18.9-4.6,25.4-12c6.6-7.6,10.5-17,14-26.3c3.8-9.9,7.5-20.6,15-28.4
						c6.6-6.9,16.6-11.7,26.2-8.9C1157.1,53.8,1157.9,50.9,1156.1,50.3L1156.1,50.3z"/>
				</g>
			</g>
		</g>
		<g>
			
				<image style="overflow:visible;opacity:0.75;" width="83" height="77" xlink:href="90A87446.png"  transform="matrix(1 0 0 1 867 263)">
			</image>
			<g>
				<ellipse class="st7" cx="916.8" cy="294.5" rx="25.3" ry="22.4"/>
				<ellipse class="st8" cx="916.8" cy="294.5" rx="25.3" ry="22.4"/>
			</g>
		</g>
	</g>
	<g id="capa0">
		<g>
			
				<image style="overflow:visible;opacity:0.59;" width="71" height="99" xlink:href="90A87447.png"  transform="matrix(1 0 0 1 115 229)">
			</image>
			<g>
				<path class="st9" d="M124,271.9l0.2-34.1c0.5,0,1,0,1.5,0c21.8,1.1,39,17.3,38,36c-0.9,18.3-18.9,32.7-40.3,32.1L124,271.9z"/>
			</g>
		</g>
		<g>
			
				<image style="overflow:visible;opacity:0.75;" width="66" height="66" xlink:href="90A87457.png"  transform="matrix(1 0 0 1 748 58)">
			</image>
			<g>
				<circle class="st9" cx="773.8" cy="84.4" r="17.5"/>
			</g>
		</g>
	</g>
</g>
<g id="azul">
	<g id="Capa4">
		<ellipse class="st10" cx="652.5" cy="592.6" rx="111.5" ry="91.2"/>
		<rect x="495.7" y="584.5" class="st10" width="156.8" height="98.6"/>
	</g>
	<g id="capa3_1_">
		<g>
			
				<image style="overflow:visible;opacity:0.59;" width="964" height="325" xlink:href="90A87459.png"  transform="matrix(1 0 0 1 110 370)">
			</image>
			<g>
				<path class="st11" d="M804.2,678.7c3.5-41.5-3.7-85.2-28.6-119.3c-24.9-34.1-69.7-56.5-112.4-48.5c-23.2,4.3-43.8,16.8-64.4,28
					c-67.3,36.6-141.2,62.1-217.4,75c-22,3.7-44.9,6.4-66.4,0.6c-30.1-8.1-52.7-31.2-73.8-53.4c-35.5-37.4-71-74.8-106.5-112.3
					c-7.3-7.7-15.1-16.6-14.5-27c1.1-18.5,25.5-25.3,44.7-27.2c34.9-3.5,75.4-5.1,99,19.8c11.8,12.4,16.8,29.3,24.8,44.2
					c7.9,15,21.4,29.6,39,30.1c17.6,0.5,31.9-13.4,41-27.8c9-14.4,15.6-30.9,28.8-42c19-16,46.7-17,72-17.1
					c111.8-0.7,223.7-1.4,335.5-2c64.2-0.4,134.3,1.1,183.7,40.4c34.9,27.8,53.5,70.8,59.3,113.9s0.2,86.7-6.1,129.7
					c-77.2-5.2-154.3-10.4-231.5-15.6"/>
				<g>
					<path class="st11" d="M805.7,678.7c2.7-32.7-1-66.4-14.9-96.3c-12.9-27.8-34.8-50.8-62.7-63.7c-13.4-6.2-27.8-10.1-42.6-10.8
						c-16.5-0.8-32.5,2.9-47.7,9.3c-16.1,6.7-31,15.8-46.4,24c-16.3,8.7-33,16.6-50,24c-34.2,14.7-69.6,26.7-105.8,35.8
						c-17.8,4.5-35.7,8.3-53.8,11.4c-19.3,3.3-39.4,5.9-58.9,2.4c-34.1-6.2-59-31.9-81.8-56c-27.7-29.2-55.3-58.4-83-87.5
						c-7-7.4-13.9-14.7-20.9-22.1c-5.9-6.3-12.9-13.1-14.8-21.9c-3.6-15.9,12.5-24.4,25.2-27.9c14.1-3.9,29.4-4.6,44-5.1
						c15.1-0.4,30.7,0.4,45.2,5.1c15.7,5.2,27.9,15.3,36.1,29.7c7.8,13.8,12.4,29.2,22.1,41.9c8.3,10.7,20.2,19.6,34.3,19.4
						c14.8-0.2,27.1-10.2,35.8-21.4c9.6-12.3,15.1-27.2,24.7-39.6c10.5-13.5,25.4-20.5,41.9-23.5c17.4-3.2,35.2-2.6,52.8-2.7
						c20.4-0.1,40.8-0.2,61.2-0.4c80.9-0.5,161.9-1,242.8-1.5c64.2-0.4,137.4-3.7,192.6,34.9c27.3,19.1,46.1,47.8,56.6,79.1
						c11.8,35,13,72.4,10.1,108.9c-1.6,19.8-4.3,39.4-7.1,59c0.5-0.4,1-0.7,1.4-1.1c-77.2-5.2-154.3-10.4-231.5-15.6
						c-1.9-0.1-1.9,2.9,0,3c77.2,5.2,154.3,10.4,231.5,15.6c0.6,0,1.4-0.5,1.4-1.1c10.3-70.6,18.4-148.5-23-211.3
						c-17.4-26.4-42.4-45.7-71.8-57.1c-30.5-11.9-63.7-15.7-96.2-17c-37.3-1.5-74.8-0.4-112.2-0.2c-41.4,0.3-82.8,0.5-124.2,0.8
						c-41.4,0.3-82.8,0.5-124.2,0.8c-31.1,0.2-69.8-3.8-95.3,17.7c-12.2,10.3-18.8,25.1-26.7,38.6c-8.3,14.1-20.9,29.3-38.4,30.7
						c-17.3,1.5-31-11.9-39.2-25.8c-8.3-14-12.8-30.1-22.8-43.2c-18.5-24.1-50.8-27.9-79.1-26.9c-14.2,0.5-29,1.2-42.8,5
						c-10.5,2.8-22.8,8.1-27.1,19c-5.7,14.7,6.8,27.5,16,37.2c14.4,15.1,28.7,30.3,43.1,45.4c13.9,14.7,27.9,29.4,41.8,44.1
						c12.7,13.3,25,27.1,38.4,39.7c11.7,11.1,24.6,21.4,39.3,28.3c16,7.5,33.3,9.9,50.8,9c18.6-0.9,37.1-4.5,55.3-8.2
						c18.2-3.7,36.3-8.2,54.2-13.3c35.7-10.3,70.7-23.5,104.3-39.3c16.9-7.9,33.2-16.8,49.6-25.7c16.3-8.9,33.2-17.4,51.7-20.6
						c32.2-5.5,65.7,6.6,90.2,27.5c26.1,22.4,40.9,54.8,46.1,88.3c2.6,16.8,2.9,33.8,1.5,50.7C802.5,680.6,805.5,680.6,805.7,678.7
						L805.7,678.7z"/>
				</g>
			</g>
		</g>
		<rect x="803.2" y="654.4" class="st12" width="238.1" height="29.5"/>
		<rect x="466.1" y="392.7" class="st12" width="690.6" height="87.2"/>
		<rect x="122.7" y="392.7" class="st12" width="97.1" height="43.6"/>
		<rect x="803.2" y="649.3" class="st12" width="352.7" height="34.5"/>
		<g>
			<path class="st11" d="M411.9,413.9c0.8,0,1.6,0,2.4,0"/>
			<g>
				<path class="st11" d="M411.9,415.4c0.8,0,1.6,0,2.4,0c0.4,0,0.8-0.2,1.1-0.4c0.3-0.3,0.5-0.7,0.4-1.1c0-0.4-0.1-0.8-0.4-1.1
					c-0.3-0.3-0.7-0.4-1.1-0.4c-0.8,0-1.6,0-2.4,0c-0.4,0-0.8,0.2-1.1,0.4c-0.3,0.3-0.5,0.7-0.4,1.1c0,0.4,0.1,0.8,0.4,1.1
					C411.1,415.3,411.5,415.4,411.9,415.4L411.9,415.4z"/>
			</g>
		</g>
		<g>
			<path class="st11" d="M364.1,473.8c16.3-37,50.9-66.6,91.7-78.3c7.1-2,14.5-3.6,21.8-2.5c7.3,1.1,14.5,5.3,17,11.8
				c4.2,10.7-4.8,21.6-13.7,29.4c-23.6,20.6-50.9,37.4-80.5,49.5c-6.1,2.5-12.5,4.8-19.2,4.8c-6.7,0-13.7-3-16.6-8.6
				c-3.2-6.2,0.1-14.6,6.9-17.4"/>
			<g>
				<path class="st11" d="M365.4,474.6c8.6-19.5,22-36.5,38.5-50c8.3-6.9,17.5-12.8,27.1-17.7c10.1-5.1,21-9.4,32.1-11.6
					c6.1-1.3,12.6-1.7,18.6,0.3c4.8,1.6,9.6,4.8,11.6,9.7c2.2,5.3,0.5,11-2.4,15.7c-3.2,5.2-7.6,9.4-12.2,13.4
					c-18.9,16.3-39.9,29.9-62.4,40.7c-5.7,2.8-11.5,5.3-17.4,7.7c-5.9,2.4-12.2,4.5-18.6,4.2c-4.9-0.3-10.4-2.2-13.3-6.4
					c-2.7-3.8-2.3-8.8,0.3-12.6c1.3-1.9,3.1-3.3,5.2-4.2c0.8-0.3,0.9-1.4,0.5-2.1c-0.4-0.8-1.3-0.9-2.1-0.5c-4.7,2-8,6.5-8.7,11.5
					c-0.7,5.2,1.6,10,5.8,13.1c10.9,8.1,25.1,2.7,36.2-2c24.3-10.3,47.2-23.8,67.9-40.2c5-4,10.1-8,14.6-12.6
					c4.3-4.4,8.4-9.6,10-15.7c1.5-5.5,0.3-11.3-3.4-15.7c-3.6-4.2-9-6.9-14.4-7.8c-7-1.2-14.1-0.1-20.9,1.7
					c-5.8,1.5-11.5,3.5-17,5.7c-10.6,4.3-20.8,9.8-30.2,16.5c-18.4,13-34,30.2-44.4,50.2c-1.2,2.4-2.4,4.8-3.5,7.3
					C362,474.8,364.6,476.3,365.4,474.6L365.4,474.6z"/>
			</g>
		</g>
	</g>
	<g id="capa2_1_">
		<g>
			
				<image style="overflow:visible;opacity:0.58;" width="496" height="294" xlink:href="90A8745B.png"  transform="matrix(1 0 0 1 99 395)">
			</image>
			<g>
				<path class="st13" d="M122.1,423.2c55.3,4,106.3,40.5,124.9,89.3c4,10.5,6.9,21.9,15,30.1c8.9,8.9,22.7,12.2,35.8,12.2
					c13.1,0,25.9-2.7,38.9-4c37.7-3.7,76.7,5.5,107.9,25.6c13.9,9,27.9,20.5,44.8,20.2c16.8-0.3,31.7-12.6,48.5-11.6
					c11,0.7,20.9,7.3,27.5,15.6s10.6,18.1,14.5,27.7c3.5,8.8,6.9,19,1.7,27.1c-5.6,8.8-18.4,10.2-29.4,10.3
					c-66.7,0.1-135.8-18.2-198.7,2.6c-21.6,7.2-43.5,19-66,14.7c-21.3-4-37.5-21.8-59-24.6c-15.5-2-30.7,4.1-45.6,8.5
					s-32.6,6.5-45.1-2.2c-14.3-9.9-15.7-29.2-15.7-45.8c0-17.3,0-34.5-0.1-51.8c-0.1-47.5-0.1-95-0.2-142.5"/>
				<g>
					<path class="st13" d="M122.1,424.7c36.5,2.7,71.7,19.6,96.8,46.3c12.3,13.1,21.8,28.4,27.9,45.4c3.2,9,6.2,18.3,12.6,25.6
						c6.2,7.1,15.1,11.1,24.2,12.9c21.8,4.4,43.9-2.9,65.8-3.4c21.1-0.5,42.3,3,62.2,10.2c9.9,3.6,19.4,8.1,28.4,13.5
						c8.6,5.2,16.6,11.4,25.5,16.2c8.5,4.5,17.9,7.5,27.6,6.4c9.7-1.1,18.5-5.4,27.6-8.5c9.8-3.3,19.8-4.2,29.4,0.5
						c9.4,4.7,16.1,12.8,20.9,21.9c2.6,4.9,4.7,9.9,6.8,15c1.9,4.8,3.9,9.8,4.7,14.9c0.8,5.1,0.1,10.4-3.4,14.5
						c-2.8,3.2-6.8,5.1-10.9,6.2c-9.5,2.6-19.9,1.8-29.6,1.5c-11.4-0.4-22.8-1.1-34.2-2c-22.7-1.8-45.5-4.2-68.3-4.9
						c-22.1-0.7-44.4,0.3-66.1,5.1c-10.9,2.4-21.4,6.1-31.8,10.1c-10.3,3.9-20.8,7.9-31.7,9.5c-10.6,1.6-21,0.2-30.8-4
						c-8.6-3.7-16.5-8.9-24.8-13.2c-8.4-4.4-17.4-7.7-27-8.1c-11.2-0.4-22.2,3-32.8,6.3c-17.7,5.5-41.8,12.5-56.7-2.9
						c-6-6.2-8.7-14.9-9.8-23.3c-1.4-9.8-1-19.7-1-29.6c-0.1-48.9-0.1-97.7-0.2-146.6c0-11.9,0-23.9,0-35.8c0-1.9-3-1.9-3,0
						c0.1,50.2,0.1,100.4,0.2,150.6c0,12.4,0,24.8,0,37.2c0,9.4-0.1,18.8,1.6,28.1c1.6,8.2,4.8,16.4,11,22.3
						c6.8,6.4,16,9.1,25.2,9.3c22.3,0.4,42.1-12.8,64.3-12.7c20.3,0.2,35.8,14.6,53.8,21.8c9.6,3.9,19.8,4.9,30,3.5
						c11.1-1.5,21.7-5.5,32.1-9.4c10.7-4,21.4-7.8,32.6-10.3c11.3-2.5,22.7-3.9,34.2-4.6c46.5-2.8,92.7,5.9,139.1,6.7
						c9.3,0.2,19.2,0.5,28-3c8.4-3.3,13.6-10.6,13.1-19.8c-0.3-5.2-2-10.2-3.8-15c-1.9-4.8-3.8-9.7-6-14.3
						c-4.4-9.3-10.1-18-18.5-24.1c-7.9-5.8-17.4-8.4-27.1-7c-9.9,1.4-18.9,6.2-28.5,9c-10.3,3.1-20.3,2.7-30.2-1.7
						c-9.4-4.2-17.6-10.5-26.3-16c-17.8-11.5-38-19.3-58.8-23.4c-10.4-2-21.1-3.1-31.7-3.2c-11.3-0.1-22.4,1.2-33.5,2.8
						c-20,2.8-46.1,5.4-60.5-12.2c-6.6-8-9-18.4-12.7-27.8c-3.2-8.1-7.2-15.9-11.9-23.2c-20-30.5-52.1-52.6-87.2-61.8
						c-8.8-2.3-17.7-3.8-26.8-4.5C120.2,421.6,120.2,424.6,122.1,424.7L122.1,424.7z"/>
				</g>
			</g>
		</g>
		<rect x="121.9" y="608.4" class="st14" width="438.5" height="75.4"/>
		<rect x="541" y="640.7" class="st14" width="43.1" height="43.1"/>
		<g>
			<path class="st13" d="M584.1,641.3c6.4,9,11,19.3,13.3,30.1c0.7,3.3,1.1,7-0.9,9.7c-2,2.7-7.2,2.7-8-0.5"/>
			<g>
				<path class="st13" d="M582.8,642.1c5.4,7.5,9.5,15.9,12,24.9c0.6,2.1,1.2,4.3,1.5,6.4c0.3,2,0.5,4.2-0.4,6.1
					c-0.6,1.3-1.8,2.1-3.2,2.2c-1.1,0.1-2.3-0.2-2.6-1.4c-0.5-1.9-3.4-1.1-2.9,0.8c0.8,3,3.9,4,6.7,3.5c3.4-0.7,5.2-3.7,5.6-7
					c0.4-4-0.9-8.3-2-12.2c-1.2-4.1-2.7-8.1-4.5-12c-2.1-4.5-4.6-8.8-7.5-12.8C584.2,639,581.6,640.5,582.8,642.1L582.8,642.1z"/>
			</g>
		</g>
		<rect x="565.1" y="649.3" class="st14" width="25.9" height="34.5"/>
	</g>
	<g id="capa1_1_">
		<g>
			
				<image style="overflow:visible;opacity:0.59;" width="61" height="312" xlink:href="E858CEE8.png"  transform="matrix(1 0 0 1 1106 379)">
			</image>
			<g>
				<rect x="1127.3" y="403.3" class="st15" width="29.3" height="280.5"/>
				<rect x="1127.3" y="403.3" class="st16" width="29.3" height="280.5"/>
			</g>
		</g>
		<g>
			
				<image style="overflow:visible;opacity:0.59;" width="818" height="352" xlink:href="E858CEEF.png"  transform="matrix(1 0 0 1 370 365)">
			</image>
			<g>
				
					<image style="overflow:visible;opacity:0.59;" width="792" height="325" xlink:href="E858CEE9.png"  transform="matrix(1 0 0 1 389 387)">
				</image>
				<g>
					<path class="st15" d="M1156.7,682c-26.8,2.9-54,2.3-80.6-1.6c-50.6-7.4-99.3-26.9-150.5-27.8c-36.9-0.7-73.2,8.3-109.9,11.7
						c-36.7,3.4-76.6,0.2-105.7-21.4c-30.7-22.9-47.7-64.7-85.6-73.3c-30.6-6.9-60.3,11.4-89.1,23.5c-21.4,9-44.8,14.9-68.1,12.8
						c-23.3-2.1-46.4-13.1-58.9-31.9c-12.5-18.8-12.1-45.6,3.9-61.9c22.4-22.8,66.9-20.7,82-48.3c7.7-14.1,5-32.4,15.2-44.9
						c10-12.4,28.5-14.5,44.9-15.6c50-3.3,100-6.7,150-10c21.2-1.4,45.8-1.5,59.2,14.2c8.5,10,9.8,23.7,12.4,36.3
						c2.6,12.6,8.2,26.4,20.7,31.4c15.3,6.1,32.7-4.5,42.4-17.4c9.7-12.9,15.4-28.5,27.2-39.7c20.7-19.6,53.3-20.2,82.5-19.4
						c68.1,1.6,136.1,3.3,204.2,4.9c1.2,93.1,2.4,186.2,3.5,279.2"/>
					<g>
						<path class="st15" d="M1156.7,680.5c-33,3.4-66.2,1.7-98.8-4.7c-31.3-6.2-61.8-15.5-93.3-20.8c-15.5-2.6-31.2-4.1-47-3.9
							c-15.9,0.3-31.8,2.2-47.5,4.4c-30.7,4.4-61.5,10.1-92.6,8c-27.7-1.8-54.7-10-75.4-29.1c-17-15.7-29.6-35.8-47.4-50.7
							c-8.2-6.8-17.6-12.4-28-15.1c-13.6-3.6-27.8-2-41.2,1.9c-14.3,4.2-27.8,10.9-41.4,17.1c-14.4,6.5-29.1,12.1-44.6,15
							c-28.3,5.3-60.5,1.1-81.9-19.7c-18.5-18.1-23.6-50.1-4.4-69.7c15.4-15.7,39.1-19,58.2-28.1c8.7-4.1,16.9-9.7,22.3-17.8
							c7.1-10.8,7.1-24,10.9-36c4.3-13.8,15.3-20.9,28.9-23.9c14.5-3.2,29.7-3.2,44.5-4.2c34.2-2.3,68.3-4.6,102.5-6.9
							c14.5-1,29.1-2.6,43.7-2.1c12.3,0.4,25.9,2.6,35.4,11.3c19.3,17.7,8.6,50.8,30.1,67.4c9.5,7.3,21.8,6.7,32.1,1.5
							c11.6-5.8,19.4-16,25.9-26.9c7.2-12.1,13.8-24.9,25.7-33.2c10.9-7.7,24.1-11.2,37.2-12.9c13.2-1.6,26.5-1.5,39.7-1.2
							c16.9,0.4,33.8,0.8,50.7,1.2c34,0.8,68.1,1.6,102.1,2.5c16.6,0.4,33.3,0.8,49.9,1.2c-0.5-0.5-1-1-1.5-1.5
							c0.9,72.7,1.8,145.3,2.8,218c0.3,20.4,0.5,40.8,0.8,61.2c0,1.9,3,1.9,3,0c-0.9-72.7-1.8-145.3-2.8-218
							c-0.3-20.4-0.5-40.8-0.8-61.2c0-0.8-0.7-1.5-1.5-1.5c-69-1.7-138-3.6-207-5c-24.9-0.5-53.4-0.3-74.5,14.8
							c-22.6,16.3-26.7,50.1-53.8,61.1c-13.4,5.4-26.8,0.6-33.9-11.9c-6.6-11.7-6.8-25.4-10.5-38.1c-3.5-11.8-10.5-21.4-21.9-26.5
							c-11.2-5-23.9-5.7-35.9-5.4c-16,0.4-32.1,1.9-48.1,3c-17.3,1.2-34.7,2.3-52,3.5c-17.1,1.1-34.2,2.3-51.2,3.4
							c-13.2,0.9-27,1.1-39.5,5.8c-11.6,4.3-19.4,12.7-22.9,24.6c-3.7,12.6-3.7,26.5-12.3,37.1c-6.9,8.4-17,13.3-27,17.2
							c-10.1,4-20.5,7.2-30.4,11.7c-9.8,4.4-19.1,10.3-25.3,19.2c-6.7,9.6-9.3,21.8-8.2,33.3c2.6,25.9,23.1,44.5,46.7,52.6
							c28.7,9.9,60,4.2,87.4-6.8c27.6-11.1,56.5-30.5,87.7-25.6c24.6,3.9,41.4,22.9,56.7,40.9c7.7,9.1,15.4,18.3,24.3,26.3
							c9.4,8.4,20.1,15,31.8,19.6c59.1,23.3,122.2-1.5,182.6-3.1c32.9-0.9,65,6.4,96.7,14.2c31.5,7.7,63,15.1,95.5,16.6
							c16.4,0.8,32.7,0.2,49-1.5C1158.6,683.3,1158.6,680.3,1156.7,680.5L1156.7,680.5z"/>
					</g>
				</g>
			</g>
		</g>
		<g>
			
				<image style="overflow:visible;opacity:0.59;" width="74" height="74" xlink:href="E858CEEB.png"  transform="matrix(1 0 0 1 219 369)">
			</image>
			<g>
				<circle class="st15" cx="261.6" cy="414.5" r="20.6"/>
				<circle class="st16" cx="261.6" cy="414.5" r="20.6"/>
			</g>
		</g>
		<g>
			
				<image style="overflow:visible;opacity:0.59;" width="77" height="78" xlink:href="E858CEF6.png"  transform="matrix(1 0 0 1 469 604)">
			</image>
			<g>
				<circle class="st15" cx="513.2" cy="651.2" r="22.8"/>
				<circle class="st16" cx="513.2" cy="651.2" r="22.8"/>
			</g>
		</g>
		<g>
			
				<image style="overflow:visible;opacity:0.59;" width="65" height="65" xlink:href="E858CEF7.png"  transform="matrix(1 0 0 1 782 379)">
			</image>
			<g>
				<circle class="st15" cx="819.7" cy="419.8" r="16.5"/>
				<circle class="st16" cx="819.7" cy="419.8" r="16.5"/>
			</g>
		</g>
		<g>
			
				<image style="overflow:visible;opacity:0.59;" width="113" height="73" xlink:href="E858CEF8.png"  transform="matrix(1 0 0 1 595 617)">
			</image>
			<g>
				<path class="st15" d="M657.4,681.7l-40.4,0.6c0-0.2,0-0.4,0-0.6c0-22.2,18.2-40.4,40.4-40.4s40.4,18.2,40.4,40.4H657.4z"/>
				<path class="st16" d="M657.4,681.7l-40.4,0.6c0-0.2,0-0.4,0-0.6c0-22.2,18.2-40.4,40.4-40.4s40.4,18.2,40.4,40.4H657.4z"/>
			</g>
		</g>
	</g>
	<rect x="122.7" y="392.7" class="st0" width="1034" height="291.1"/>
</g>
<g id="Capa_2" class="st17">
	
		<image style="display:inline;overflow:visible;" width="626" height="626" xlink:href="coleccion-banner-abstracto-ondas_23-2148069878.jpg"  transform="matrix(2.0447 0 0 1.8009 0 0)">
	</image>
	<path class="st18" d="M1087.8,49.6h25.2c0,13.8-11.4,25.2-25.2,25.2c-13.8,0-25.2-11.4-25.2-25.2c0-0.1,0-0.1,0-0.2L1087.8,49.6z"
		/>
</g>
</svg>
