<?xml version="1.0" encoding="utf-8"?>
<!-- Generator: Adobe Illustrator 24.1.1, SVG Export Plug-In . SVG Version: 6.00 Build 0)  -->
<svg version="1.1" id="Capa_1" xmlns="http://www.w3.org/2000/svg" xmlns:xlink="http://www.w3.org/1999/xlink" x="0px" y="0px"
	 viewBox="0 0 1280 230" style="enable-background:new 0 0 1280 230;" xml:space="preserve">
<style type="text/css">
	.st0{fill:#FFFFFF;}
	.st1{fill:url(#SVGID_1_);}
	.st2{fill:#F7931E;}
</style>
<g>
	<g id="Capa_2_2_">
		<g id="rojo_1_">
			<rect y="0.2" class="st0" width="1055" height="229.8"/>
			<g id="Capa1_1_">
				
					<linearGradient id="SVGID_1_" gradientUnits="userSpaceOnUse" x1="438.2621" y1="154.5" x2="1036" y2="154.5" gradientTransform="matrix(1 0 0 -1 244 269)">
					<stop  offset="0" style="stop-color:#F7931E"/>
					<stop  offset="2.000000e-02" style="stop-color:#F68A1F"/>
					<stop  offset="0.1" style="stop-color:#F47521"/>
					<stop  offset="0.18" style="stop-color:#F26623"/>
					<stop  offset="0.27" style="stop-color:#F15D24"/>
					<stop  offset="0.42" style="stop-color:#F15A24"/>
					<stop  offset="0.55" style="stop-color:#F34A1E"/>
					<stop  offset="0.82" style="stop-color:#FA200D"/>
					<stop  offset="1" style="stop-color:#FF0000"/>
				</linearGradient>
				<path class="st1" d="M1045.4,0.9c-19.7-6.4-43-0.1-52.2,14.5c-4,6.3-4.8,13.5-2.2,20.2c-34.6,0.6-62.1,21.9-61.3,47.7
					c0.2,5.8,1.8,11.5,4.8,16.8c-3.4,1.1-6.7,2.4-9.8,4c7.7-18.6-6.4-38.3-31.4-44c-3-0.7-6.1-1.1-9.2-1.4c3-3.3,4.8-7.1,5.4-11.1
					c7,1.5,14.3,2.3,21.6,2.3c38.5,0,70.3-21.4,70.3-47.6h-70.3H841v0.3c0,0,1.8,13.5,6,19.6c-2.8,0.7-5.5,1.6-8,2.8
					C837.6,6.7,814.3-8,785.7-8c-29.5,0-53.4,15.6-53.4,34.9c0,10.2,6.6,19.3,17.3,25.7c-19,0.7-34.3,12.7-35.6,27.8
					c-9.8-4.5-22.6-2.3-28.7,5c-6.1,7.3-3,16.8,6.7,21.3c9.8,4.5,22.6,2.3,28.7-5c0.3-0.4,0.6-0.8,0.9-1.2
					c6.8,7.3,17.8,11.6,29.7,11.7c7.8,0,15.4-1.9,21.6-5.4c0.9,1.6,2,3.2,3.3,4.7c-10.2,1.8-16.5,9.3-14.1,16.9
					c2.4,7.6,12.5,12.3,22.7,10.5c8.6-1.5,14.6-7.2,14.6-13.7c0-0.9-0.1-1.7-0.3-2.6c15.1,2.1,30.3-3.4,37.5-13.6
					c11.2,17.5,39.4,25,63,16.6c0.9-0.3,1.8-0.7,2.7-1.1c-2.4,4.5-3.8,9.4-4.1,14.3c-10.4-3.2-22.4,0.1-27.6,7.5
					c-0.9-15-18-26.6-38.2-25.9c-20.2,0.7-35.7,13.4-34.8,28.4c0.9,15,18,26.6,38.2,25.9c14.8-0.5,27.6-7.6,32.7-17.9
					c0.9,3.7,3.5,7,7.3,9.4c-1.4,1.9-2.4,3.9-2.9,6.1c-10.8,0.3-20.1,5.8-22.8,13.6c-11.7-12.1-34.4-14.8-50.6-6.1
					c-1.6,0.9-3.2,1.9-4.6,2.9c-6.5-9.5-22-13.2-34.7-8.4c-12.7,4.8-17.8,16.4-11.3,25.8c2.4,3.5,6.1,6.3,10.8,8.2
					c-6.2,0.4-12.1,2.2-16.7,5.3c2.7-10.1-6-19.9-19.6-21.9c-13.5-2-26.7,4.5-29.4,14.5c-2.7,10.1,6,19.9,19.6,21.9
					c7.4,1.1,15.1-0.3,20.9-3.9c-0.8,2.5-1,5.1-0.5,7.6l27.8-2.6h28c0-8-6-15.2-15.4-18.7c3.9-0.3,7.7-1.2,11.1-2.8
					c4.6,14.5,24.1,23.5,43.6,20.1c1.9-0.3,3.8-0.8,5.7-1.4c-0.3,1.1-0.5,2.2-0.5,3.3c0,0.6,0,1.2,0.1,1.9L867,230h13.6
					c0,0,31.8,12.5,46.2,4.2c3.2-1.8,5.9-4.1,8-6.7c13.5,9,34.3,8.1,46.3-2c0.3-0.3,0.7-0.6,1-0.9c-0.7,2.4-1,4.8-1.1,7.2v1.5
					l47.7-1.9h16.3v1.5h235V0.9H1045.4z M787.4,74.3c-1.7-4.8-4.9-9.2-9.4-12.9c2.6,0.2,5.2,0.4,7.7,0.4c4.4,0,8.8-0.4,13.1-1.1
					c-1.8,3.3-1.5,7.1,0.6,10.3C795.1,71.5,791.1,72.6,787.4,74.3z M834.7,82.1c-2.4-2.7-5.5-5-9.1-6.9c7.4-4.4,8.6-12.4,2.7-17.9
					c-2-1.9-4.6-3.3-7.7-4c1.6-0.9,3.1-1.8,4.5-2.9c2.4,8.4,10.7,15.2,21.7,17.9C841.3,72.1,837.2,76.9,834.7,82.1z M874.2,210.3
					c-2.4-0.3-4.8-0.5-7.2-0.5c-4.3,0-8.6,0.5-12.7,1.5c1.4-2.6,2.2-5.3,2.5-8c4.5,3.2,10.6,5,16.9,5c0.4,0,0.8,0,1.1,0
					C874.6,209,874.4,209.7,874.2,210.3z M989.2,212.2c2.2-13.4-10.6-25.5-28.6-27.2c-12.8-1.2-25.3,3.4-32,11.6
					c-4.3-2.9-9.6-4.9-15.3-5.8c6-3.3,9.8-8.3,10.4-13.8c19.7,10.2,45.8,10.5,65.9,0.7c1,8.9,6,17.4,14.1,24
					C998,204.4,993,208,989.2,212.2L989.2,212.2z M1017,139.4c-0.2-4.5-1.3-8.9-3.3-13.2c7.9-2.1,15.2-5.4,21.3-9.6c0,0,0,0,0,0
					c-0.1,5.4,1,10.9,3.3,16C1030.7,134,1023.5,136.3,1017,139.4L1017,139.4z M1045,57.5c-0.7-0.8-1.5-1.6-2.3-2.5
					c0.8-0.2,1.5-0.5,2.3-0.7V57.5z"/>
			</g>
			<g id="Capa2_1_">
				<ellipse class="st2" cx="665.5" cy="36" rx="26.7" ry="19.9"/>
				<ellipse class="st2" cx="585.8" cy="92.4" rx="13.8" ry="10.3"/>
				<ellipse class="st2" cx="581.6" cy="43.2" rx="9.6" ry="7.2"/>
				<ellipse class="st2" cx="513.8" cy="11.4" rx="6.5" ry="4.8"/>
				<ellipse class="st2" cx="619.2" cy="19.1" rx="10.4" ry="7.7"/>
				<ellipse class="st2" cx="498.2" cy="164.4" rx="9.2" ry="6.9"/>
				<ellipse class="st2" cx="664" cy="150.8" rx="18.2" ry="13.6"/>
				<ellipse class="st2" cx="721.6" cy="161.3" rx="29.5" ry="21.9"/>
				<ellipse class="st2" cx="664" cy="194.6" rx="12.7" ry="9.5"/>
				<ellipse class="st2" cx="632.5" cy="222.1" rx="13.3" ry="9.9"/>
				<ellipse class="st2" cx="545.8" cy="216.8" rx="7.1" ry="5.3"/>
				<ellipse class="st2" cx="645.8" cy="130" rx="17.9" ry="13.3"/>
				<ellipse class="st2" cx="689.9" cy="122.3" rx="7.7" ry="5.7"/>
				<ellipse class="st2" cx="741.8" cy="123.6" rx="9.3" ry="6.9"/>
				<ellipse class="st2" cx="770.7" cy="154" rx="19.6" ry="14.6"/>
				<ellipse class="st2" cx="665.5" cy="96.6" rx="9.3" ry="6.9"/>
				<ellipse class="st2" cx="651.2" cy="72.8" rx="12.5" ry="9.3"/>
				<ellipse class="st2" cx="698.8" cy="48.4" rx="16.6" ry="12.3"/>
				<ellipse class="st2" cx="705.8" cy="11.5" rx="15.9" ry="11.8"/>
			</g>
		</g>
	</g>
</g>
</svg>
