<svg id="icons" enable-background="new 0 0 64 64" height="512" viewBox="0 0 64 64" width="512" xmlns="http://www.w3.org/2000/svg"><g><g><path d="m17 64c-.553 0-1-.447-1-1v-62c0-.553.447-1 1-1s1 .447 1 1v62c0 .553-.447 1-1 1z"/></g><g><path d="m5.001 64c-.553 0-1-.447-1-1v-62c0-.553.447-1 1-1s1 .447 1 1v62c0 .553-.447 1-1 1z"/></g><g><path d="m28.999 64c-.553 0-1-.447-1-1v-62c0-.553.447-1 1-1s1 .447 1 1v62c0 .553-.447 1-1 1z"/></g><g><path d="m40.998 64c-.553 0-1-.447-1-1v-62c0-.553.447-1 1-1s1 .447 1 1v62c0 .553-.447 1-1 1z"/></g><g><g><path d="m45.997 47.002c-1.103 0-2-.897-2-2 0-.553.447-1 1-1s1 .447 1 1v.002c.553 0 1 .446 1 .999 0 .552-.447.999-1 .999z"/></g><g><path d="m57.999 47.002c-.553 0-1-.447-1-1s.447-1 1-1c0-.553.447-1 1-1s1 .447 1 1c0 1.102-.897 2-2 2z"/></g><g><path d="m57.999 47.002h-12.002c-.553 0-1-.447-1-1s.447-1 1-1h12.002c.553 0 1 .447 1 1s-.447 1-1 1z"/></g><g><path d="m58.999 46.002c-.553 0-1-.447-1-1v-12.004c0-.553.447-1 1-1s1 .447 1 1v12.004c0 .553-.447 1-1 1z"/></g><g><path d="m44.998 46.002c-.553 0-1-.447-1-1v-12.004c0-.553.447-1 1-1s1 .447 1 1v12.004c0 .553-.447 1-1 1z"/></g><g><path d="m44.997 33.998c-.553 0-1-.447-1-1 0-2.207 1.795-4.002 4.002-4.002.553 0 1 .447 1 1s-.447 1-1 1c-1.104 0-2.002.898-2.002 2.002 0 .553-.447 1-1 1z"/></g><g><path d="m58.999 33.998c-.553 0-1-.447-1-1 0-1.103-.897-2-2-2-.553 0-1-.447-1-1s.447-1 1-1c2.206 0 4 1.794 4 4 0 .553-.447 1-1 1z"/></g><g><path d="m55.999 30.996h-8c-.553 0-1-.447-1-1s.447-1 1-1h8c.553 0 1 .447 1 1s-.447 1-1 1z"/></g><g><path d="m58.999 35.98h-14.002c-.553 0-1-.447-1-1s.447-1 1-1h14.002c.553 0 1 .447 1 1s-.447 1-1 1z"/></g><g><path d="m49.999 30.996c-.553 0-1-.447-1-1v-19c0-.553.447-1 1-1s1 .447 1 1v19c0 .553-.447 1-1 1z"/></g><g><path d="m53.997 30.996c-.553 0-1-.447-1-1v-19c0-.553.447-1 1-1s1 .447 1 1v19c0 .553-.447 1-1 1z"/></g><g><path d="m53.997 11.994c-.553 0-1-.447-1-1 0-.551-.447-.998-.998-.998-.552 0-1 .447-1 .998 0 .553-.447 1-1 1s-1-.447-1-1c0-1.653 1.346-2.998 3-2.998 1.653 0 2.998 1.345 2.998 2.998 0 .553-.447 1-1 1z"/></g><g><path d="m58.999 44.002h-14.002c-.553 0-1-.447-1-1s.447-1 1-1h14.002c.553 0 1 .447 1 1s-.447 1-1 1z"/></g><g><path d="m57.999 52c-.553 0-1-.447-1-1v-4.998c0-.553.447-1 1-1s1 .447 1 1v4.998c0 .553-.447 1-1 1z"/></g><g><path d="m54.999 49.998c-.553 0-1-.447-1-1v-2.996c0-.553.447-1 1-1s1 .447 1 1v2.996c0 .553-.447 1-1 1z"/></g><g><path d="m51.999 56.004c-.553 0-1-.447-1-1v-9.002c0-.553.447-1 1-1s1 .447 1 1v9.002c0 .553-.447 1-1 1z"/></g><g><path d="m48.999 48.996c-.553 0-1-.447-1-1v-1.994c0-.553.447-1 1-1s1 .447 1 1v1.994c0 .553-.447 1-1 1z"/></g><g><path d="m45.999 52c-.553 0-1-.447-1-1v-4.998c0-.553.447-1 1-1s1 .447 1 1v4.998c0 .553-.447 1-1 1z"/></g></g><g><path d="m7.001 33.999c-1.654 0-3-1.346-3-3 0-.553.447-1 1-1s1 .447 1 1c0 .552.448 1 1 1 .551 0 .999-.448.999-1 0-.553.447-1 1-1s1 .447 1 1c0 1.654-1.346 3-2.999 3z"/></g><g><path d="m11.001 40.005c-1.654 0-3-1.346-3-3 0-.553.447-1 1-1s1 .447 1 1c0 .552.448 1 1 1 .551 0 .999-.448.999-1 0-.553.447-1 1-1s1 .447 1 1c0 1.654-1.346 3-2.999 3z"/></g><g><path d="m15.001 36.001c-1.654 0-3-1.346-3-3 0-.553.447-1 1-1s1 .447 1 1c0 .552.448 1 1 1 .551 0 .999-.448.999-1 0-.553.447-1 1-1s1 .447 1 1c0 1.654-1.346 3-2.999 3z"/></g><g><path d="m9 38.005c-.553 0-1-.447-1-1v-6.006c0-.553.447-1 1-1s1 .447 1 1v6.006c0 .553-.447 1-1 1z"/></g><g><path d="m13.001 38.005c-.553 0-1-.447-1-1v-4.004c0-.553.447-1 1-1s1 .447 1 1v4.004c0 .553-.447 1-1 1z"/></g><g><path d="m31.001 33.999c-1.654 0-3-1.346-3-3 0-.553.447-1 1-1s1 .447 1 1c0 .552.448 1 1 1 .551 0 .999-.448.999-1 0-.553.447-1 1-1s1 .447 1 1c0 1.654-1.346 3-2.999 3z"/></g><g><path d="m35.001 28.994c-1.654 0-3-1.346-3-3 0-.553.447-1 1-1s1 .447 1 1c0 .552.448 1 1 1 .551 0 .999-.448.999-1 0-.553.447-1 1-1s1 .447 1 1c0 1.654-1.346 3-2.999 3z"/></g><g><path d="m39.001 36.001c-1.654 0-3-1.346-3-3 0-.553.447-1 1-1s1 .447 1 1c0 .552.448 1 1 1 .551 0 .999-.448.999-1 0-.553.447-1 1-1s1 .447 1 1c0 1.654-1.346 3-2.999 3z"/></g><g><path d="m33 31.999c-.553 0-1-.447-1-1v-5.005c0-.553.447-1 1-1s1 .447 1 1v5.005c0 .553-.447 1-1 1z"/></g><g><path d="m37.001 34.001c-.553 0-1-.447-1-1v-7.007c0-.553.447-1 1-1s1 .447 1 1v7.007c0 .553-.447 1-1 1z"/></g><g><path d="m26.999 44.005c-1.653 0-2.999-1.346-2.999-3 0-.553.447-1 1-1s1 .447 1 1c0 .552.448 1 .999 1 .552 0 1-.448 1-1 0-.553.447-1 1-1s1 .447 1 1c0 1.654-1.346 3-3 3z"/></g><g><path d="m22.999 50.011c-1.653 0-2.999-1.346-2.999-3 0-.553.447-1 1-1s1 .447 1 1c0 .552.448 1 .999 1 .552 0 1-.448 1-1 0-.553.447-1 1-1s1 .447 1 1c0 1.654-1.346 3-3 3z"/></g><g><path d="m18.999 53.014c-1.653 0-2.999-1.346-2.999-3 0-.553.447-1 1-1s1 .447 1 1c0 .552.448 1 .999 1 .552 0 1-.448 1-1 0-.553.447-1 1-1s1 .447 1 1c0 1.654-1.346 3-3 3z"/></g><g><path d="m25 48.011c-.553 0-1-.447-1-1v-6.006c0-.553.447-1 1-1s1 .447 1 1v6.006c0 .552-.447 1-1 1z"/></g><g><path d="m20.999 51.014c-.553 0-1-.447-1-1v-3.003c0-.553.447-1 1-1s1 .447 1 1v3.003c0 .552-.447 1-1 1z"/></g></g></svg>